%TF.GenerationSoftware,KiCad,Pcbnew,10.0.6-10.0.6~ubuntu24.04.1*%
%TF.CreationDate,2026-09-27T09:45:30+01:00*%
%TF.ProjectId,board,626f6172-642e-46b6-9963-61645f706362,v0.2.1*%
%TF.SameCoordinates,Original*%
%TF.FileFunction,Copper,L2,Bot*%
%TF.FilePolarity,Positive*%
%FSLAX46Y46*%
G04 Gerber Fmt 4.6, Leading zero omitted, Abs format (unit mm)*
G04 Created by KiCad (PCBNEW 10.0.6-10.0.6~ubuntu24.04.1) date 2026-09-27 09:45:30*
%MOMM*%
%LPD*%
G01*
G04 APERTURE LIST*
%TA.AperFunction,HeatsinkPad*%
%ADD10C,0.600000*%
%TD*%
%TA.AperFunction,ComponentPad*%
%ADD11C,0.700000*%
%TD*%
%TA.AperFunction,ComponentPad*%
%ADD12O,0.900000X2.400000*%
%TD*%
%TA.AperFunction,ComponentPad*%
%ADD13O,0.900000X1.700000*%
%TD*%
G04 APERTURE END LIST*
D10*
%TO.P,U1,19*%
%TO.N,USB_DP*%
X17860000Y-15650000D03*
X17860000Y-16750000D03*
X18410000Y-15100000D03*
X18410000Y-16200000D03*
X18410000Y-17300000D03*
X18960000Y-15650000D03*
X18960000Y-16750000D03*
X19510000Y-15100000D03*
X19510000Y-16200000D03*
X19510000Y-17300000D03*
X20060000Y-15650000D03*
X20060000Y-16750000D03*
%TD*%
D11*
%TO.P,J1,A1*%
%TO.N,GND*%
X5500000Y-4000000D03*
%TO.P,J1,A4*%
%TO.N,VBUS*%
X6350000Y-4000000D03*
%TO.P,J1,A5*%
%TO.N,CC1*%
X7200000Y-4000000D03*
%TO.P,J1,A6*%
%TO.N,USB_DP*%
X8050000Y-4000000D03*
%TO.P,J1,A7*%
%TO.N,USB_DN*%
X8900000Y-4000000D03*
%TO.P,J1,A8*%
%TO.N,N/C*%
X9750000Y-4000000D03*
%TO.P,J1,A9*%
%TO.N,VBUS*%
X10600000Y-4000000D03*
%TO.P,J1,A12*%
%TO.N,GND*%
X11450000Y-4000000D03*
%TO.P,J1,B1*%
X11450000Y-5350000D03*
%TO.P,J1,B4*%
%TO.N,VBUS*%
X10600000Y-5350000D03*
%TO.P,J1,B5*%
%TO.N,CC2*%
X9750000Y-5350000D03*
%TO.P,J1,B6*%
%TO.N,USB_DP*%
X8900000Y-5350000D03*
%TO.P,J1,B7*%
%TO.N,USB_DN*%
X8050000Y-5350000D03*
%TO.P,J1,B8*%
%TO.N,N/C*%
X7200000Y-5350000D03*
%TO.P,J1,B9*%
%TO.N,VBUS*%
X6350000Y-5350000D03*
%TO.P,J1,B12*%
%TO.N,GND*%
X5500000Y-5350000D03*
D12*
%TO.P,J1,SH*%
X4150000Y-4980000D03*
D13*
X4150000Y-8360000D03*
D12*
X12800000Y-4980000D03*
D13*
X12800000Y-8360000D03*
%TD*%
%TA.AperFunction,Conductor*%
%TO.N,GND*%
G36*
X3981694Y-518806D02*
G01*
X4000000Y-563000D01*
X4000000Y-3443850D01*
X3981694Y-3488044D01*
X3949696Y-3505149D01*
X3931232Y-3508822D01*
X3794744Y-3565357D01*
X3794739Y-3565360D01*
X3671903Y-3647436D01*
X3567436Y-3751903D01*
X3485360Y-3874739D01*
X3485357Y-3874744D01*
X3428821Y-4011234D01*
X3400000Y-4156130D01*
X3400000Y-4830000D01*
X3850000Y-4830000D01*
X3850000Y-5130000D01*
X3400000Y-5130000D01*
X3400000Y-5803869D01*
X3428821Y-5948765D01*
X3485357Y-6085255D01*
X3485360Y-6085260D01*
X3567436Y-6208096D01*
X3671903Y-6312563D01*
X3794739Y-6394639D01*
X3794744Y-6394642D01*
X3931229Y-6451176D01*
X3949691Y-6454848D01*
X3989466Y-6481423D01*
X4000000Y-6516148D01*
X4000000Y-7173850D01*
X3981694Y-7218044D01*
X3949696Y-7235149D01*
X3931232Y-7238822D01*
X3794744Y-7295357D01*
X3794739Y-7295360D01*
X3671903Y-7377436D01*
X3567436Y-7481903D01*
X3485360Y-7604739D01*
X3485357Y-7604744D01*
X3428821Y-7741234D01*
X3400000Y-7886130D01*
X3400000Y-8210000D01*
X3850000Y-8210000D01*
X3850000Y-8510000D01*
X3400000Y-8510000D01*
X3400000Y-8833869D01*
X3428821Y-8978765D01*
X3485357Y-9115255D01*
X3485360Y-9115260D01*
X3567436Y-9238096D01*
X3671903Y-9342563D01*
X3794739Y-9424639D01*
X3794744Y-9424642D01*
X3931231Y-9481177D01*
X3931234Y-9481178D01*
X3999999Y-9494856D01*
X4000000Y-9494856D01*
X4000000Y-9019808D01*
X4034204Y-9039556D01*
X4110504Y-9060000D01*
X4189496Y-9060000D01*
X4265796Y-9039556D01*
X4300000Y-9019808D01*
X4300000Y-9494856D01*
X4368765Y-9481178D01*
X4368768Y-9481177D01*
X4505255Y-9424642D01*
X4505260Y-9424639D01*
X4628096Y-9342563D01*
X4732563Y-9238096D01*
X4814639Y-9115260D01*
X4814642Y-9115255D01*
X4871178Y-8978765D01*
X4876839Y-8950307D01*
X4903415Y-8910533D01*
X4938138Y-8900000D01*
X12011862Y-8900000D01*
X12056056Y-8918306D01*
X12073161Y-8950307D01*
X12078821Y-8978765D01*
X12135357Y-9115255D01*
X12135360Y-9115260D01*
X12217436Y-9238096D01*
X12321903Y-9342563D01*
X12444739Y-9424639D01*
X12444744Y-9424642D01*
X12581231Y-9481177D01*
X12581234Y-9481178D01*
X12649999Y-9494856D01*
X12650000Y-9494856D01*
X12650000Y-9019808D01*
X12684204Y-9039556D01*
X12760504Y-9060000D01*
X12839496Y-9060000D01*
X12915796Y-9039556D01*
X12950000Y-9019808D01*
X12950000Y-9494856D01*
X13018765Y-9481178D01*
X13018768Y-9481177D01*
X13155255Y-9424642D01*
X13155260Y-9424639D01*
X13278096Y-9342563D01*
X13382563Y-9238096D01*
X13464639Y-9115260D01*
X13464642Y-9115255D01*
X13521178Y-8978765D01*
X13526839Y-8950307D01*
X13553415Y-8910533D01*
X13588138Y-8900000D01*
X32000000Y-8900000D01*
X32000000Y-563000D01*
X32018306Y-518806D01*
X32062500Y-500500D01*
X35937500Y-500500D01*
X35981694Y-518806D01*
X36000000Y-563000D01*
X36000000Y-29437000D01*
X35981694Y-29481194D01*
X35937500Y-29499500D01*
X563000Y-29499500D01*
X518806Y-29481194D01*
X500500Y-29437000D01*
X500500Y-27393715D01*
X1149500Y-27393715D01*
X1149500Y-27606284D01*
X1149501Y-27606300D01*
X1182753Y-27816240D01*
X1182753Y-27816241D01*
X1248442Y-28018410D01*
X1248446Y-28018418D01*
X1344949Y-28207817D01*
X1469897Y-28379794D01*
X1620205Y-28530102D01*
X1792182Y-28655050D01*
X1792184Y-28655051D01*
X1981588Y-28751557D01*
X2183757Y-28817246D01*
X2272244Y-28831261D01*
X2393699Y-28850498D01*
X2393705Y-28850498D01*
X2393713Y-28850500D01*
X2393715Y-28850500D01*
X2606285Y-28850500D01*
X2606287Y-28850500D01*
X2816243Y-28817246D01*
X3018412Y-28751557D01*
X3207816Y-28655051D01*
X3379792Y-28530104D01*
X3530104Y-28379792D01*
X3655051Y-28207816D01*
X3751557Y-28018412D01*
X3817246Y-27816243D01*
X3850500Y-27606287D01*
X3850500Y-27393713D01*
X3817246Y-27183757D01*
X3751557Y-26981588D01*
X3655051Y-26792184D01*
X3530104Y-26620208D01*
X3530102Y-26620205D01*
X3379794Y-26469897D01*
X3207817Y-26344949D01*
X3018418Y-26248446D01*
X3018410Y-26248442D01*
X2816241Y-26182753D01*
X2606300Y-26149501D01*
X2606288Y-26149500D01*
X2606287Y-26149500D01*
X2393713Y-26149500D01*
X2393711Y-26149500D01*
X2393699Y-26149501D01*
X2183759Y-26182753D01*
X2183758Y-26182753D01*
X1981589Y-26248442D01*
X1981581Y-26248446D01*
X1792182Y-26344949D01*
X1620205Y-26469897D01*
X1469897Y-26620205D01*
X1344949Y-26792182D01*
X1248446Y-26981581D01*
X1248442Y-26981589D01*
X1182753Y-27183758D01*
X1182753Y-27183759D01*
X1149501Y-27393699D01*
X1149500Y-27393715D01*
X500500Y-27393715D01*
X500500Y-15571157D01*
X17059500Y-15571157D01*
X17059500Y-15728842D01*
X17090262Y-15883495D01*
X17150606Y-16029180D01*
X17209142Y-16116785D01*
X17238208Y-16160285D01*
X17238212Y-16160290D01*
X17238265Y-16160355D01*
X17238273Y-16160381D01*
X17239917Y-16162842D01*
X17239170Y-16163340D01*
X17252147Y-16206131D01*
X17239429Y-16236832D01*
X17239917Y-16237158D01*
X17238280Y-16239606D01*
X17238265Y-16239645D01*
X17238212Y-16239709D01*
X17150606Y-16370819D01*
X17090262Y-16516504D01*
X17059500Y-16671157D01*
X17059500Y-16828842D01*
X17090262Y-16983495D01*
X17150606Y-17129180D01*
X17238210Y-17260288D01*
X17349711Y-17371789D01*
X17480819Y-17459393D01*
X17480820Y-17459393D01*
X17480821Y-17459394D01*
X17612313Y-17513859D01*
X17646138Y-17547684D01*
X17700602Y-17679172D01*
X17700606Y-17679180D01*
X17788210Y-17810288D01*
X17899711Y-17921789D01*
X18030819Y-18009393D01*
X18030820Y-18009393D01*
X18030821Y-18009394D01*
X18176503Y-18069737D01*
X18331158Y-18100500D01*
X18488842Y-18100500D01*
X18643497Y-18069737D01*
X18789179Y-18009394D01*
X18920289Y-17921789D01*
X18920295Y-17921782D01*
X18920343Y-17921744D01*
X18920367Y-17921736D01*
X18922842Y-17920083D01*
X18923343Y-17920833D01*
X18966116Y-17907851D01*
X18996830Y-17920573D01*
X18997158Y-17920083D01*
X18999622Y-17921729D01*
X18999657Y-17921744D01*
X18999708Y-17921786D01*
X18999711Y-17921789D01*
X18999714Y-17921791D01*
X19130819Y-18009393D01*
X19130820Y-18009393D01*
X19130821Y-18009394D01*
X19276503Y-18069737D01*
X19431158Y-18100500D01*
X19588842Y-18100500D01*
X19743497Y-18069737D01*
X19889179Y-18009394D01*
X20020289Y-17921789D01*
X20131789Y-17810289D01*
X20219394Y-17679179D01*
X20273861Y-17547682D01*
X20307682Y-17513861D01*
X20439179Y-17459394D01*
X20570289Y-17371789D01*
X20681789Y-17260289D01*
X20769394Y-17129179D01*
X20829737Y-16983497D01*
X20860500Y-16828842D01*
X20860500Y-16671158D01*
X20829737Y-16516503D01*
X20769394Y-16370821D01*
X20681789Y-16239711D01*
X20681786Y-16239708D01*
X20681744Y-16239657D01*
X20681736Y-16239632D01*
X20680083Y-16237158D01*
X20680833Y-16236656D01*
X20667851Y-16193884D01*
X20680573Y-16163169D01*
X20680083Y-16162842D01*
X20681729Y-16160377D01*
X20681744Y-16160343D01*
X20681782Y-16160295D01*
X20681789Y-16160289D01*
X20769394Y-16029179D01*
X20829737Y-15883497D01*
X20860500Y-15728842D01*
X20860500Y-15571158D01*
X20829737Y-15416503D01*
X20769394Y-15270821D01*
X20681789Y-15139711D01*
X20570289Y-15028211D01*
X20570288Y-15028210D01*
X20439180Y-14940606D01*
X20439172Y-14940602D01*
X20307684Y-14886138D01*
X20273860Y-14852315D01*
X20219394Y-14720821D01*
X20131789Y-14589711D01*
X20020289Y-14478211D01*
X20020288Y-14478210D01*
X19889180Y-14390606D01*
X19743495Y-14330262D01*
X19588842Y-14299500D01*
X19431158Y-14299500D01*
X19276504Y-14330262D01*
X19130819Y-14390606D01*
X18999709Y-14478212D01*
X18999645Y-14478265D01*
X18999618Y-14478273D01*
X18997158Y-14479917D01*
X18996659Y-14479170D01*
X18953869Y-14492147D01*
X18923167Y-14479429D01*
X18922842Y-14479917D01*
X18920393Y-14478280D01*
X18920355Y-14478265D01*
X18920290Y-14478212D01*
X18920287Y-14478210D01*
X18876785Y-14449142D01*
X18789180Y-14390606D01*
X18643495Y-14330262D01*
X18488842Y-14299500D01*
X18331158Y-14299500D01*
X18176504Y-14330262D01*
X18030819Y-14390606D01*
X17899711Y-14478210D01*
X17788210Y-14589711D01*
X17700606Y-14720819D01*
X17646140Y-14852315D01*
X17612315Y-14886139D01*
X17612315Y-14886140D01*
X17480819Y-14940606D01*
X17349711Y-15028210D01*
X17238210Y-15139711D01*
X17150606Y-15270819D01*
X17090262Y-15416504D01*
X17059500Y-15571157D01*
X500500Y-15571157D01*
X500500Y-2393715D01*
X1149500Y-2393715D01*
X1149500Y-2606284D01*
X1149501Y-2606300D01*
X1182753Y-2816240D01*
X1182753Y-2816241D01*
X1248442Y-3018410D01*
X1248446Y-3018418D01*
X1344949Y-3207817D01*
X1469897Y-3379794D01*
X1620205Y-3530102D01*
X1792182Y-3655050D01*
X1792184Y-3655051D01*
X1981588Y-3751557D01*
X2183757Y-3817246D01*
X2267111Y-3830448D01*
X2393699Y-3850498D01*
X2393705Y-3850498D01*
X2393713Y-3850500D01*
X2393715Y-3850500D01*
X2606285Y-3850500D01*
X2606287Y-3850500D01*
X2816243Y-3817246D01*
X3018412Y-3751557D01*
X3207816Y-3655051D01*
X3379792Y-3530104D01*
X3530104Y-3379792D01*
X3655051Y-3207816D01*
X3751557Y-3018412D01*
X3817246Y-2816243D01*
X3850500Y-2606287D01*
X3850500Y-2393713D01*
X3817246Y-2183757D01*
X3751557Y-1981588D01*
X3655051Y-1792184D01*
X3530104Y-1620208D01*
X3530102Y-1620205D01*
X3379794Y-1469897D01*
X3207817Y-1344949D01*
X3018418Y-1248446D01*
X3018410Y-1248442D01*
X2816241Y-1182753D01*
X2606300Y-1149501D01*
X2606288Y-1149500D01*
X2606287Y-1149500D01*
X2393713Y-1149500D01*
X2393711Y-1149500D01*
X2393699Y-1149501D01*
X2183759Y-1182753D01*
X2183758Y-1182753D01*
X1981589Y-1248442D01*
X1981581Y-1248446D01*
X1792182Y-1344949D01*
X1620205Y-1469897D01*
X1469897Y-1620205D01*
X1344949Y-1792182D01*
X1248446Y-1981581D01*
X1248442Y-1981589D01*
X1182753Y-2183758D01*
X1182753Y-2183759D01*
X1149501Y-2393699D01*
X1149500Y-2393715D01*
X500500Y-2393715D01*
X500500Y-563000D01*
X518806Y-518806D01*
X563000Y-500500D01*
X3937500Y-500500D01*
X3981694Y-518806D01*
G37*
%TD.AperFunction*%
%TD*%
M02*
