%TF.GenerationSoftware,KiCad,Pcbnew,10.0.6-10.0.6~ubuntu24.04.1*%
%TF.CreationDate,2026-09-27T09:45:30+01:00*%
%TF.ProjectId,board,626f6172-642e-46b6-9963-61645f706362,v0.2.1*%
%TF.SameCoordinates,Original*%
%TF.FileFunction,Soldermask,Top*%
%TF.FilePolarity,Negative*%
%FSLAX46Y46*%
G04 Gerber Fmt 4.6, Leading zero omitted, Abs format (unit mm)*
G04 Created by KiCad (PCBNEW 10.0.6-10.0.6~ubuntu24.04.1) date 2026-09-27 09:45:30*
%MOMM*%
%LPD*%
G01*
G04 APERTURE LIST*
G04 Aperture macros list*
%AMRoundRect*
0 Rectangle with rounded corners*
0 $1 Rounding radius*
0 $2 $3 $4 $5 $6 $7 $8 $9 X,Y pos of 4 corners*
0 Add a 4 corners polygon primitive as box body*
4,1,4,$2,$3,$4,$5,$6,$7,$8,$9,$2,$3,0*
0 Add four circle primitives for the rounded corners*
1,1,$1+$1,$2,$3*
1,1,$1+$1,$4,$5*
1,1,$1+$1,$6,$7*
1,1,$1+$1,$8,$9*
0 Add four rect primitives between the rounded corners*
20,1,$1+$1,$2,$3,$4,$5,0*
20,1,$1+$1,$4,$5,$6,$7,0*
20,1,$1+$1,$6,$7,$8,$9,0*
20,1,$1+$1,$8,$9,$2,$3,0*%
G04 Aperture macros list end*
%ADD10RoundRect,0.250000X-1.300000X-0.250000X1.300000X-0.250000X1.300000X0.250000X-1.300000X0.250000X0*%
%ADD11C,2.200000*%
%ADD12RoundRect,0.140000X-0.140000X-0.170000X0.140000X-0.170000X0.140000X0.170000X-0.140000X0.170000X0*%
%ADD13RoundRect,0.147500X-0.147500X-0.172500X0.147500X-0.172500X0.147500X0.172500X-0.147500X0.172500X0*%
%ADD14RoundRect,0.135000X-0.135000X-0.185000X0.135000X-0.185000X0.135000X0.185000X-0.135000X0.185000X0*%
%ADD15RoundRect,0.150000X-0.512500X-0.150000X0.512500X-0.150000X0.512500X0.150000X-0.512500X0.150000X0*%
%ADD16R,1.500000X0.900000*%
%ADD17C,0.600000*%
%ADD18R,2.900000X2.900000*%
%ADD19C,0.700000*%
%ADD20O,0.900000X2.400000*%
%ADD21O,0.900000X1.700000*%
%ADD22R,0.350000X0.500000*%
G04 APERTURE END LIST*
D10*
%TO.C,SW2*%
X6550000Y-24000000D03*
X15450000Y-24000000D03*
X6550000Y-28000000D03*
X15450000Y-28000000D03*
%TD*%
D11*
%TO.C,H4*%
X37500000Y-27500000D03*
%TD*%
D12*
%TO.C,C1*%
X32020000Y-5000000D03*
X32980000Y-5000000D03*
%TD*%
D13*
%TO.C,D1*%
X34515000Y-14000000D03*
X35485000Y-14000000D03*
%TD*%
D14*
%TO.C,R2*%
X29490000Y-18500000D03*
X30510000Y-18500000D03*
%TD*%
D11*
%TO.C,H2*%
X37500000Y-2500000D03*
%TD*%
D15*
%TO.C,U2*%
X33362500Y-6050000D03*
X33362500Y-7000000D03*
X33362500Y-7950000D03*
X35637500Y-7950000D03*
X35637500Y-6050000D03*
%TD*%
D10*
%TO.C,SW1*%
X550000Y-24000000D03*
X9450000Y-24000000D03*
X550000Y-28000000D03*
X9450000Y-28000000D03*
%TD*%
D14*
%TO.C,R5*%
X5990000Y-11500000D03*
X7010000Y-11500000D03*
%TD*%
%TO.C,R1*%
X32490000Y-14000000D03*
X33510000Y-14000000D03*
%TD*%
D12*
%TO.C,C5*%
X5520000Y-9000000D03*
X6480000Y-9000000D03*
%TD*%
D16*
%TO.C,U1*%
X9250000Y-10000000D03*
X9250000Y-11500000D03*
X9250000Y-13000000D03*
X9250000Y-14500000D03*
X9250000Y-16000000D03*
X9250000Y-17500000D03*
X9250000Y-19000000D03*
X9250000Y-20500000D03*
X9250000Y-22000000D03*
X26750000Y-22000000D03*
X26750000Y-20500000D03*
X26750000Y-19000000D03*
X26750000Y-17500000D03*
X26750000Y-16000000D03*
X26750000Y-14500000D03*
X26750000Y-13000000D03*
X26750000Y-11500000D03*
X26750000Y-10000000D03*
D17*
X17860000Y-15650000D03*
X17860000Y-16750000D03*
X18410000Y-15100000D03*
X18410000Y-16200000D03*
X18410000Y-17300000D03*
X18960000Y-15650000D03*
D18*
X18960000Y-16200000D03*
D17*
X18960000Y-16750000D03*
X19510000Y-15100000D03*
X19510000Y-16200000D03*
X19510000Y-17300000D03*
X20060000Y-15650000D03*
X20060000Y-16750000D03*
%TD*%
D12*
%TO.C,C3*%
X32020000Y-9000000D03*
X32980000Y-9000000D03*
%TD*%
D11*
%TO.C,H1*%
X2500000Y-2500000D03*
%TD*%
D19*
%TO.C,J1*%
X5500000Y-4000000D03*
X6350000Y-4000000D03*
X7200000Y-4000000D03*
X8050000Y-4000000D03*
X8900000Y-4000000D03*
X9750000Y-4000000D03*
X10600000Y-4000000D03*
X11450000Y-4000000D03*
X11450000Y-5350000D03*
X10600000Y-5350000D03*
X9750000Y-5350000D03*
X8900000Y-5350000D03*
X8050000Y-5350000D03*
X7200000Y-5350000D03*
X6350000Y-5350000D03*
X5500000Y-5350000D03*
D20*
X4150000Y-4980000D03*
D21*
X4150000Y-8360000D03*
D20*
X12800000Y-4980000D03*
D21*
X12800000Y-8360000D03*
%TD*%
D22*
%TO.C,U3*%
X34025000Y-18975000D03*
X34675000Y-18975000D03*
X35325000Y-18975000D03*
X35975000Y-18975000D03*
X35975000Y-21025000D03*
X35325000Y-21025000D03*
X34675000Y-21025000D03*
X34025000Y-21025000D03*
%TD*%
D14*
%TO.C,R4*%
X3490000Y-11500000D03*
X4510000Y-11500000D03*
%TD*%
%TO.C,R3*%
X29490000Y-20500000D03*
X30510000Y-20500000D03*
%TD*%
D12*
%TO.C,C2*%
X32020000Y-7000000D03*
X32980000Y-7000000D03*
%TD*%
D11*
%TO.C,H3*%
X2500000Y-27500000D03*
%TD*%
D12*
%TO.C,C4*%
X3520000Y-9000000D03*
X4480000Y-9000000D03*
%TD*%
M02*
