%TF.GenerationSoftware,KiCad,Pcbnew,10.0.6-10.0.6~ubuntu24.04.1*%
%TF.CreationDate,2026-09-27T09:45:31+01:00*%
%TF.ProjectId,board,626f6172-642e-46b6-9963-61645f706362,v0.2.1*%
%TF.SameCoordinates,Original*%
%TF.FileFunction,AssemblyDrawing,Top*%
%FSLAX46Y46*%
G04 Gerber Fmt 4.6, Leading zero omitted, Abs format (unit mm)*
G04 Created by KiCad (PCBNEW 10.0.6-10.0.6~ubuntu24.04.1) date 2026-09-27 09:45:31*
%MOMM*%
%LPD*%
G01*
G04 APERTURE LIST*
%ADD10C,0.150000*%
%ADD11C,0.140000*%
%ADD12C,0.040000*%
%ADD13C,0.110000*%
%ADD14C,0.075000*%
%ADD15C,0.100000*%
G04 APERTURE END LIST*
D10*
X9547618Y-22224819D02*
X9214285Y-21748628D01*
X8976190Y-22224819D02*
X8976190Y-21224819D01*
X8976190Y-21224819D02*
X9357142Y-21224819D01*
X9357142Y-21224819D02*
X9452380Y-21272438D01*
X9452380Y-21272438D02*
X9499999Y-21320057D01*
X9499999Y-21320057D02*
X9547618Y-21415295D01*
X9547618Y-21415295D02*
X9547618Y-21558152D01*
X9547618Y-21558152D02*
X9499999Y-21653390D01*
X9499999Y-21653390D02*
X9452380Y-21701009D01*
X9452380Y-21701009D02*
X9357142Y-21748628D01*
X9357142Y-21748628D02*
X8976190Y-21748628D01*
X9976190Y-21701009D02*
X10309523Y-21701009D01*
X10452380Y-22224819D02*
X9976190Y-22224819D01*
X9976190Y-22224819D02*
X9976190Y-21224819D01*
X9976190Y-21224819D02*
X10452380Y-21224819D01*
X10833333Y-22177200D02*
X10976190Y-22224819D01*
X10976190Y-22224819D02*
X11214285Y-22224819D01*
X11214285Y-22224819D02*
X11309523Y-22177200D01*
X11309523Y-22177200D02*
X11357142Y-22129580D01*
X11357142Y-22129580D02*
X11404761Y-22034342D01*
X11404761Y-22034342D02*
X11404761Y-21939104D01*
X11404761Y-21939104D02*
X11357142Y-21843866D01*
X11357142Y-21843866D02*
X11309523Y-21796247D01*
X11309523Y-21796247D02*
X11214285Y-21748628D01*
X11214285Y-21748628D02*
X11023809Y-21701009D01*
X11023809Y-21701009D02*
X10928571Y-21653390D01*
X10928571Y-21653390D02*
X10880952Y-21605771D01*
X10880952Y-21605771D02*
X10833333Y-21510533D01*
X10833333Y-21510533D02*
X10833333Y-21415295D01*
X10833333Y-21415295D02*
X10880952Y-21320057D01*
X10880952Y-21320057D02*
X10928571Y-21272438D01*
X10928571Y-21272438D02*
X11023809Y-21224819D01*
X11023809Y-21224819D02*
X11261904Y-21224819D01*
X11261904Y-21224819D02*
X11404761Y-21272438D01*
X11833333Y-21701009D02*
X12166666Y-21701009D01*
X12309523Y-22224819D02*
X11833333Y-22224819D01*
X11833333Y-22224819D02*
X11833333Y-21224819D01*
X11833333Y-21224819D02*
X12309523Y-21224819D01*
X12595238Y-21224819D02*
X13166666Y-21224819D01*
X12880952Y-22224819D02*
X12880952Y-21224819D01*
X9666667Y-26407200D02*
X9809524Y-26454819D01*
X9809524Y-26454819D02*
X10047619Y-26454819D01*
X10047619Y-26454819D02*
X10142857Y-26407200D01*
X10142857Y-26407200D02*
X10190476Y-26359580D01*
X10190476Y-26359580D02*
X10238095Y-26264342D01*
X10238095Y-26264342D02*
X10238095Y-26169104D01*
X10238095Y-26169104D02*
X10190476Y-26073866D01*
X10190476Y-26073866D02*
X10142857Y-26026247D01*
X10142857Y-26026247D02*
X10047619Y-25978628D01*
X10047619Y-25978628D02*
X9857143Y-25931009D01*
X9857143Y-25931009D02*
X9761905Y-25883390D01*
X9761905Y-25883390D02*
X9714286Y-25835771D01*
X9714286Y-25835771D02*
X9666667Y-25740533D01*
X9666667Y-25740533D02*
X9666667Y-25645295D01*
X9666667Y-25645295D02*
X9714286Y-25550057D01*
X9714286Y-25550057D02*
X9761905Y-25502438D01*
X9761905Y-25502438D02*
X9857143Y-25454819D01*
X9857143Y-25454819D02*
X10095238Y-25454819D01*
X10095238Y-25454819D02*
X10238095Y-25502438D01*
X10571429Y-25454819D02*
X10809524Y-26454819D01*
X10809524Y-26454819D02*
X11000000Y-25740533D01*
X11000000Y-25740533D02*
X11190476Y-26454819D01*
X11190476Y-26454819D02*
X11428572Y-25454819D01*
X11761905Y-25550057D02*
X11809524Y-25502438D01*
X11809524Y-25502438D02*
X11904762Y-25454819D01*
X11904762Y-25454819D02*
X12142857Y-25454819D01*
X12142857Y-25454819D02*
X12238095Y-25502438D01*
X12238095Y-25502438D02*
X12285714Y-25550057D01*
X12285714Y-25550057D02*
X12333333Y-25645295D01*
X12333333Y-25645295D02*
X12333333Y-25740533D01*
X12333333Y-25740533D02*
X12285714Y-25883390D01*
X12285714Y-25883390D02*
X11714286Y-26454819D01*
X11714286Y-26454819D02*
X12333333Y-26454819D01*
X36690476Y-30804819D02*
X36690476Y-29804819D01*
X36690476Y-29804819D02*
X37023809Y-30519104D01*
X37023809Y-30519104D02*
X37357142Y-29804819D01*
X37357142Y-29804819D02*
X37357142Y-30804819D01*
X37785714Y-29900057D02*
X37833333Y-29852438D01*
X37833333Y-29852438D02*
X37928571Y-29804819D01*
X37928571Y-29804819D02*
X38166666Y-29804819D01*
X38166666Y-29804819D02*
X38261904Y-29852438D01*
X38261904Y-29852438D02*
X38309523Y-29900057D01*
X38309523Y-29900057D02*
X38357142Y-29995295D01*
X38357142Y-29995295D02*
X38357142Y-30090533D01*
X38357142Y-30090533D02*
X38309523Y-30233390D01*
X38309523Y-30233390D02*
X37738095Y-30804819D01*
X37738095Y-30804819D02*
X38357142Y-30804819D01*
D11*
X36776190Y-27932208D02*
X36776190Y-26982208D01*
X36776190Y-27434589D02*
X37319047Y-27434589D01*
X37319047Y-27932208D02*
X37319047Y-26982208D01*
X38178571Y-27298874D02*
X38178571Y-27932208D01*
X37952380Y-26936970D02*
X37726190Y-27615541D01*
X37726190Y-27615541D02*
X38314285Y-27615541D01*
D10*
X30952380Y-6614819D02*
X30380952Y-6614819D01*
X30666666Y-6614819D02*
X30666666Y-5614819D01*
X30666666Y-5614819D02*
X30571428Y-5757676D01*
X30571428Y-5757676D02*
X30476190Y-5852914D01*
X30476190Y-5852914D02*
X30380952Y-5900533D01*
X31571428Y-5614819D02*
X31666666Y-5614819D01*
X31666666Y-5614819D02*
X31761904Y-5662438D01*
X31761904Y-5662438D02*
X31809523Y-5710057D01*
X31809523Y-5710057D02*
X31857142Y-5805295D01*
X31857142Y-5805295D02*
X31904761Y-5995771D01*
X31904761Y-5995771D02*
X31904761Y-6233866D01*
X31904761Y-6233866D02*
X31857142Y-6424342D01*
X31857142Y-6424342D02*
X31809523Y-6519580D01*
X31809523Y-6519580D02*
X31761904Y-6567200D01*
X31761904Y-6567200D02*
X31666666Y-6614819D01*
X31666666Y-6614819D02*
X31571428Y-6614819D01*
X31571428Y-6614819D02*
X31476190Y-6567200D01*
X31476190Y-6567200D02*
X31428571Y-6519580D01*
X31428571Y-6519580D02*
X31380952Y-6424342D01*
X31380952Y-6424342D02*
X31333333Y-6233866D01*
X31333333Y-6233866D02*
X31333333Y-5995771D01*
X31333333Y-5995771D02*
X31380952Y-5805295D01*
X31380952Y-5805295D02*
X31428571Y-5710057D01*
X31428571Y-5710057D02*
X31476190Y-5662438D01*
X31476190Y-5662438D02*
X31571428Y-5614819D01*
X32523809Y-5614819D02*
X32619047Y-5614819D01*
X32619047Y-5614819D02*
X32714285Y-5662438D01*
X32714285Y-5662438D02*
X32761904Y-5710057D01*
X32761904Y-5710057D02*
X32809523Y-5805295D01*
X32809523Y-5805295D02*
X32857142Y-5995771D01*
X32857142Y-5995771D02*
X32857142Y-6233866D01*
X32857142Y-6233866D02*
X32809523Y-6424342D01*
X32809523Y-6424342D02*
X32761904Y-6519580D01*
X32761904Y-6519580D02*
X32714285Y-6567200D01*
X32714285Y-6567200D02*
X32619047Y-6614819D01*
X32619047Y-6614819D02*
X32523809Y-6614819D01*
X32523809Y-6614819D02*
X32428571Y-6567200D01*
X32428571Y-6567200D02*
X32380952Y-6519580D01*
X32380952Y-6519580D02*
X32333333Y-6424342D01*
X32333333Y-6424342D02*
X32285714Y-6233866D01*
X32285714Y-6233866D02*
X32285714Y-5995771D01*
X32285714Y-5995771D02*
X32333333Y-5805295D01*
X32333333Y-5805295D02*
X32380952Y-5710057D01*
X32380952Y-5710057D02*
X32428571Y-5662438D01*
X32428571Y-5662438D02*
X32523809Y-5614819D01*
X33285714Y-5948152D02*
X33285714Y-6614819D01*
X33285714Y-6043390D02*
X33333333Y-5995771D01*
X33333333Y-5995771D02*
X33428571Y-5948152D01*
X33428571Y-5948152D02*
X33571428Y-5948152D01*
X33571428Y-5948152D02*
X33666666Y-5995771D01*
X33666666Y-5995771D02*
X33714285Y-6091009D01*
X33714285Y-6091009D02*
X33714285Y-6614819D01*
X34523809Y-6091009D02*
X34190476Y-6091009D01*
X34190476Y-6614819D02*
X34190476Y-5614819D01*
X34190476Y-5614819D02*
X34666666Y-5614819D01*
D12*
X32458333Y-5089765D02*
X32446429Y-5101670D01*
X32446429Y-5101670D02*
X32410714Y-5113574D01*
X32410714Y-5113574D02*
X32386905Y-5113574D01*
X32386905Y-5113574D02*
X32351191Y-5101670D01*
X32351191Y-5101670D02*
X32327381Y-5077860D01*
X32327381Y-5077860D02*
X32315476Y-5054050D01*
X32315476Y-5054050D02*
X32303572Y-5006431D01*
X32303572Y-5006431D02*
X32303572Y-4970717D01*
X32303572Y-4970717D02*
X32315476Y-4923098D01*
X32315476Y-4923098D02*
X32327381Y-4899289D01*
X32327381Y-4899289D02*
X32351191Y-4875479D01*
X32351191Y-4875479D02*
X32386905Y-4863574D01*
X32386905Y-4863574D02*
X32410714Y-4863574D01*
X32410714Y-4863574D02*
X32446429Y-4875479D01*
X32446429Y-4875479D02*
X32458333Y-4887384D01*
X32696429Y-5113574D02*
X32553572Y-5113574D01*
X32625000Y-5113574D02*
X32625000Y-4863574D01*
X32625000Y-4863574D02*
X32601191Y-4899289D01*
X32601191Y-4899289D02*
X32577381Y-4923098D01*
X32577381Y-4923098D02*
X32553572Y-4935003D01*
D10*
X28833333Y-15339104D02*
X29309523Y-15339104D01*
X28738095Y-15624819D02*
X29071428Y-14624819D01*
X29071428Y-14624819D02*
X29404761Y-15624819D01*
X29738095Y-15624819D02*
X29738095Y-14624819D01*
X29738095Y-14624819D02*
X30119047Y-14624819D01*
X30119047Y-14624819D02*
X30214285Y-14672438D01*
X30214285Y-14672438D02*
X30261904Y-14720057D01*
X30261904Y-14720057D02*
X30309523Y-14815295D01*
X30309523Y-14815295D02*
X30309523Y-14958152D01*
X30309523Y-14958152D02*
X30261904Y-15053390D01*
X30261904Y-15053390D02*
X30214285Y-15101009D01*
X30214285Y-15101009D02*
X30119047Y-15148628D01*
X30119047Y-15148628D02*
X29738095Y-15148628D01*
X30738095Y-15624819D02*
X30738095Y-14624819D01*
X30738095Y-15101009D02*
X31309523Y-15101009D01*
X31309523Y-15624819D02*
X31309523Y-14624819D01*
X31785714Y-15624819D02*
X31785714Y-14624819D01*
X31785714Y-15101009D02*
X32357142Y-15101009D01*
X32357142Y-15624819D02*
X32357142Y-14624819D01*
X32785714Y-15577200D02*
X32928571Y-15624819D01*
X32928571Y-15624819D02*
X33166666Y-15624819D01*
X33166666Y-15624819D02*
X33261904Y-15577200D01*
X33261904Y-15577200D02*
X33309523Y-15529580D01*
X33309523Y-15529580D02*
X33357142Y-15434342D01*
X33357142Y-15434342D02*
X33357142Y-15339104D01*
X33357142Y-15339104D02*
X33309523Y-15243866D01*
X33309523Y-15243866D02*
X33261904Y-15196247D01*
X33261904Y-15196247D02*
X33166666Y-15148628D01*
X33166666Y-15148628D02*
X32976190Y-15101009D01*
X32976190Y-15101009D02*
X32880952Y-15053390D01*
X32880952Y-15053390D02*
X32833333Y-15005771D01*
X32833333Y-15005771D02*
X32785714Y-14910533D01*
X32785714Y-14910533D02*
X32785714Y-14815295D01*
X32785714Y-14815295D02*
X32833333Y-14720057D01*
X32833333Y-14720057D02*
X32880952Y-14672438D01*
X32880952Y-14672438D02*
X32976190Y-14624819D01*
X32976190Y-14624819D02*
X33214285Y-14624819D01*
X33214285Y-14624819D02*
X33357142Y-14672438D01*
X34309523Y-15624819D02*
X33738095Y-15624819D01*
X34023809Y-15624819D02*
X34023809Y-14624819D01*
X34023809Y-14624819D02*
X33928571Y-14767676D01*
X33928571Y-14767676D02*
X33833333Y-14862914D01*
X33833333Y-14862914D02*
X33738095Y-14910533D01*
X34928571Y-14624819D02*
X35023809Y-14624819D01*
X35023809Y-14624819D02*
X35119047Y-14672438D01*
X35119047Y-14672438D02*
X35166666Y-14720057D01*
X35166666Y-14720057D02*
X35214285Y-14815295D01*
X35214285Y-14815295D02*
X35261904Y-15005771D01*
X35261904Y-15005771D02*
X35261904Y-15243866D01*
X35261904Y-15243866D02*
X35214285Y-15434342D01*
X35214285Y-15434342D02*
X35166666Y-15529580D01*
X35166666Y-15529580D02*
X35119047Y-15577200D01*
X35119047Y-15577200D02*
X35023809Y-15624819D01*
X35023809Y-15624819D02*
X34928571Y-15624819D01*
X34928571Y-15624819D02*
X34833333Y-15577200D01*
X34833333Y-15577200D02*
X34785714Y-15529580D01*
X34785714Y-15529580D02*
X34738095Y-15434342D01*
X34738095Y-15434342D02*
X34690476Y-15243866D01*
X34690476Y-15243866D02*
X34690476Y-15005771D01*
X34690476Y-15005771D02*
X34738095Y-14815295D01*
X34738095Y-14815295D02*
X34785714Y-14720057D01*
X34785714Y-14720057D02*
X34833333Y-14672438D01*
X34833333Y-14672438D02*
X34928571Y-14624819D01*
X35880952Y-14624819D02*
X35976190Y-14624819D01*
X35976190Y-14624819D02*
X36071428Y-14672438D01*
X36071428Y-14672438D02*
X36119047Y-14720057D01*
X36119047Y-14720057D02*
X36166666Y-14815295D01*
X36166666Y-14815295D02*
X36214285Y-15005771D01*
X36214285Y-15005771D02*
X36214285Y-15243866D01*
X36214285Y-15243866D02*
X36166666Y-15434342D01*
X36166666Y-15434342D02*
X36119047Y-15529580D01*
X36119047Y-15529580D02*
X36071428Y-15577200D01*
X36071428Y-15577200D02*
X35976190Y-15624819D01*
X35976190Y-15624819D02*
X35880952Y-15624819D01*
X35880952Y-15624819D02*
X35785714Y-15577200D01*
X35785714Y-15577200D02*
X35738095Y-15529580D01*
X35738095Y-15529580D02*
X35690476Y-15434342D01*
X35690476Y-15434342D02*
X35642857Y-15243866D01*
X35642857Y-15243866D02*
X35642857Y-15005771D01*
X35642857Y-15005771D02*
X35690476Y-14815295D01*
X35690476Y-14815295D02*
X35738095Y-14720057D01*
X35738095Y-14720057D02*
X35785714Y-14672438D01*
X35785714Y-14672438D02*
X35880952Y-14624819D01*
X37119047Y-14624819D02*
X36642857Y-14624819D01*
X36642857Y-14624819D02*
X36595238Y-15101009D01*
X36595238Y-15101009D02*
X36642857Y-15053390D01*
X36642857Y-15053390D02*
X36738095Y-15005771D01*
X36738095Y-15005771D02*
X36976190Y-15005771D01*
X36976190Y-15005771D02*
X37071428Y-15053390D01*
X37071428Y-15053390D02*
X37119047Y-15101009D01*
X37119047Y-15101009D02*
X37166666Y-15196247D01*
X37166666Y-15196247D02*
X37166666Y-15434342D01*
X37166666Y-15434342D02*
X37119047Y-15529580D01*
X37119047Y-15529580D02*
X37071428Y-15577200D01*
X37071428Y-15577200D02*
X36976190Y-15624819D01*
X36976190Y-15624819D02*
X36738095Y-15624819D01*
X36738095Y-15624819D02*
X36642857Y-15577200D01*
X36642857Y-15577200D02*
X36595238Y-15529580D01*
X38166666Y-15529580D02*
X38119047Y-15577200D01*
X38119047Y-15577200D02*
X37976190Y-15624819D01*
X37976190Y-15624819D02*
X37880952Y-15624819D01*
X37880952Y-15624819D02*
X37738095Y-15577200D01*
X37738095Y-15577200D02*
X37642857Y-15481961D01*
X37642857Y-15481961D02*
X37595238Y-15386723D01*
X37595238Y-15386723D02*
X37547619Y-15196247D01*
X37547619Y-15196247D02*
X37547619Y-15053390D01*
X37547619Y-15053390D02*
X37595238Y-14862914D01*
X37595238Y-14862914D02*
X37642857Y-14767676D01*
X37642857Y-14767676D02*
X37738095Y-14672438D01*
X37738095Y-14672438D02*
X37880952Y-14624819D01*
X37880952Y-14624819D02*
X37976190Y-14624819D01*
X37976190Y-14624819D02*
X38119047Y-14672438D01*
X38119047Y-14672438D02*
X38166666Y-14720057D01*
X39119047Y-14672438D02*
X39023809Y-14624819D01*
X39023809Y-14624819D02*
X38880952Y-14624819D01*
X38880952Y-14624819D02*
X38738095Y-14672438D01*
X38738095Y-14672438D02*
X38642857Y-14767676D01*
X38642857Y-14767676D02*
X38595238Y-14862914D01*
X38595238Y-14862914D02*
X38547619Y-15053390D01*
X38547619Y-15053390D02*
X38547619Y-15196247D01*
X38547619Y-15196247D02*
X38595238Y-15386723D01*
X38595238Y-15386723D02*
X38642857Y-15481961D01*
X38642857Y-15481961D02*
X38738095Y-15577200D01*
X38738095Y-15577200D02*
X38880952Y-15624819D01*
X38880952Y-15624819D02*
X38976190Y-15624819D01*
X38976190Y-15624819D02*
X39119047Y-15577200D01*
X39119047Y-15577200D02*
X39166666Y-15529580D01*
X39166666Y-15529580D02*
X39166666Y-15196247D01*
X39166666Y-15196247D02*
X38976190Y-15196247D01*
X40166666Y-15529580D02*
X40119047Y-15577200D01*
X40119047Y-15577200D02*
X39976190Y-15624819D01*
X39976190Y-15624819D02*
X39880952Y-15624819D01*
X39880952Y-15624819D02*
X39738095Y-15577200D01*
X39738095Y-15577200D02*
X39642857Y-15481961D01*
X39642857Y-15481961D02*
X39595238Y-15386723D01*
X39595238Y-15386723D02*
X39547619Y-15196247D01*
X39547619Y-15196247D02*
X39547619Y-15053390D01*
X39547619Y-15053390D02*
X39595238Y-14862914D01*
X39595238Y-14862914D02*
X39642857Y-14767676D01*
X39642857Y-14767676D02*
X39738095Y-14672438D01*
X39738095Y-14672438D02*
X39880952Y-14624819D01*
X39880952Y-14624819D02*
X39976190Y-14624819D01*
X39976190Y-14624819D02*
X40119047Y-14672438D01*
X40119047Y-14672438D02*
X40166666Y-14720057D01*
X40595238Y-15624819D02*
X40595238Y-14624819D01*
X41166666Y-15624819D02*
X40738095Y-15053390D01*
X41166666Y-14624819D02*
X40595238Y-15196247D01*
D12*
X34815476Y-14113574D02*
X34815476Y-13863574D01*
X34815476Y-13863574D02*
X34875000Y-13863574D01*
X34875000Y-13863574D02*
X34910714Y-13875479D01*
X34910714Y-13875479D02*
X34934524Y-13899289D01*
X34934524Y-13899289D02*
X34946429Y-13923098D01*
X34946429Y-13923098D02*
X34958333Y-13970717D01*
X34958333Y-13970717D02*
X34958333Y-14006431D01*
X34958333Y-14006431D02*
X34946429Y-14054050D01*
X34946429Y-14054050D02*
X34934524Y-14077860D01*
X34934524Y-14077860D02*
X34910714Y-14101670D01*
X34910714Y-14101670D02*
X34875000Y-14113574D01*
X34875000Y-14113574D02*
X34815476Y-14113574D01*
X35196429Y-14113574D02*
X35053572Y-14113574D01*
X35125000Y-14113574D02*
X35125000Y-13863574D01*
X35125000Y-13863574D02*
X35101191Y-13899289D01*
X35101191Y-13899289D02*
X35077381Y-13923098D01*
X35077381Y-13923098D02*
X35053572Y-13935003D01*
D10*
X29214285Y-19458152D02*
X29214285Y-20124819D01*
X28976190Y-19077200D02*
X28738095Y-19791485D01*
X28738095Y-19791485D02*
X29357142Y-19791485D01*
X29738095Y-20124819D02*
X29738095Y-19124819D01*
X30309523Y-20124819D02*
X29880952Y-19553390D01*
X30309523Y-19124819D02*
X29738095Y-19696247D01*
X30642857Y-19124819D02*
X31309523Y-19124819D01*
X31309523Y-19124819D02*
X30880952Y-20124819D01*
D12*
X29956667Y-18618200D02*
X29870000Y-18494391D01*
X29808095Y-18618200D02*
X29808095Y-18358200D01*
X29808095Y-18358200D02*
X29907143Y-18358200D01*
X29907143Y-18358200D02*
X29931905Y-18370581D01*
X29931905Y-18370581D02*
X29944286Y-18382962D01*
X29944286Y-18382962D02*
X29956667Y-18407724D01*
X29956667Y-18407724D02*
X29956667Y-18444867D01*
X29956667Y-18444867D02*
X29944286Y-18469629D01*
X29944286Y-18469629D02*
X29931905Y-18482010D01*
X29931905Y-18482010D02*
X29907143Y-18494391D01*
X29907143Y-18494391D02*
X29808095Y-18494391D01*
X30055714Y-18382962D02*
X30068095Y-18370581D01*
X30068095Y-18370581D02*
X30092857Y-18358200D01*
X30092857Y-18358200D02*
X30154762Y-18358200D01*
X30154762Y-18358200D02*
X30179524Y-18370581D01*
X30179524Y-18370581D02*
X30191905Y-18382962D01*
X30191905Y-18382962D02*
X30204286Y-18407724D01*
X30204286Y-18407724D02*
X30204286Y-18432486D01*
X30204286Y-18432486D02*
X30191905Y-18469629D01*
X30191905Y-18469629D02*
X30043333Y-18618200D01*
X30043333Y-18618200D02*
X30204286Y-18618200D01*
D10*
X36690476Y-5804819D02*
X36690476Y-4804819D01*
X36690476Y-4804819D02*
X37023809Y-5519104D01*
X37023809Y-5519104D02*
X37357142Y-4804819D01*
X37357142Y-4804819D02*
X37357142Y-5804819D01*
X37785714Y-4900057D02*
X37833333Y-4852438D01*
X37833333Y-4852438D02*
X37928571Y-4804819D01*
X37928571Y-4804819D02*
X38166666Y-4804819D01*
X38166666Y-4804819D02*
X38261904Y-4852438D01*
X38261904Y-4852438D02*
X38309523Y-4900057D01*
X38309523Y-4900057D02*
X38357142Y-4995295D01*
X38357142Y-4995295D02*
X38357142Y-5090533D01*
X38357142Y-5090533D02*
X38309523Y-5233390D01*
X38309523Y-5233390D02*
X37738095Y-5804819D01*
X37738095Y-5804819D02*
X38357142Y-5804819D01*
D11*
X36776190Y-2932208D02*
X36776190Y-1982208D01*
X36776190Y-2434589D02*
X37319047Y-2434589D01*
X37319047Y-2932208D02*
X37319047Y-1982208D01*
X37726190Y-2072684D02*
X37771428Y-2027446D01*
X37771428Y-2027446D02*
X37861904Y-1982208D01*
X37861904Y-1982208D02*
X38088095Y-1982208D01*
X38088095Y-1982208D02*
X38178571Y-2027446D01*
X38178571Y-2027446D02*
X38223809Y-2072684D01*
X38223809Y-2072684D02*
X38269047Y-2163160D01*
X38269047Y-2163160D02*
X38269047Y-2253636D01*
X38269047Y-2253636D02*
X38223809Y-2389350D01*
X38223809Y-2389350D02*
X37680952Y-2932208D01*
X37680952Y-2932208D02*
X38269047Y-2932208D01*
D10*
X27690476Y-9569104D02*
X28166666Y-9569104D01*
X27595238Y-9854819D02*
X27928571Y-8854819D01*
X27928571Y-8854819D02*
X28261904Y-9854819D01*
X28595238Y-9854819D02*
X28595238Y-8854819D01*
X28595238Y-8854819D02*
X28976190Y-8854819D01*
X28976190Y-8854819D02*
X29071428Y-8902438D01*
X29071428Y-8902438D02*
X29119047Y-8950057D01*
X29119047Y-8950057D02*
X29166666Y-9045295D01*
X29166666Y-9045295D02*
X29166666Y-9188152D01*
X29166666Y-9188152D02*
X29119047Y-9283390D01*
X29119047Y-9283390D02*
X29071428Y-9331009D01*
X29071428Y-9331009D02*
X28976190Y-9378628D01*
X28976190Y-9378628D02*
X28595238Y-9378628D01*
X29547619Y-8950057D02*
X29595238Y-8902438D01*
X29595238Y-8902438D02*
X29690476Y-8854819D01*
X29690476Y-8854819D02*
X29928571Y-8854819D01*
X29928571Y-8854819D02*
X30023809Y-8902438D01*
X30023809Y-8902438D02*
X30071428Y-8950057D01*
X30071428Y-8950057D02*
X30119047Y-9045295D01*
X30119047Y-9045295D02*
X30119047Y-9140533D01*
X30119047Y-9140533D02*
X30071428Y-9283390D01*
X30071428Y-9283390D02*
X29500000Y-9854819D01*
X29500000Y-9854819D02*
X30119047Y-9854819D01*
X31071428Y-9854819D02*
X30500000Y-9854819D01*
X30785714Y-9854819D02*
X30785714Y-8854819D01*
X30785714Y-8854819D02*
X30690476Y-8997676D01*
X30690476Y-8997676D02*
X30595238Y-9092914D01*
X30595238Y-9092914D02*
X30500000Y-9140533D01*
X32023809Y-9854819D02*
X31452381Y-9854819D01*
X31738095Y-9854819D02*
X31738095Y-8854819D01*
X31738095Y-8854819D02*
X31642857Y-8997676D01*
X31642857Y-8997676D02*
X31547619Y-9092914D01*
X31547619Y-9092914D02*
X31452381Y-9140533D01*
X32404762Y-8950057D02*
X32452381Y-8902438D01*
X32452381Y-8902438D02*
X32547619Y-8854819D01*
X32547619Y-8854819D02*
X32785714Y-8854819D01*
X32785714Y-8854819D02*
X32880952Y-8902438D01*
X32880952Y-8902438D02*
X32928571Y-8950057D01*
X32928571Y-8950057D02*
X32976190Y-9045295D01*
X32976190Y-9045295D02*
X32976190Y-9140533D01*
X32976190Y-9140533D02*
X32928571Y-9283390D01*
X32928571Y-9283390D02*
X32357143Y-9854819D01*
X32357143Y-9854819D02*
X32976190Y-9854819D01*
X33404762Y-9854819D02*
X33404762Y-8854819D01*
X33976190Y-9854819D02*
X33547619Y-9283390D01*
X33976190Y-8854819D02*
X33404762Y-9426247D01*
X34404762Y-9473866D02*
X35166667Y-9473866D01*
X35547619Y-8854819D02*
X36166666Y-8854819D01*
X36166666Y-8854819D02*
X35833333Y-9235771D01*
X35833333Y-9235771D02*
X35976190Y-9235771D01*
X35976190Y-9235771D02*
X36071428Y-9283390D01*
X36071428Y-9283390D02*
X36119047Y-9331009D01*
X36119047Y-9331009D02*
X36166666Y-9426247D01*
X36166666Y-9426247D02*
X36166666Y-9664342D01*
X36166666Y-9664342D02*
X36119047Y-9759580D01*
X36119047Y-9759580D02*
X36071428Y-9807200D01*
X36071428Y-9807200D02*
X35976190Y-9854819D01*
X35976190Y-9854819D02*
X35690476Y-9854819D01*
X35690476Y-9854819D02*
X35595238Y-9807200D01*
X35595238Y-9807200D02*
X35547619Y-9759580D01*
X36595238Y-9759580D02*
X36642857Y-9807200D01*
X36642857Y-9807200D02*
X36595238Y-9854819D01*
X36595238Y-9854819D02*
X36547619Y-9807200D01*
X36547619Y-9807200D02*
X36595238Y-9759580D01*
X36595238Y-9759580D02*
X36595238Y-9854819D01*
X36976190Y-8854819D02*
X37595237Y-8854819D01*
X37595237Y-8854819D02*
X37261904Y-9235771D01*
X37261904Y-9235771D02*
X37404761Y-9235771D01*
X37404761Y-9235771D02*
X37499999Y-9283390D01*
X37499999Y-9283390D02*
X37547618Y-9331009D01*
X37547618Y-9331009D02*
X37595237Y-9426247D01*
X37595237Y-9426247D02*
X37595237Y-9664342D01*
X37595237Y-9664342D02*
X37547618Y-9759580D01*
X37547618Y-9759580D02*
X37499999Y-9807200D01*
X37499999Y-9807200D02*
X37404761Y-9854819D01*
X37404761Y-9854819D02*
X37119047Y-9854819D01*
X37119047Y-9854819D02*
X37023809Y-9807200D01*
X37023809Y-9807200D02*
X36976190Y-9759580D01*
X37880952Y-8854819D02*
X38452380Y-8854819D01*
X38166666Y-9854819D02*
X38166666Y-8854819D01*
X39357142Y-9854819D02*
X39023809Y-9378628D01*
X38785714Y-9854819D02*
X38785714Y-8854819D01*
X38785714Y-8854819D02*
X39166666Y-8854819D01*
X39166666Y-8854819D02*
X39261904Y-8902438D01*
X39261904Y-8902438D02*
X39309523Y-8950057D01*
X39309523Y-8950057D02*
X39357142Y-9045295D01*
X39357142Y-9045295D02*
X39357142Y-9188152D01*
X39357142Y-9188152D02*
X39309523Y-9283390D01*
X39309523Y-9283390D02*
X39261904Y-9331009D01*
X39261904Y-9331009D02*
X39166666Y-9378628D01*
X39166666Y-9378628D02*
X38785714Y-9378628D01*
X40309523Y-8902438D02*
X40214285Y-8854819D01*
X40214285Y-8854819D02*
X40071428Y-8854819D01*
X40071428Y-8854819D02*
X39928571Y-8902438D01*
X39928571Y-8902438D02*
X39833333Y-8997676D01*
X39833333Y-8997676D02*
X39785714Y-9092914D01*
X39785714Y-9092914D02*
X39738095Y-9283390D01*
X39738095Y-9283390D02*
X39738095Y-9426247D01*
X39738095Y-9426247D02*
X39785714Y-9616723D01*
X39785714Y-9616723D02*
X39833333Y-9711961D01*
X39833333Y-9711961D02*
X39928571Y-9807200D01*
X39928571Y-9807200D02*
X40071428Y-9854819D01*
X40071428Y-9854819D02*
X40166666Y-9854819D01*
X40166666Y-9854819D02*
X40309523Y-9807200D01*
X40309523Y-9807200D02*
X40357142Y-9759580D01*
X40357142Y-9759580D02*
X40357142Y-9426247D01*
X40357142Y-9426247D02*
X40166666Y-9426247D01*
X41309523Y-9854819D02*
X40738095Y-9854819D01*
X41023809Y-9854819D02*
X41023809Y-8854819D01*
X41023809Y-8854819D02*
X40928571Y-8997676D01*
X40928571Y-8997676D02*
X40833333Y-9092914D01*
X40833333Y-9092914D02*
X40738095Y-9140533D01*
D13*
X34107365Y-7548571D02*
X34690222Y-7548571D01*
X34690222Y-7548571D02*
X34758794Y-7514285D01*
X34758794Y-7514285D02*
X34793080Y-7480000D01*
X34793080Y-7480000D02*
X34827365Y-7411428D01*
X34827365Y-7411428D02*
X34827365Y-7274285D01*
X34827365Y-7274285D02*
X34793080Y-7205714D01*
X34793080Y-7205714D02*
X34758794Y-7171428D01*
X34758794Y-7171428D02*
X34690222Y-7137142D01*
X34690222Y-7137142D02*
X34107365Y-7137142D01*
X34175937Y-6828571D02*
X34141651Y-6794285D01*
X34141651Y-6794285D02*
X34107365Y-6725714D01*
X34107365Y-6725714D02*
X34107365Y-6554285D01*
X34107365Y-6554285D02*
X34141651Y-6485714D01*
X34141651Y-6485714D02*
X34175937Y-6451428D01*
X34175937Y-6451428D02*
X34244508Y-6417142D01*
X34244508Y-6417142D02*
X34313080Y-6417142D01*
X34313080Y-6417142D02*
X34415937Y-6451428D01*
X34415937Y-6451428D02*
X34827365Y-6862856D01*
X34827365Y-6862856D02*
X34827365Y-6417142D01*
D10*
X3642857Y-21701009D02*
X3785714Y-21748628D01*
X3785714Y-21748628D02*
X3833333Y-21796247D01*
X3833333Y-21796247D02*
X3880952Y-21891485D01*
X3880952Y-21891485D02*
X3880952Y-22034342D01*
X3880952Y-22034342D02*
X3833333Y-22129580D01*
X3833333Y-22129580D02*
X3785714Y-22177200D01*
X3785714Y-22177200D02*
X3690476Y-22224819D01*
X3690476Y-22224819D02*
X3309524Y-22224819D01*
X3309524Y-22224819D02*
X3309524Y-21224819D01*
X3309524Y-21224819D02*
X3642857Y-21224819D01*
X3642857Y-21224819D02*
X3738095Y-21272438D01*
X3738095Y-21272438D02*
X3785714Y-21320057D01*
X3785714Y-21320057D02*
X3833333Y-21415295D01*
X3833333Y-21415295D02*
X3833333Y-21510533D01*
X3833333Y-21510533D02*
X3785714Y-21605771D01*
X3785714Y-21605771D02*
X3738095Y-21653390D01*
X3738095Y-21653390D02*
X3642857Y-21701009D01*
X3642857Y-21701009D02*
X3309524Y-21701009D01*
X4500000Y-21224819D02*
X4690476Y-21224819D01*
X4690476Y-21224819D02*
X4785714Y-21272438D01*
X4785714Y-21272438D02*
X4880952Y-21367676D01*
X4880952Y-21367676D02*
X4928571Y-21558152D01*
X4928571Y-21558152D02*
X4928571Y-21891485D01*
X4928571Y-21891485D02*
X4880952Y-22081961D01*
X4880952Y-22081961D02*
X4785714Y-22177200D01*
X4785714Y-22177200D02*
X4690476Y-22224819D01*
X4690476Y-22224819D02*
X4500000Y-22224819D01*
X4500000Y-22224819D02*
X4404762Y-22177200D01*
X4404762Y-22177200D02*
X4309524Y-22081961D01*
X4309524Y-22081961D02*
X4261905Y-21891485D01*
X4261905Y-21891485D02*
X4261905Y-21558152D01*
X4261905Y-21558152D02*
X4309524Y-21367676D01*
X4309524Y-21367676D02*
X4404762Y-21272438D01*
X4404762Y-21272438D02*
X4500000Y-21224819D01*
X5547619Y-21224819D02*
X5738095Y-21224819D01*
X5738095Y-21224819D02*
X5833333Y-21272438D01*
X5833333Y-21272438D02*
X5928571Y-21367676D01*
X5928571Y-21367676D02*
X5976190Y-21558152D01*
X5976190Y-21558152D02*
X5976190Y-21891485D01*
X5976190Y-21891485D02*
X5928571Y-22081961D01*
X5928571Y-22081961D02*
X5833333Y-22177200D01*
X5833333Y-22177200D02*
X5738095Y-22224819D01*
X5738095Y-22224819D02*
X5547619Y-22224819D01*
X5547619Y-22224819D02*
X5452381Y-22177200D01*
X5452381Y-22177200D02*
X5357143Y-22081961D01*
X5357143Y-22081961D02*
X5309524Y-21891485D01*
X5309524Y-21891485D02*
X5309524Y-21558152D01*
X5309524Y-21558152D02*
X5357143Y-21367676D01*
X5357143Y-21367676D02*
X5452381Y-21272438D01*
X5452381Y-21272438D02*
X5547619Y-21224819D01*
X6261905Y-21224819D02*
X6833333Y-21224819D01*
X6547619Y-22224819D02*
X6547619Y-21224819D01*
X3666667Y-26407200D02*
X3809524Y-26454819D01*
X3809524Y-26454819D02*
X4047619Y-26454819D01*
X4047619Y-26454819D02*
X4142857Y-26407200D01*
X4142857Y-26407200D02*
X4190476Y-26359580D01*
X4190476Y-26359580D02*
X4238095Y-26264342D01*
X4238095Y-26264342D02*
X4238095Y-26169104D01*
X4238095Y-26169104D02*
X4190476Y-26073866D01*
X4190476Y-26073866D02*
X4142857Y-26026247D01*
X4142857Y-26026247D02*
X4047619Y-25978628D01*
X4047619Y-25978628D02*
X3857143Y-25931009D01*
X3857143Y-25931009D02*
X3761905Y-25883390D01*
X3761905Y-25883390D02*
X3714286Y-25835771D01*
X3714286Y-25835771D02*
X3666667Y-25740533D01*
X3666667Y-25740533D02*
X3666667Y-25645295D01*
X3666667Y-25645295D02*
X3714286Y-25550057D01*
X3714286Y-25550057D02*
X3761905Y-25502438D01*
X3761905Y-25502438D02*
X3857143Y-25454819D01*
X3857143Y-25454819D02*
X4095238Y-25454819D01*
X4095238Y-25454819D02*
X4238095Y-25502438D01*
X4571429Y-25454819D02*
X4809524Y-26454819D01*
X4809524Y-26454819D02*
X5000000Y-25740533D01*
X5000000Y-25740533D02*
X5190476Y-26454819D01*
X5190476Y-26454819D02*
X5428572Y-25454819D01*
X6333333Y-26454819D02*
X5761905Y-26454819D01*
X6047619Y-26454819D02*
X6047619Y-25454819D01*
X6047619Y-25454819D02*
X5952381Y-25597676D01*
X5952381Y-25597676D02*
X5857143Y-25692914D01*
X5857143Y-25692914D02*
X5761905Y-25740533D01*
X5761904Y-12124819D02*
X5285714Y-12124819D01*
X5285714Y-12124819D02*
X5238095Y-12601009D01*
X5238095Y-12601009D02*
X5285714Y-12553390D01*
X5285714Y-12553390D02*
X5380952Y-12505771D01*
X5380952Y-12505771D02*
X5619047Y-12505771D01*
X5619047Y-12505771D02*
X5714285Y-12553390D01*
X5714285Y-12553390D02*
X5761904Y-12601009D01*
X5761904Y-12601009D02*
X5809523Y-12696247D01*
X5809523Y-12696247D02*
X5809523Y-12934342D01*
X5809523Y-12934342D02*
X5761904Y-13029580D01*
X5761904Y-13029580D02*
X5714285Y-13077200D01*
X5714285Y-13077200D02*
X5619047Y-13124819D01*
X5619047Y-13124819D02*
X5380952Y-13124819D01*
X5380952Y-13124819D02*
X5285714Y-13077200D01*
X5285714Y-13077200D02*
X5238095Y-13029580D01*
X6238095Y-13124819D02*
X6238095Y-12124819D01*
X6809523Y-13124819D02*
X6380952Y-12553390D01*
X6809523Y-12124819D02*
X6238095Y-12696247D01*
X7761904Y-13124819D02*
X7190476Y-13124819D01*
X7476190Y-13124819D02*
X7476190Y-12124819D01*
X7476190Y-12124819D02*
X7380952Y-12267676D01*
X7380952Y-12267676D02*
X7285714Y-12362914D01*
X7285714Y-12362914D02*
X7190476Y-12410533D01*
D12*
X6456667Y-11618200D02*
X6370000Y-11494391D01*
X6308095Y-11618200D02*
X6308095Y-11358200D01*
X6308095Y-11358200D02*
X6407143Y-11358200D01*
X6407143Y-11358200D02*
X6431905Y-11370581D01*
X6431905Y-11370581D02*
X6444286Y-11382962D01*
X6444286Y-11382962D02*
X6456667Y-11407724D01*
X6456667Y-11407724D02*
X6456667Y-11444867D01*
X6456667Y-11444867D02*
X6444286Y-11469629D01*
X6444286Y-11469629D02*
X6431905Y-11482010D01*
X6431905Y-11482010D02*
X6407143Y-11494391D01*
X6407143Y-11494391D02*
X6308095Y-11494391D01*
X6691905Y-11358200D02*
X6568095Y-11358200D01*
X6568095Y-11358200D02*
X6555714Y-11482010D01*
X6555714Y-11482010D02*
X6568095Y-11469629D01*
X6568095Y-11469629D02*
X6592857Y-11457248D01*
X6592857Y-11457248D02*
X6654762Y-11457248D01*
X6654762Y-11457248D02*
X6679524Y-11469629D01*
X6679524Y-11469629D02*
X6691905Y-11482010D01*
X6691905Y-11482010D02*
X6704286Y-11506772D01*
X6704286Y-11506772D02*
X6704286Y-11568677D01*
X6704286Y-11568677D02*
X6691905Y-11593439D01*
X6691905Y-11593439D02*
X6679524Y-11605820D01*
X6679524Y-11605820D02*
X6654762Y-11618200D01*
X6654762Y-11618200D02*
X6592857Y-11618200D01*
X6592857Y-11618200D02*
X6568095Y-11605820D01*
X6568095Y-11605820D02*
X6555714Y-11593439D01*
D10*
X31214286Y-14624819D02*
X31833333Y-14624819D01*
X31833333Y-14624819D02*
X31500000Y-15005771D01*
X31500000Y-15005771D02*
X31642857Y-15005771D01*
X31642857Y-15005771D02*
X31738095Y-15053390D01*
X31738095Y-15053390D02*
X31785714Y-15101009D01*
X31785714Y-15101009D02*
X31833333Y-15196247D01*
X31833333Y-15196247D02*
X31833333Y-15434342D01*
X31833333Y-15434342D02*
X31785714Y-15529580D01*
X31785714Y-15529580D02*
X31738095Y-15577200D01*
X31738095Y-15577200D02*
X31642857Y-15624819D01*
X31642857Y-15624819D02*
X31357143Y-15624819D01*
X31357143Y-15624819D02*
X31261905Y-15577200D01*
X31261905Y-15577200D02*
X31214286Y-15529580D01*
X32166667Y-14624819D02*
X32785714Y-14624819D01*
X32785714Y-14624819D02*
X32452381Y-15005771D01*
X32452381Y-15005771D02*
X32595238Y-15005771D01*
X32595238Y-15005771D02*
X32690476Y-15053390D01*
X32690476Y-15053390D02*
X32738095Y-15101009D01*
X32738095Y-15101009D02*
X32785714Y-15196247D01*
X32785714Y-15196247D02*
X32785714Y-15434342D01*
X32785714Y-15434342D02*
X32738095Y-15529580D01*
X32738095Y-15529580D02*
X32690476Y-15577200D01*
X32690476Y-15577200D02*
X32595238Y-15624819D01*
X32595238Y-15624819D02*
X32309524Y-15624819D01*
X32309524Y-15624819D02*
X32214286Y-15577200D01*
X32214286Y-15577200D02*
X32166667Y-15529580D01*
X33404762Y-14624819D02*
X33500000Y-14624819D01*
X33500000Y-14624819D02*
X33595238Y-14672438D01*
X33595238Y-14672438D02*
X33642857Y-14720057D01*
X33642857Y-14720057D02*
X33690476Y-14815295D01*
X33690476Y-14815295D02*
X33738095Y-15005771D01*
X33738095Y-15005771D02*
X33738095Y-15243866D01*
X33738095Y-15243866D02*
X33690476Y-15434342D01*
X33690476Y-15434342D02*
X33642857Y-15529580D01*
X33642857Y-15529580D02*
X33595238Y-15577200D01*
X33595238Y-15577200D02*
X33500000Y-15624819D01*
X33500000Y-15624819D02*
X33404762Y-15624819D01*
X33404762Y-15624819D02*
X33309524Y-15577200D01*
X33309524Y-15577200D02*
X33261905Y-15529580D01*
X33261905Y-15529580D02*
X33214286Y-15434342D01*
X33214286Y-15434342D02*
X33166667Y-15243866D01*
X33166667Y-15243866D02*
X33166667Y-15005771D01*
X33166667Y-15005771D02*
X33214286Y-14815295D01*
X33214286Y-14815295D02*
X33261905Y-14720057D01*
X33261905Y-14720057D02*
X33309524Y-14672438D01*
X33309524Y-14672438D02*
X33404762Y-14624819D01*
X34738095Y-15624819D02*
X34404762Y-15148628D01*
X34166667Y-15624819D02*
X34166667Y-14624819D01*
X34166667Y-14624819D02*
X34547619Y-14624819D01*
X34547619Y-14624819D02*
X34642857Y-14672438D01*
X34642857Y-14672438D02*
X34690476Y-14720057D01*
X34690476Y-14720057D02*
X34738095Y-14815295D01*
X34738095Y-14815295D02*
X34738095Y-14958152D01*
X34738095Y-14958152D02*
X34690476Y-15053390D01*
X34690476Y-15053390D02*
X34642857Y-15101009D01*
X34642857Y-15101009D02*
X34547619Y-15148628D01*
X34547619Y-15148628D02*
X34166667Y-15148628D01*
D12*
X32956667Y-14118200D02*
X32870000Y-13994391D01*
X32808095Y-14118200D02*
X32808095Y-13858200D01*
X32808095Y-13858200D02*
X32907143Y-13858200D01*
X32907143Y-13858200D02*
X32931905Y-13870581D01*
X32931905Y-13870581D02*
X32944286Y-13882962D01*
X32944286Y-13882962D02*
X32956667Y-13907724D01*
X32956667Y-13907724D02*
X32956667Y-13944867D01*
X32956667Y-13944867D02*
X32944286Y-13969629D01*
X32944286Y-13969629D02*
X32931905Y-13982010D01*
X32931905Y-13982010D02*
X32907143Y-13994391D01*
X32907143Y-13994391D02*
X32808095Y-13994391D01*
X33204286Y-14118200D02*
X33055714Y-14118200D01*
X33130000Y-14118200D02*
X33130000Y-13858200D01*
X33130000Y-13858200D02*
X33105238Y-13895343D01*
X33105238Y-13895343D02*
X33080476Y-13920105D01*
X33080476Y-13920105D02*
X33055714Y-13932486D01*
D10*
X4452380Y-10614819D02*
X3880952Y-10614819D01*
X4166666Y-10614819D02*
X4166666Y-9614819D01*
X4166666Y-9614819D02*
X4071428Y-9757676D01*
X4071428Y-9757676D02*
X3976190Y-9852914D01*
X3976190Y-9852914D02*
X3880952Y-9900533D01*
X5071428Y-9614819D02*
X5166666Y-9614819D01*
X5166666Y-9614819D02*
X5261904Y-9662438D01*
X5261904Y-9662438D02*
X5309523Y-9710057D01*
X5309523Y-9710057D02*
X5357142Y-9805295D01*
X5357142Y-9805295D02*
X5404761Y-9995771D01*
X5404761Y-9995771D02*
X5404761Y-10233866D01*
X5404761Y-10233866D02*
X5357142Y-10424342D01*
X5357142Y-10424342D02*
X5309523Y-10519580D01*
X5309523Y-10519580D02*
X5261904Y-10567200D01*
X5261904Y-10567200D02*
X5166666Y-10614819D01*
X5166666Y-10614819D02*
X5071428Y-10614819D01*
X5071428Y-10614819D02*
X4976190Y-10567200D01*
X4976190Y-10567200D02*
X4928571Y-10519580D01*
X4928571Y-10519580D02*
X4880952Y-10424342D01*
X4880952Y-10424342D02*
X4833333Y-10233866D01*
X4833333Y-10233866D02*
X4833333Y-9995771D01*
X4833333Y-9995771D02*
X4880952Y-9805295D01*
X4880952Y-9805295D02*
X4928571Y-9710057D01*
X4928571Y-9710057D02*
X4976190Y-9662438D01*
X4976190Y-9662438D02*
X5071428Y-9614819D01*
X6023809Y-9614819D02*
X6119047Y-9614819D01*
X6119047Y-9614819D02*
X6214285Y-9662438D01*
X6214285Y-9662438D02*
X6261904Y-9710057D01*
X6261904Y-9710057D02*
X6309523Y-9805295D01*
X6309523Y-9805295D02*
X6357142Y-9995771D01*
X6357142Y-9995771D02*
X6357142Y-10233866D01*
X6357142Y-10233866D02*
X6309523Y-10424342D01*
X6309523Y-10424342D02*
X6261904Y-10519580D01*
X6261904Y-10519580D02*
X6214285Y-10567200D01*
X6214285Y-10567200D02*
X6119047Y-10614819D01*
X6119047Y-10614819D02*
X6023809Y-10614819D01*
X6023809Y-10614819D02*
X5928571Y-10567200D01*
X5928571Y-10567200D02*
X5880952Y-10519580D01*
X5880952Y-10519580D02*
X5833333Y-10424342D01*
X5833333Y-10424342D02*
X5785714Y-10233866D01*
X5785714Y-10233866D02*
X5785714Y-9995771D01*
X5785714Y-9995771D02*
X5833333Y-9805295D01*
X5833333Y-9805295D02*
X5880952Y-9710057D01*
X5880952Y-9710057D02*
X5928571Y-9662438D01*
X5928571Y-9662438D02*
X6023809Y-9614819D01*
X6785714Y-9948152D02*
X6785714Y-10614819D01*
X6785714Y-10043390D02*
X6833333Y-9995771D01*
X6833333Y-9995771D02*
X6928571Y-9948152D01*
X6928571Y-9948152D02*
X7071428Y-9948152D01*
X7071428Y-9948152D02*
X7166666Y-9995771D01*
X7166666Y-9995771D02*
X7214285Y-10091009D01*
X7214285Y-10091009D02*
X7214285Y-10614819D01*
X8023809Y-10091009D02*
X7690476Y-10091009D01*
X7690476Y-10614819D02*
X7690476Y-9614819D01*
X7690476Y-9614819D02*
X8166666Y-9614819D01*
D12*
X5958333Y-9089765D02*
X5946429Y-9101670D01*
X5946429Y-9101670D02*
X5910714Y-9113574D01*
X5910714Y-9113574D02*
X5886905Y-9113574D01*
X5886905Y-9113574D02*
X5851191Y-9101670D01*
X5851191Y-9101670D02*
X5827381Y-9077860D01*
X5827381Y-9077860D02*
X5815476Y-9054050D01*
X5815476Y-9054050D02*
X5803572Y-9006431D01*
X5803572Y-9006431D02*
X5803572Y-8970717D01*
X5803572Y-8970717D02*
X5815476Y-8923098D01*
X5815476Y-8923098D02*
X5827381Y-8899289D01*
X5827381Y-8899289D02*
X5851191Y-8875479D01*
X5851191Y-8875479D02*
X5886905Y-8863574D01*
X5886905Y-8863574D02*
X5910714Y-8863574D01*
X5910714Y-8863574D02*
X5946429Y-8875479D01*
X5946429Y-8875479D02*
X5958333Y-8887384D01*
X6184524Y-8863574D02*
X6065476Y-8863574D01*
X6065476Y-8863574D02*
X6053572Y-8982622D01*
X6053572Y-8982622D02*
X6065476Y-8970717D01*
X6065476Y-8970717D02*
X6089286Y-8958812D01*
X6089286Y-8958812D02*
X6148810Y-8958812D01*
X6148810Y-8958812D02*
X6172619Y-8970717D01*
X6172619Y-8970717D02*
X6184524Y-8982622D01*
X6184524Y-8982622D02*
X6196429Y-9006431D01*
X6196429Y-9006431D02*
X6196429Y-9065955D01*
X6196429Y-9065955D02*
X6184524Y-9089765D01*
X6184524Y-9089765D02*
X6172619Y-9101670D01*
X6172619Y-9101670D02*
X6148810Y-9113574D01*
X6148810Y-9113574D02*
X6089286Y-9113574D01*
X6089286Y-9113574D02*
X6065476Y-9101670D01*
X6065476Y-9101670D02*
X6053572Y-9089765D01*
D10*
X10976191Y-23931009D02*
X11309524Y-23931009D01*
X11452381Y-24454819D02*
X10976191Y-24454819D01*
X10976191Y-24454819D02*
X10976191Y-23454819D01*
X10976191Y-23454819D02*
X11452381Y-23454819D01*
X11833334Y-24407200D02*
X11976191Y-24454819D01*
X11976191Y-24454819D02*
X12214286Y-24454819D01*
X12214286Y-24454819D02*
X12309524Y-24407200D01*
X12309524Y-24407200D02*
X12357143Y-24359580D01*
X12357143Y-24359580D02*
X12404762Y-24264342D01*
X12404762Y-24264342D02*
X12404762Y-24169104D01*
X12404762Y-24169104D02*
X12357143Y-24073866D01*
X12357143Y-24073866D02*
X12309524Y-24026247D01*
X12309524Y-24026247D02*
X12214286Y-23978628D01*
X12214286Y-23978628D02*
X12023810Y-23931009D01*
X12023810Y-23931009D02*
X11928572Y-23883390D01*
X11928572Y-23883390D02*
X11880953Y-23835771D01*
X11880953Y-23835771D02*
X11833334Y-23740533D01*
X11833334Y-23740533D02*
X11833334Y-23645295D01*
X11833334Y-23645295D02*
X11880953Y-23550057D01*
X11880953Y-23550057D02*
X11928572Y-23502438D01*
X11928572Y-23502438D02*
X12023810Y-23454819D01*
X12023810Y-23454819D02*
X12261905Y-23454819D01*
X12261905Y-23454819D02*
X12404762Y-23502438D01*
X12833334Y-24454819D02*
X12833334Y-23454819D01*
X12833334Y-23454819D02*
X13214286Y-23454819D01*
X13214286Y-23454819D02*
X13309524Y-23502438D01*
X13309524Y-23502438D02*
X13357143Y-23550057D01*
X13357143Y-23550057D02*
X13404762Y-23645295D01*
X13404762Y-23645295D02*
X13404762Y-23788152D01*
X13404762Y-23788152D02*
X13357143Y-23883390D01*
X13357143Y-23883390D02*
X13309524Y-23931009D01*
X13309524Y-23931009D02*
X13214286Y-23978628D01*
X13214286Y-23978628D02*
X12833334Y-23978628D01*
X13738096Y-23454819D02*
X14357143Y-23454819D01*
X14357143Y-23454819D02*
X14023810Y-23835771D01*
X14023810Y-23835771D02*
X14166667Y-23835771D01*
X14166667Y-23835771D02*
X14261905Y-23883390D01*
X14261905Y-23883390D02*
X14309524Y-23931009D01*
X14309524Y-23931009D02*
X14357143Y-24026247D01*
X14357143Y-24026247D02*
X14357143Y-24264342D01*
X14357143Y-24264342D02*
X14309524Y-24359580D01*
X14309524Y-24359580D02*
X14261905Y-24407200D01*
X14261905Y-24407200D02*
X14166667Y-24454819D01*
X14166667Y-24454819D02*
X13880953Y-24454819D01*
X13880953Y-24454819D02*
X13785715Y-24407200D01*
X13785715Y-24407200D02*
X13738096Y-24359580D01*
X14738096Y-23550057D02*
X14785715Y-23502438D01*
X14785715Y-23502438D02*
X14880953Y-23454819D01*
X14880953Y-23454819D02*
X15119048Y-23454819D01*
X15119048Y-23454819D02*
X15214286Y-23502438D01*
X15214286Y-23502438D02*
X15261905Y-23550057D01*
X15261905Y-23550057D02*
X15309524Y-23645295D01*
X15309524Y-23645295D02*
X15309524Y-23740533D01*
X15309524Y-23740533D02*
X15261905Y-23883390D01*
X15261905Y-23883390D02*
X14690477Y-24454819D01*
X14690477Y-24454819D02*
X15309524Y-24454819D01*
X15738096Y-24073866D02*
X16500001Y-24073866D01*
X17547619Y-24359580D02*
X17500000Y-24407200D01*
X17500000Y-24407200D02*
X17357143Y-24454819D01*
X17357143Y-24454819D02*
X17261905Y-24454819D01*
X17261905Y-24454819D02*
X17119048Y-24407200D01*
X17119048Y-24407200D02*
X17023810Y-24311961D01*
X17023810Y-24311961D02*
X16976191Y-24216723D01*
X16976191Y-24216723D02*
X16928572Y-24026247D01*
X16928572Y-24026247D02*
X16928572Y-23883390D01*
X16928572Y-23883390D02*
X16976191Y-23692914D01*
X16976191Y-23692914D02*
X17023810Y-23597676D01*
X17023810Y-23597676D02*
X17119048Y-23502438D01*
X17119048Y-23502438D02*
X17261905Y-23454819D01*
X17261905Y-23454819D02*
X17357143Y-23454819D01*
X17357143Y-23454819D02*
X17500000Y-23502438D01*
X17500000Y-23502438D02*
X17547619Y-23550057D01*
X17880953Y-23454819D02*
X18500000Y-23454819D01*
X18500000Y-23454819D02*
X18166667Y-23835771D01*
X18166667Y-23835771D02*
X18309524Y-23835771D01*
X18309524Y-23835771D02*
X18404762Y-23883390D01*
X18404762Y-23883390D02*
X18452381Y-23931009D01*
X18452381Y-23931009D02*
X18500000Y-24026247D01*
X18500000Y-24026247D02*
X18500000Y-24264342D01*
X18500000Y-24264342D02*
X18452381Y-24359580D01*
X18452381Y-24359580D02*
X18404762Y-24407200D01*
X18404762Y-24407200D02*
X18309524Y-24454819D01*
X18309524Y-24454819D02*
X18023810Y-24454819D01*
X18023810Y-24454819D02*
X17928572Y-24407200D01*
X17928572Y-24407200D02*
X17880953Y-24359580D01*
X18928572Y-24073866D02*
X19690477Y-24073866D01*
X20166667Y-24454819D02*
X20166667Y-23454819D01*
X20166667Y-23454819D02*
X20500000Y-24169104D01*
X20500000Y-24169104D02*
X20833333Y-23454819D01*
X20833333Y-23454819D02*
X20833333Y-24454819D01*
X21309524Y-24454819D02*
X21309524Y-23454819D01*
X21785714Y-24454819D02*
X21785714Y-23454819D01*
X21785714Y-23454819D02*
X22357142Y-24454819D01*
X22357142Y-24454819D02*
X22357142Y-23454819D01*
X22833333Y-24454819D02*
X22833333Y-23454819D01*
X23309523Y-24073866D02*
X24071428Y-24073866D01*
X25071427Y-24454819D02*
X24499999Y-24454819D01*
X24785713Y-24454819D02*
X24785713Y-23454819D01*
X24785713Y-23454819D02*
X24690475Y-23597676D01*
X24690475Y-23597676D02*
X24595237Y-23692914D01*
X24595237Y-23692914D02*
X24499999Y-23740533D01*
X17238095Y-15454819D02*
X17238095Y-16264342D01*
X17238095Y-16264342D02*
X17285714Y-16359580D01*
X17285714Y-16359580D02*
X17333333Y-16407200D01*
X17333333Y-16407200D02*
X17428571Y-16454819D01*
X17428571Y-16454819D02*
X17619047Y-16454819D01*
X17619047Y-16454819D02*
X17714285Y-16407200D01*
X17714285Y-16407200D02*
X17761904Y-16359580D01*
X17761904Y-16359580D02*
X17809523Y-16264342D01*
X17809523Y-16264342D02*
X17809523Y-15454819D01*
X18809523Y-16454819D02*
X18238095Y-16454819D01*
X18523809Y-16454819D02*
X18523809Y-15454819D01*
X18523809Y-15454819D02*
X18428571Y-15597676D01*
X18428571Y-15597676D02*
X18333333Y-15692914D01*
X18333333Y-15692914D02*
X18238095Y-15740533D01*
X31428571Y-10614819D02*
X30857143Y-10614819D01*
X31142857Y-10614819D02*
X31142857Y-9614819D01*
X31142857Y-9614819D02*
X31047619Y-9757676D01*
X31047619Y-9757676D02*
X30952381Y-9852914D01*
X30952381Y-9852914D02*
X30857143Y-9900533D01*
X32047619Y-9614819D02*
X32142857Y-9614819D01*
X32142857Y-9614819D02*
X32238095Y-9662438D01*
X32238095Y-9662438D02*
X32285714Y-9710057D01*
X32285714Y-9710057D02*
X32333333Y-9805295D01*
X32333333Y-9805295D02*
X32380952Y-9995771D01*
X32380952Y-9995771D02*
X32380952Y-10233866D01*
X32380952Y-10233866D02*
X32333333Y-10424342D01*
X32333333Y-10424342D02*
X32285714Y-10519580D01*
X32285714Y-10519580D02*
X32238095Y-10567200D01*
X32238095Y-10567200D02*
X32142857Y-10614819D01*
X32142857Y-10614819D02*
X32047619Y-10614819D01*
X32047619Y-10614819D02*
X31952381Y-10567200D01*
X31952381Y-10567200D02*
X31904762Y-10519580D01*
X31904762Y-10519580D02*
X31857143Y-10424342D01*
X31857143Y-10424342D02*
X31809524Y-10233866D01*
X31809524Y-10233866D02*
X31809524Y-9995771D01*
X31809524Y-9995771D02*
X31857143Y-9805295D01*
X31857143Y-9805295D02*
X31904762Y-9710057D01*
X31904762Y-9710057D02*
X31952381Y-9662438D01*
X31952381Y-9662438D02*
X32047619Y-9614819D01*
X33238095Y-9948152D02*
X33238095Y-10614819D01*
X32809524Y-9948152D02*
X32809524Y-10471961D01*
X32809524Y-10471961D02*
X32857143Y-10567200D01*
X32857143Y-10567200D02*
X32952381Y-10614819D01*
X32952381Y-10614819D02*
X33095238Y-10614819D01*
X33095238Y-10614819D02*
X33190476Y-10567200D01*
X33190476Y-10567200D02*
X33238095Y-10519580D01*
X34047619Y-10091009D02*
X33714286Y-10091009D01*
X33714286Y-10614819D02*
X33714286Y-9614819D01*
X33714286Y-9614819D02*
X34190476Y-9614819D01*
D12*
X32458333Y-9089765D02*
X32446429Y-9101670D01*
X32446429Y-9101670D02*
X32410714Y-9113574D01*
X32410714Y-9113574D02*
X32386905Y-9113574D01*
X32386905Y-9113574D02*
X32351191Y-9101670D01*
X32351191Y-9101670D02*
X32327381Y-9077860D01*
X32327381Y-9077860D02*
X32315476Y-9054050D01*
X32315476Y-9054050D02*
X32303572Y-9006431D01*
X32303572Y-9006431D02*
X32303572Y-8970717D01*
X32303572Y-8970717D02*
X32315476Y-8923098D01*
X32315476Y-8923098D02*
X32327381Y-8899289D01*
X32327381Y-8899289D02*
X32351191Y-8875479D01*
X32351191Y-8875479D02*
X32386905Y-8863574D01*
X32386905Y-8863574D02*
X32410714Y-8863574D01*
X32410714Y-8863574D02*
X32446429Y-8875479D01*
X32446429Y-8875479D02*
X32458333Y-8887384D01*
X32541667Y-8863574D02*
X32696429Y-8863574D01*
X32696429Y-8863574D02*
X32613095Y-8958812D01*
X32613095Y-8958812D02*
X32648810Y-8958812D01*
X32648810Y-8958812D02*
X32672619Y-8970717D01*
X32672619Y-8970717D02*
X32684524Y-8982622D01*
X32684524Y-8982622D02*
X32696429Y-9006431D01*
X32696429Y-9006431D02*
X32696429Y-9065955D01*
X32696429Y-9065955D02*
X32684524Y-9089765D01*
X32684524Y-9089765D02*
X32672619Y-9101670D01*
X32672619Y-9101670D02*
X32648810Y-9113574D01*
X32648810Y-9113574D02*
X32577381Y-9113574D01*
X32577381Y-9113574D02*
X32553572Y-9101670D01*
X32553572Y-9101670D02*
X32541667Y-9089765D01*
D10*
X1690476Y-5804819D02*
X1690476Y-4804819D01*
X1690476Y-4804819D02*
X2023809Y-5519104D01*
X2023809Y-5519104D02*
X2357142Y-4804819D01*
X2357142Y-4804819D02*
X2357142Y-5804819D01*
X2785714Y-4900057D02*
X2833333Y-4852438D01*
X2833333Y-4852438D02*
X2928571Y-4804819D01*
X2928571Y-4804819D02*
X3166666Y-4804819D01*
X3166666Y-4804819D02*
X3261904Y-4852438D01*
X3261904Y-4852438D02*
X3309523Y-4900057D01*
X3309523Y-4900057D02*
X3357142Y-4995295D01*
X3357142Y-4995295D02*
X3357142Y-5090533D01*
X3357142Y-5090533D02*
X3309523Y-5233390D01*
X3309523Y-5233390D02*
X2738095Y-5804819D01*
X2738095Y-5804819D02*
X3357142Y-5804819D01*
D11*
X1776190Y-2932208D02*
X1776190Y-1982208D01*
X1776190Y-2434589D02*
X2319047Y-2434589D01*
X2319047Y-2932208D02*
X2319047Y-1982208D01*
X3269047Y-2932208D02*
X2726190Y-2932208D01*
X2997618Y-2932208D02*
X2997618Y-1982208D01*
X2997618Y-1982208D02*
X2907142Y-2117922D01*
X2907142Y-2117922D02*
X2816666Y-2208398D01*
X2816666Y-2208398D02*
X2726190Y-2253636D01*
D10*
X2713095Y-13379819D02*
X2713095Y-14189342D01*
X2713095Y-14189342D02*
X2760714Y-14284580D01*
X2760714Y-14284580D02*
X2808333Y-14332200D01*
X2808333Y-14332200D02*
X2903571Y-14379819D01*
X2903571Y-14379819D02*
X3094047Y-14379819D01*
X3094047Y-14379819D02*
X3189285Y-14332200D01*
X3189285Y-14332200D02*
X3236904Y-14284580D01*
X3236904Y-14284580D02*
X3284523Y-14189342D01*
X3284523Y-14189342D02*
X3284523Y-13379819D01*
X3713095Y-14332200D02*
X3855952Y-14379819D01*
X3855952Y-14379819D02*
X4094047Y-14379819D01*
X4094047Y-14379819D02*
X4189285Y-14332200D01*
X4189285Y-14332200D02*
X4236904Y-14284580D01*
X4236904Y-14284580D02*
X4284523Y-14189342D01*
X4284523Y-14189342D02*
X4284523Y-14094104D01*
X4284523Y-14094104D02*
X4236904Y-13998866D01*
X4236904Y-13998866D02*
X4189285Y-13951247D01*
X4189285Y-13951247D02*
X4094047Y-13903628D01*
X4094047Y-13903628D02*
X3903571Y-13856009D01*
X3903571Y-13856009D02*
X3808333Y-13808390D01*
X3808333Y-13808390D02*
X3760714Y-13760771D01*
X3760714Y-13760771D02*
X3713095Y-13665533D01*
X3713095Y-13665533D02*
X3713095Y-13570295D01*
X3713095Y-13570295D02*
X3760714Y-13475057D01*
X3760714Y-13475057D02*
X3808333Y-13427438D01*
X3808333Y-13427438D02*
X3903571Y-13379819D01*
X3903571Y-13379819D02*
X4141666Y-13379819D01*
X4141666Y-13379819D02*
X4284523Y-13427438D01*
X5046428Y-13856009D02*
X5189285Y-13903628D01*
X5189285Y-13903628D02*
X5236904Y-13951247D01*
X5236904Y-13951247D02*
X5284523Y-14046485D01*
X5284523Y-14046485D02*
X5284523Y-14189342D01*
X5284523Y-14189342D02*
X5236904Y-14284580D01*
X5236904Y-14284580D02*
X5189285Y-14332200D01*
X5189285Y-14332200D02*
X5094047Y-14379819D01*
X5094047Y-14379819D02*
X4713095Y-14379819D01*
X4713095Y-14379819D02*
X4713095Y-13379819D01*
X4713095Y-13379819D02*
X5046428Y-13379819D01*
X5046428Y-13379819D02*
X5141666Y-13427438D01*
X5141666Y-13427438D02*
X5189285Y-13475057D01*
X5189285Y-13475057D02*
X5236904Y-13570295D01*
X5236904Y-13570295D02*
X5236904Y-13665533D01*
X5236904Y-13665533D02*
X5189285Y-13760771D01*
X5189285Y-13760771D02*
X5141666Y-13808390D01*
X5141666Y-13808390D02*
X5046428Y-13856009D01*
X5046428Y-13856009D02*
X4713095Y-13856009D01*
X6141666Y-13713152D02*
X6141666Y-14379819D01*
X5903571Y-13332200D02*
X5665476Y-14046485D01*
X5665476Y-14046485D02*
X6284523Y-14046485D01*
X6855952Y-13379819D02*
X6951190Y-13379819D01*
X6951190Y-13379819D02*
X7046428Y-13427438D01*
X7046428Y-13427438D02*
X7094047Y-13475057D01*
X7094047Y-13475057D02*
X7141666Y-13570295D01*
X7141666Y-13570295D02*
X7189285Y-13760771D01*
X7189285Y-13760771D02*
X7189285Y-13998866D01*
X7189285Y-13998866D02*
X7141666Y-14189342D01*
X7141666Y-14189342D02*
X7094047Y-14284580D01*
X7094047Y-14284580D02*
X7046428Y-14332200D01*
X7046428Y-14332200D02*
X6951190Y-14379819D01*
X6951190Y-14379819D02*
X6855952Y-14379819D01*
X6855952Y-14379819D02*
X6760714Y-14332200D01*
X6760714Y-14332200D02*
X6713095Y-14284580D01*
X6713095Y-14284580D02*
X6665476Y-14189342D01*
X6665476Y-14189342D02*
X6617857Y-13998866D01*
X6617857Y-13998866D02*
X6617857Y-13760771D01*
X6617857Y-13760771D02*
X6665476Y-13570295D01*
X6665476Y-13570295D02*
X6713095Y-13475057D01*
X6713095Y-13475057D02*
X6760714Y-13427438D01*
X6760714Y-13427438D02*
X6855952Y-13379819D01*
X7760714Y-13808390D02*
X7665476Y-13760771D01*
X7665476Y-13760771D02*
X7617857Y-13713152D01*
X7617857Y-13713152D02*
X7570238Y-13617914D01*
X7570238Y-13617914D02*
X7570238Y-13570295D01*
X7570238Y-13570295D02*
X7617857Y-13475057D01*
X7617857Y-13475057D02*
X7665476Y-13427438D01*
X7665476Y-13427438D02*
X7760714Y-13379819D01*
X7760714Y-13379819D02*
X7951190Y-13379819D01*
X7951190Y-13379819D02*
X8046428Y-13427438D01*
X8046428Y-13427438D02*
X8094047Y-13475057D01*
X8094047Y-13475057D02*
X8141666Y-13570295D01*
X8141666Y-13570295D02*
X8141666Y-13617914D01*
X8141666Y-13617914D02*
X8094047Y-13713152D01*
X8094047Y-13713152D02*
X8046428Y-13760771D01*
X8046428Y-13760771D02*
X7951190Y-13808390D01*
X7951190Y-13808390D02*
X7760714Y-13808390D01*
X7760714Y-13808390D02*
X7665476Y-13856009D01*
X7665476Y-13856009D02*
X7617857Y-13903628D01*
X7617857Y-13903628D02*
X7570238Y-13998866D01*
X7570238Y-13998866D02*
X7570238Y-14189342D01*
X7570238Y-14189342D02*
X7617857Y-14284580D01*
X7617857Y-14284580D02*
X7665476Y-14332200D01*
X7665476Y-14332200D02*
X7760714Y-14379819D01*
X7760714Y-14379819D02*
X7951190Y-14379819D01*
X7951190Y-14379819D02*
X8046428Y-14332200D01*
X8046428Y-14332200D02*
X8094047Y-14284580D01*
X8094047Y-14284580D02*
X8141666Y-14189342D01*
X8141666Y-14189342D02*
X8141666Y-13998866D01*
X8141666Y-13998866D02*
X8094047Y-13903628D01*
X8094047Y-13903628D02*
X8046428Y-13856009D01*
X8046428Y-13856009D02*
X7951190Y-13808390D01*
X9046428Y-13379819D02*
X8570238Y-13379819D01*
X8570238Y-13379819D02*
X8522619Y-13856009D01*
X8522619Y-13856009D02*
X8570238Y-13808390D01*
X8570238Y-13808390D02*
X8665476Y-13760771D01*
X8665476Y-13760771D02*
X8903571Y-13760771D01*
X8903571Y-13760771D02*
X8998809Y-13808390D01*
X8998809Y-13808390D02*
X9046428Y-13856009D01*
X9046428Y-13856009D02*
X9094047Y-13951247D01*
X9094047Y-13951247D02*
X9094047Y-14189342D01*
X9094047Y-14189342D02*
X9046428Y-14284580D01*
X9046428Y-14284580D02*
X8998809Y-14332200D01*
X8998809Y-14332200D02*
X8903571Y-14379819D01*
X8903571Y-14379819D02*
X8665476Y-14379819D01*
X8665476Y-14379819D02*
X8570238Y-14332200D01*
X8570238Y-14332200D02*
X8522619Y-14284580D01*
X9522619Y-13998866D02*
X10284524Y-13998866D01*
X11284523Y-13427438D02*
X11189285Y-13379819D01*
X11189285Y-13379819D02*
X11046428Y-13379819D01*
X11046428Y-13379819D02*
X10903571Y-13427438D01*
X10903571Y-13427438D02*
X10808333Y-13522676D01*
X10808333Y-13522676D02*
X10760714Y-13617914D01*
X10760714Y-13617914D02*
X10713095Y-13808390D01*
X10713095Y-13808390D02*
X10713095Y-13951247D01*
X10713095Y-13951247D02*
X10760714Y-14141723D01*
X10760714Y-14141723D02*
X10808333Y-14236961D01*
X10808333Y-14236961D02*
X10903571Y-14332200D01*
X10903571Y-14332200D02*
X11046428Y-14379819D01*
X11046428Y-14379819D02*
X11141666Y-14379819D01*
X11141666Y-14379819D02*
X11284523Y-14332200D01*
X11284523Y-14332200D02*
X11332142Y-14284580D01*
X11332142Y-14284580D02*
X11332142Y-13951247D01*
X11332142Y-13951247D02*
X11141666Y-13951247D01*
X12094047Y-13856009D02*
X11760714Y-13856009D01*
X11760714Y-14379819D02*
X11760714Y-13379819D01*
X11760714Y-13379819D02*
X12236904Y-13379819D01*
X12617857Y-13998866D02*
X13379762Y-13998866D01*
X13808333Y-14094104D02*
X14284523Y-14094104D01*
X13713095Y-14379819D02*
X14046428Y-13379819D01*
X14046428Y-13379819D02*
X14379761Y-14379819D01*
X8141666Y-7479819D02*
X8141666Y-8194104D01*
X8141666Y-8194104D02*
X8094047Y-8336961D01*
X8094047Y-8336961D02*
X7998809Y-8432200D01*
X7998809Y-8432200D02*
X7855952Y-8479819D01*
X7855952Y-8479819D02*
X7760714Y-8479819D01*
X9141666Y-8479819D02*
X8570238Y-8479819D01*
X8855952Y-8479819D02*
X8855952Y-7479819D01*
X8855952Y-7479819D02*
X8760714Y-7622676D01*
X8760714Y-7622676D02*
X8665476Y-7717914D01*
X8665476Y-7717914D02*
X8570238Y-7765533D01*
X32634047Y-22466009D02*
X32776904Y-22513628D01*
X32776904Y-22513628D02*
X32824523Y-22561247D01*
X32824523Y-22561247D02*
X32872142Y-22656485D01*
X32872142Y-22656485D02*
X32872142Y-22799342D01*
X32872142Y-22799342D02*
X32824523Y-22894580D01*
X32824523Y-22894580D02*
X32776904Y-22942200D01*
X32776904Y-22942200D02*
X32681666Y-22989819D01*
X32681666Y-22989819D02*
X32300714Y-22989819D01*
X32300714Y-22989819D02*
X32300714Y-21989819D01*
X32300714Y-21989819D02*
X32634047Y-21989819D01*
X32634047Y-21989819D02*
X32729285Y-22037438D01*
X32729285Y-22037438D02*
X32776904Y-22085057D01*
X32776904Y-22085057D02*
X32824523Y-22180295D01*
X32824523Y-22180295D02*
X32824523Y-22275533D01*
X32824523Y-22275533D02*
X32776904Y-22370771D01*
X32776904Y-22370771D02*
X32729285Y-22418390D01*
X32729285Y-22418390D02*
X32634047Y-22466009D01*
X32634047Y-22466009D02*
X32300714Y-22466009D01*
X33300714Y-22989819D02*
X33300714Y-21989819D01*
X33300714Y-21989819D02*
X33634047Y-22704104D01*
X33634047Y-22704104D02*
X33967380Y-21989819D01*
X33967380Y-21989819D02*
X33967380Y-22989819D01*
X34443571Y-22466009D02*
X34776904Y-22466009D01*
X34919761Y-22989819D02*
X34443571Y-22989819D01*
X34443571Y-22989819D02*
X34443571Y-21989819D01*
X34443571Y-21989819D02*
X34919761Y-21989819D01*
X35300714Y-22085057D02*
X35348333Y-22037438D01*
X35348333Y-22037438D02*
X35443571Y-21989819D01*
X35443571Y-21989819D02*
X35681666Y-21989819D01*
X35681666Y-21989819D02*
X35776904Y-22037438D01*
X35776904Y-22037438D02*
X35824523Y-22085057D01*
X35824523Y-22085057D02*
X35872142Y-22180295D01*
X35872142Y-22180295D02*
X35872142Y-22275533D01*
X35872142Y-22275533D02*
X35824523Y-22418390D01*
X35824523Y-22418390D02*
X35253095Y-22989819D01*
X35253095Y-22989819D02*
X35872142Y-22989819D01*
X36443571Y-22418390D02*
X36348333Y-22370771D01*
X36348333Y-22370771D02*
X36300714Y-22323152D01*
X36300714Y-22323152D02*
X36253095Y-22227914D01*
X36253095Y-22227914D02*
X36253095Y-22180295D01*
X36253095Y-22180295D02*
X36300714Y-22085057D01*
X36300714Y-22085057D02*
X36348333Y-22037438D01*
X36348333Y-22037438D02*
X36443571Y-21989819D01*
X36443571Y-21989819D02*
X36634047Y-21989819D01*
X36634047Y-21989819D02*
X36729285Y-22037438D01*
X36729285Y-22037438D02*
X36776904Y-22085057D01*
X36776904Y-22085057D02*
X36824523Y-22180295D01*
X36824523Y-22180295D02*
X36824523Y-22227914D01*
X36824523Y-22227914D02*
X36776904Y-22323152D01*
X36776904Y-22323152D02*
X36729285Y-22370771D01*
X36729285Y-22370771D02*
X36634047Y-22418390D01*
X36634047Y-22418390D02*
X36443571Y-22418390D01*
X36443571Y-22418390D02*
X36348333Y-22466009D01*
X36348333Y-22466009D02*
X36300714Y-22513628D01*
X36300714Y-22513628D02*
X36253095Y-22608866D01*
X36253095Y-22608866D02*
X36253095Y-22799342D01*
X36253095Y-22799342D02*
X36300714Y-22894580D01*
X36300714Y-22894580D02*
X36348333Y-22942200D01*
X36348333Y-22942200D02*
X36443571Y-22989819D01*
X36443571Y-22989819D02*
X36634047Y-22989819D01*
X36634047Y-22989819D02*
X36729285Y-22942200D01*
X36729285Y-22942200D02*
X36776904Y-22894580D01*
X36776904Y-22894580D02*
X36824523Y-22799342D01*
X36824523Y-22799342D02*
X36824523Y-22608866D01*
X36824523Y-22608866D02*
X36776904Y-22513628D01*
X36776904Y-22513628D02*
X36729285Y-22466009D01*
X36729285Y-22466009D02*
X36634047Y-22418390D01*
X37443571Y-21989819D02*
X37538809Y-21989819D01*
X37538809Y-21989819D02*
X37634047Y-22037438D01*
X37634047Y-22037438D02*
X37681666Y-22085057D01*
X37681666Y-22085057D02*
X37729285Y-22180295D01*
X37729285Y-22180295D02*
X37776904Y-22370771D01*
X37776904Y-22370771D02*
X37776904Y-22608866D01*
X37776904Y-22608866D02*
X37729285Y-22799342D01*
X37729285Y-22799342D02*
X37681666Y-22894580D01*
X37681666Y-22894580D02*
X37634047Y-22942200D01*
X37634047Y-22942200D02*
X37538809Y-22989819D01*
X37538809Y-22989819D02*
X37443571Y-22989819D01*
X37443571Y-22989819D02*
X37348333Y-22942200D01*
X37348333Y-22942200D02*
X37300714Y-22894580D01*
X37300714Y-22894580D02*
X37253095Y-22799342D01*
X37253095Y-22799342D02*
X37205476Y-22608866D01*
X37205476Y-22608866D02*
X37205476Y-22370771D01*
X37205476Y-22370771D02*
X37253095Y-22180295D01*
X37253095Y-22180295D02*
X37300714Y-22085057D01*
X37300714Y-22085057D02*
X37348333Y-22037438D01*
X37348333Y-22037438D02*
X37443571Y-21989819D01*
D14*
X34619047Y-19727409D02*
X34619047Y-20132171D01*
X34619047Y-20132171D02*
X34642857Y-20179790D01*
X34642857Y-20179790D02*
X34666666Y-20203600D01*
X34666666Y-20203600D02*
X34714285Y-20227409D01*
X34714285Y-20227409D02*
X34809523Y-20227409D01*
X34809523Y-20227409D02*
X34857142Y-20203600D01*
X34857142Y-20203600D02*
X34880952Y-20179790D01*
X34880952Y-20179790D02*
X34904761Y-20132171D01*
X34904761Y-20132171D02*
X34904761Y-19727409D01*
X35095238Y-19727409D02*
X35404762Y-19727409D01*
X35404762Y-19727409D02*
X35238095Y-19917885D01*
X35238095Y-19917885D02*
X35309524Y-19917885D01*
X35309524Y-19917885D02*
X35357143Y-19941695D01*
X35357143Y-19941695D02*
X35380952Y-19965504D01*
X35380952Y-19965504D02*
X35404762Y-20013123D01*
X35404762Y-20013123D02*
X35404762Y-20132171D01*
X35404762Y-20132171D02*
X35380952Y-20179790D01*
X35380952Y-20179790D02*
X35357143Y-20203600D01*
X35357143Y-20203600D02*
X35309524Y-20227409D01*
X35309524Y-20227409D02*
X35166667Y-20227409D01*
X35166667Y-20227409D02*
X35119048Y-20203600D01*
X35119048Y-20203600D02*
X35095238Y-20179790D01*
D10*
X3261904Y-12124819D02*
X2785714Y-12124819D01*
X2785714Y-12124819D02*
X2738095Y-12601009D01*
X2738095Y-12601009D02*
X2785714Y-12553390D01*
X2785714Y-12553390D02*
X2880952Y-12505771D01*
X2880952Y-12505771D02*
X3119047Y-12505771D01*
X3119047Y-12505771D02*
X3214285Y-12553390D01*
X3214285Y-12553390D02*
X3261904Y-12601009D01*
X3261904Y-12601009D02*
X3309523Y-12696247D01*
X3309523Y-12696247D02*
X3309523Y-12934342D01*
X3309523Y-12934342D02*
X3261904Y-13029580D01*
X3261904Y-13029580D02*
X3214285Y-13077200D01*
X3214285Y-13077200D02*
X3119047Y-13124819D01*
X3119047Y-13124819D02*
X2880952Y-13124819D01*
X2880952Y-13124819D02*
X2785714Y-13077200D01*
X2785714Y-13077200D02*
X2738095Y-13029580D01*
X3738095Y-13124819D02*
X3738095Y-12124819D01*
X4309523Y-13124819D02*
X3880952Y-12553390D01*
X4309523Y-12124819D02*
X3738095Y-12696247D01*
X5261904Y-13124819D02*
X4690476Y-13124819D01*
X4976190Y-13124819D02*
X4976190Y-12124819D01*
X4976190Y-12124819D02*
X4880952Y-12267676D01*
X4880952Y-12267676D02*
X4785714Y-12362914D01*
X4785714Y-12362914D02*
X4690476Y-12410533D01*
D12*
X3956667Y-11618200D02*
X3870000Y-11494391D01*
X3808095Y-11618200D02*
X3808095Y-11358200D01*
X3808095Y-11358200D02*
X3907143Y-11358200D01*
X3907143Y-11358200D02*
X3931905Y-11370581D01*
X3931905Y-11370581D02*
X3944286Y-11382962D01*
X3944286Y-11382962D02*
X3956667Y-11407724D01*
X3956667Y-11407724D02*
X3956667Y-11444867D01*
X3956667Y-11444867D02*
X3944286Y-11469629D01*
X3944286Y-11469629D02*
X3931905Y-11482010D01*
X3931905Y-11482010D02*
X3907143Y-11494391D01*
X3907143Y-11494391D02*
X3808095Y-11494391D01*
X4179524Y-11444867D02*
X4179524Y-11618200D01*
X4117619Y-11345820D02*
X4055714Y-11531534D01*
X4055714Y-11531534D02*
X4216667Y-11531534D01*
D10*
X29214285Y-21458152D02*
X29214285Y-22124819D01*
X28976190Y-21077200D02*
X28738095Y-21791485D01*
X28738095Y-21791485D02*
X29357142Y-21791485D01*
X29738095Y-22124819D02*
X29738095Y-21124819D01*
X30309523Y-22124819D02*
X29880952Y-21553390D01*
X30309523Y-21124819D02*
X29738095Y-21696247D01*
X30642857Y-21124819D02*
X31309523Y-21124819D01*
X31309523Y-21124819D02*
X30880952Y-22124819D01*
D12*
X29956667Y-20618200D02*
X29870000Y-20494391D01*
X29808095Y-20618200D02*
X29808095Y-20358200D01*
X29808095Y-20358200D02*
X29907143Y-20358200D01*
X29907143Y-20358200D02*
X29931905Y-20370581D01*
X29931905Y-20370581D02*
X29944286Y-20382962D01*
X29944286Y-20382962D02*
X29956667Y-20407724D01*
X29956667Y-20407724D02*
X29956667Y-20444867D01*
X29956667Y-20444867D02*
X29944286Y-20469629D01*
X29944286Y-20469629D02*
X29931905Y-20482010D01*
X29931905Y-20482010D02*
X29907143Y-20494391D01*
X29907143Y-20494391D02*
X29808095Y-20494391D01*
X30043333Y-20358200D02*
X30204286Y-20358200D01*
X30204286Y-20358200D02*
X30117619Y-20457248D01*
X30117619Y-20457248D02*
X30154762Y-20457248D01*
X30154762Y-20457248D02*
X30179524Y-20469629D01*
X30179524Y-20469629D02*
X30191905Y-20482010D01*
X30191905Y-20482010D02*
X30204286Y-20506772D01*
X30204286Y-20506772D02*
X30204286Y-20568677D01*
X30204286Y-20568677D02*
X30191905Y-20593439D01*
X30191905Y-20593439D02*
X30179524Y-20605820D01*
X30179524Y-20605820D02*
X30154762Y-20618200D01*
X30154762Y-20618200D02*
X30080476Y-20618200D01*
X30080476Y-20618200D02*
X30055714Y-20605820D01*
X30055714Y-20605820D02*
X30043333Y-20593439D01*
D10*
X30952380Y-8614819D02*
X30380952Y-8614819D01*
X30666666Y-8614819D02*
X30666666Y-7614819D01*
X30666666Y-7614819D02*
X30571428Y-7757676D01*
X30571428Y-7757676D02*
X30476190Y-7852914D01*
X30476190Y-7852914D02*
X30380952Y-7900533D01*
X31571428Y-7614819D02*
X31666666Y-7614819D01*
X31666666Y-7614819D02*
X31761904Y-7662438D01*
X31761904Y-7662438D02*
X31809523Y-7710057D01*
X31809523Y-7710057D02*
X31857142Y-7805295D01*
X31857142Y-7805295D02*
X31904761Y-7995771D01*
X31904761Y-7995771D02*
X31904761Y-8233866D01*
X31904761Y-8233866D02*
X31857142Y-8424342D01*
X31857142Y-8424342D02*
X31809523Y-8519580D01*
X31809523Y-8519580D02*
X31761904Y-8567200D01*
X31761904Y-8567200D02*
X31666666Y-8614819D01*
X31666666Y-8614819D02*
X31571428Y-8614819D01*
X31571428Y-8614819D02*
X31476190Y-8567200D01*
X31476190Y-8567200D02*
X31428571Y-8519580D01*
X31428571Y-8519580D02*
X31380952Y-8424342D01*
X31380952Y-8424342D02*
X31333333Y-8233866D01*
X31333333Y-8233866D02*
X31333333Y-7995771D01*
X31333333Y-7995771D02*
X31380952Y-7805295D01*
X31380952Y-7805295D02*
X31428571Y-7710057D01*
X31428571Y-7710057D02*
X31476190Y-7662438D01*
X31476190Y-7662438D02*
X31571428Y-7614819D01*
X32523809Y-7614819D02*
X32619047Y-7614819D01*
X32619047Y-7614819D02*
X32714285Y-7662438D01*
X32714285Y-7662438D02*
X32761904Y-7710057D01*
X32761904Y-7710057D02*
X32809523Y-7805295D01*
X32809523Y-7805295D02*
X32857142Y-7995771D01*
X32857142Y-7995771D02*
X32857142Y-8233866D01*
X32857142Y-8233866D02*
X32809523Y-8424342D01*
X32809523Y-8424342D02*
X32761904Y-8519580D01*
X32761904Y-8519580D02*
X32714285Y-8567200D01*
X32714285Y-8567200D02*
X32619047Y-8614819D01*
X32619047Y-8614819D02*
X32523809Y-8614819D01*
X32523809Y-8614819D02*
X32428571Y-8567200D01*
X32428571Y-8567200D02*
X32380952Y-8519580D01*
X32380952Y-8519580D02*
X32333333Y-8424342D01*
X32333333Y-8424342D02*
X32285714Y-8233866D01*
X32285714Y-8233866D02*
X32285714Y-7995771D01*
X32285714Y-7995771D02*
X32333333Y-7805295D01*
X32333333Y-7805295D02*
X32380952Y-7710057D01*
X32380952Y-7710057D02*
X32428571Y-7662438D01*
X32428571Y-7662438D02*
X32523809Y-7614819D01*
X33285714Y-7948152D02*
X33285714Y-8614819D01*
X33285714Y-8043390D02*
X33333333Y-7995771D01*
X33333333Y-7995771D02*
X33428571Y-7948152D01*
X33428571Y-7948152D02*
X33571428Y-7948152D01*
X33571428Y-7948152D02*
X33666666Y-7995771D01*
X33666666Y-7995771D02*
X33714285Y-8091009D01*
X33714285Y-8091009D02*
X33714285Y-8614819D01*
X34523809Y-8091009D02*
X34190476Y-8091009D01*
X34190476Y-8614819D02*
X34190476Y-7614819D01*
X34190476Y-7614819D02*
X34666666Y-7614819D01*
D12*
X32458333Y-7089765D02*
X32446429Y-7101670D01*
X32446429Y-7101670D02*
X32410714Y-7113574D01*
X32410714Y-7113574D02*
X32386905Y-7113574D01*
X32386905Y-7113574D02*
X32351191Y-7101670D01*
X32351191Y-7101670D02*
X32327381Y-7077860D01*
X32327381Y-7077860D02*
X32315476Y-7054050D01*
X32315476Y-7054050D02*
X32303572Y-7006431D01*
X32303572Y-7006431D02*
X32303572Y-6970717D01*
X32303572Y-6970717D02*
X32315476Y-6923098D01*
X32315476Y-6923098D02*
X32327381Y-6899289D01*
X32327381Y-6899289D02*
X32351191Y-6875479D01*
X32351191Y-6875479D02*
X32386905Y-6863574D01*
X32386905Y-6863574D02*
X32410714Y-6863574D01*
X32410714Y-6863574D02*
X32446429Y-6875479D01*
X32446429Y-6875479D02*
X32458333Y-6887384D01*
X32553572Y-6887384D02*
X32565476Y-6875479D01*
X32565476Y-6875479D02*
X32589286Y-6863574D01*
X32589286Y-6863574D02*
X32648810Y-6863574D01*
X32648810Y-6863574D02*
X32672619Y-6875479D01*
X32672619Y-6875479D02*
X32684524Y-6887384D01*
X32684524Y-6887384D02*
X32696429Y-6911193D01*
X32696429Y-6911193D02*
X32696429Y-6935003D01*
X32696429Y-6935003D02*
X32684524Y-6970717D01*
X32684524Y-6970717D02*
X32541667Y-7113574D01*
X32541667Y-7113574D02*
X32696429Y-7113574D01*
D10*
X1690476Y-30804819D02*
X1690476Y-29804819D01*
X1690476Y-29804819D02*
X2023809Y-30519104D01*
X2023809Y-30519104D02*
X2357142Y-29804819D01*
X2357142Y-29804819D02*
X2357142Y-30804819D01*
X2785714Y-29900057D02*
X2833333Y-29852438D01*
X2833333Y-29852438D02*
X2928571Y-29804819D01*
X2928571Y-29804819D02*
X3166666Y-29804819D01*
X3166666Y-29804819D02*
X3261904Y-29852438D01*
X3261904Y-29852438D02*
X3309523Y-29900057D01*
X3309523Y-29900057D02*
X3357142Y-29995295D01*
X3357142Y-29995295D02*
X3357142Y-30090533D01*
X3357142Y-30090533D02*
X3309523Y-30233390D01*
X3309523Y-30233390D02*
X2738095Y-30804819D01*
X2738095Y-30804819D02*
X3357142Y-30804819D01*
D11*
X1776190Y-27932208D02*
X1776190Y-26982208D01*
X1776190Y-27434589D02*
X2319047Y-27434589D01*
X2319047Y-27932208D02*
X2319047Y-26982208D01*
X2680952Y-26982208D02*
X3269047Y-26982208D01*
X3269047Y-26982208D02*
X2952380Y-27344112D01*
X2952380Y-27344112D02*
X3088095Y-27344112D01*
X3088095Y-27344112D02*
X3178571Y-27389350D01*
X3178571Y-27389350D02*
X3223809Y-27434589D01*
X3223809Y-27434589D02*
X3269047Y-27525065D01*
X3269047Y-27525065D02*
X3269047Y-27751255D01*
X3269047Y-27751255D02*
X3223809Y-27841731D01*
X3223809Y-27841731D02*
X3178571Y-27886970D01*
X3178571Y-27886970D02*
X3088095Y-27932208D01*
X3088095Y-27932208D02*
X2816666Y-27932208D01*
X2816666Y-27932208D02*
X2726190Y-27886970D01*
X2726190Y-27886970D02*
X2680952Y-27841731D01*
D10*
X2452380Y-10614819D02*
X1880952Y-10614819D01*
X2166666Y-10614819D02*
X2166666Y-9614819D01*
X2166666Y-9614819D02*
X2071428Y-9757676D01*
X2071428Y-9757676D02*
X1976190Y-9852914D01*
X1976190Y-9852914D02*
X1880952Y-9900533D01*
X3071428Y-9614819D02*
X3166666Y-9614819D01*
X3166666Y-9614819D02*
X3261904Y-9662438D01*
X3261904Y-9662438D02*
X3309523Y-9710057D01*
X3309523Y-9710057D02*
X3357142Y-9805295D01*
X3357142Y-9805295D02*
X3404761Y-9995771D01*
X3404761Y-9995771D02*
X3404761Y-10233866D01*
X3404761Y-10233866D02*
X3357142Y-10424342D01*
X3357142Y-10424342D02*
X3309523Y-10519580D01*
X3309523Y-10519580D02*
X3261904Y-10567200D01*
X3261904Y-10567200D02*
X3166666Y-10614819D01*
X3166666Y-10614819D02*
X3071428Y-10614819D01*
X3071428Y-10614819D02*
X2976190Y-10567200D01*
X2976190Y-10567200D02*
X2928571Y-10519580D01*
X2928571Y-10519580D02*
X2880952Y-10424342D01*
X2880952Y-10424342D02*
X2833333Y-10233866D01*
X2833333Y-10233866D02*
X2833333Y-9995771D01*
X2833333Y-9995771D02*
X2880952Y-9805295D01*
X2880952Y-9805295D02*
X2928571Y-9710057D01*
X2928571Y-9710057D02*
X2976190Y-9662438D01*
X2976190Y-9662438D02*
X3071428Y-9614819D01*
X4023809Y-9614819D02*
X4119047Y-9614819D01*
X4119047Y-9614819D02*
X4214285Y-9662438D01*
X4214285Y-9662438D02*
X4261904Y-9710057D01*
X4261904Y-9710057D02*
X4309523Y-9805295D01*
X4309523Y-9805295D02*
X4357142Y-9995771D01*
X4357142Y-9995771D02*
X4357142Y-10233866D01*
X4357142Y-10233866D02*
X4309523Y-10424342D01*
X4309523Y-10424342D02*
X4261904Y-10519580D01*
X4261904Y-10519580D02*
X4214285Y-10567200D01*
X4214285Y-10567200D02*
X4119047Y-10614819D01*
X4119047Y-10614819D02*
X4023809Y-10614819D01*
X4023809Y-10614819D02*
X3928571Y-10567200D01*
X3928571Y-10567200D02*
X3880952Y-10519580D01*
X3880952Y-10519580D02*
X3833333Y-10424342D01*
X3833333Y-10424342D02*
X3785714Y-10233866D01*
X3785714Y-10233866D02*
X3785714Y-9995771D01*
X3785714Y-9995771D02*
X3833333Y-9805295D01*
X3833333Y-9805295D02*
X3880952Y-9710057D01*
X3880952Y-9710057D02*
X3928571Y-9662438D01*
X3928571Y-9662438D02*
X4023809Y-9614819D01*
X4785714Y-9948152D02*
X4785714Y-10614819D01*
X4785714Y-10043390D02*
X4833333Y-9995771D01*
X4833333Y-9995771D02*
X4928571Y-9948152D01*
X4928571Y-9948152D02*
X5071428Y-9948152D01*
X5071428Y-9948152D02*
X5166666Y-9995771D01*
X5166666Y-9995771D02*
X5214285Y-10091009D01*
X5214285Y-10091009D02*
X5214285Y-10614819D01*
X6023809Y-10091009D02*
X5690476Y-10091009D01*
X5690476Y-10614819D02*
X5690476Y-9614819D01*
X5690476Y-9614819D02*
X6166666Y-9614819D01*
D12*
X3958333Y-9089765D02*
X3946429Y-9101670D01*
X3946429Y-9101670D02*
X3910714Y-9113574D01*
X3910714Y-9113574D02*
X3886905Y-9113574D01*
X3886905Y-9113574D02*
X3851191Y-9101670D01*
X3851191Y-9101670D02*
X3827381Y-9077860D01*
X3827381Y-9077860D02*
X3815476Y-9054050D01*
X3815476Y-9054050D02*
X3803572Y-9006431D01*
X3803572Y-9006431D02*
X3803572Y-8970717D01*
X3803572Y-8970717D02*
X3815476Y-8923098D01*
X3815476Y-8923098D02*
X3827381Y-8899289D01*
X3827381Y-8899289D02*
X3851191Y-8875479D01*
X3851191Y-8875479D02*
X3886905Y-8863574D01*
X3886905Y-8863574D02*
X3910714Y-8863574D01*
X3910714Y-8863574D02*
X3946429Y-8875479D01*
X3946429Y-8875479D02*
X3958333Y-8887384D01*
X4172619Y-8946908D02*
X4172619Y-9113574D01*
X4113095Y-8851670D02*
X4053572Y-9030241D01*
X4053572Y-9030241D02*
X4208333Y-9030241D01*
%TO.C,SW2*%
D15*
X7900000Y-22900000D02*
X14100000Y-22900000D01*
X14100000Y-29100000D01*
X7900000Y-29100000D01*
X7900000Y-22900000D01*
X12475000Y-26000000D02*
G75*
G02*
X9525000Y-26000000I-1475000J0D01*
G01*
X9525000Y-26000000D02*
G75*
G02*
X12475000Y-26000000I1475000J0D01*
G01*
%TO.C,C1*%
X32000000Y-4750000D02*
X33000000Y-4750000D01*
X33000000Y-5250000D01*
X32000000Y-5250000D01*
X32000000Y-4750000D01*
%TO.C,D1*%
X34600000Y-14250000D02*
X34600000Y-13750000D01*
X34700000Y-14250000D02*
X34700000Y-13750000D01*
X34500000Y-13750000D02*
X35500000Y-13750000D01*
X35500000Y-14250000D01*
X34500000Y-14250000D01*
X34500000Y-13750000D01*
%TO.C,R2*%
X29475000Y-18230000D02*
X30525000Y-18230000D01*
X30525000Y-18770000D01*
X29475000Y-18770000D01*
X29475000Y-18230000D01*
%TO.C,U2*%
X34100000Y-5550000D02*
X35300000Y-5550000D01*
X35300000Y-8450000D01*
X33700000Y-8450000D01*
X33700000Y-5950000D01*
X34100000Y-5550000D01*
%TO.C,SW1*%
X1900000Y-22900000D02*
X8100000Y-22900000D01*
X8100000Y-29100000D01*
X1900000Y-29100000D01*
X1900000Y-22900000D01*
X6475000Y-26000000D02*
G75*
G02*
X3525000Y-26000000I-1475000J0D01*
G01*
X3525000Y-26000000D02*
G75*
G02*
X6475000Y-26000000I1475000J0D01*
G01*
%TO.C,R5*%
X5975000Y-11230000D02*
X7025000Y-11230000D01*
X7025000Y-11770000D01*
X5975000Y-11770000D01*
X5975000Y-11230000D01*
%TO.C,R1*%
X32475000Y-13730000D02*
X33525000Y-13730000D01*
X33525000Y-14270000D01*
X32475000Y-14270000D01*
X32475000Y-13730000D01*
%TO.C,C5*%
X5500000Y-8750000D02*
X6500000Y-8750000D01*
X6500000Y-9250000D01*
X5500000Y-9250000D01*
X5500000Y-8750000D01*
%TO.C,U1*%
X9000000Y-2900000D02*
X9000000Y-9500000D01*
X9000000Y-2900000D02*
X27000000Y-2900000D01*
X9000000Y-9500000D02*
X9500000Y-10000000D01*
X9000000Y-10500000D02*
X9000000Y-22900000D01*
X9000000Y-22900000D02*
X27000000Y-22900000D01*
X9500000Y-10000000D02*
X9000000Y-10500000D01*
X27000000Y-22900000D02*
X27000000Y-2900000D01*
%TO.C,C3*%
X32000000Y-8750000D02*
X33000000Y-8750000D01*
X33000000Y-9250000D01*
X32000000Y-9250000D01*
X32000000Y-8750000D01*
%TO.C,J1*%
X4000000Y-3440000D02*
X4000000Y-12610000D01*
X4000000Y-3440000D02*
X12950000Y-3440000D01*
X4000000Y-12610000D02*
X12950000Y-12610000D01*
X5475000Y-10100000D02*
X11475000Y-10100000D01*
X12950000Y-3440000D02*
X12950000Y-12610000D01*
%TO.C,U3*%
X33750000Y-19500000D02*
X34500000Y-18750000D01*
X33750000Y-21250000D02*
X33750000Y-19500000D01*
X34500000Y-18750000D02*
X36250000Y-18750000D01*
X36250000Y-18750000D02*
X36250000Y-21250000D01*
X36250000Y-21250000D02*
X33750000Y-21250000D01*
%TO.C,R4*%
X3475000Y-11230000D02*
X4525000Y-11230000D01*
X4525000Y-11770000D01*
X3475000Y-11770000D01*
X3475000Y-11230000D01*
%TO.C,R3*%
X29475000Y-20230000D02*
X30525000Y-20230000D01*
X30525000Y-20770000D01*
X29475000Y-20770000D01*
X29475000Y-20230000D01*
%TO.C,C2*%
X32000000Y-6750000D02*
X33000000Y-6750000D01*
X33000000Y-7250000D01*
X32000000Y-7250000D01*
X32000000Y-6750000D01*
%TO.C,C4*%
X3500000Y-8750000D02*
X4500000Y-8750000D01*
X4500000Y-9250000D01*
X3500000Y-9250000D01*
X3500000Y-8750000D01*
%TD*%
M02*
