%TF.GenerationSoftware,KiCad,Pcbnew,10.0.6-10.0.6~ubuntu24.04.1*%
%TF.CreationDate,2026-09-27T09:45:30+01:00*%
%TF.ProjectId,board,626f6172-642e-46b6-9963-61645f706362,v0.2.1*%
%TF.SameCoordinates,Original*%
%TF.FileFunction,Other,Comment*%
%FSLAX46Y46*%
G04 Gerber Fmt 4.6, Leading zero omitted, Abs format (unit mm)*
G04 Created by KiCad (PCBNEW 10.0.6-10.0.6~ubuntu24.04.1) date 2026-09-27 09:45:30*
%MOMM*%
%LPD*%
G01*
G04 APERTURE LIST*
%ADD10C,0.150000*%
%ADD11C,0.100000*%
G04 APERTURE END LIST*
D10*
X11928571Y-454819D02*
X11928571Y545180D01*
X12499999Y-454819D02*
X12071428Y116609D01*
X12499999Y545180D02*
X11928571Y-26247D01*
X12928571Y68990D02*
X13261904Y68990D01*
X13404761Y-454819D02*
X12928571Y-454819D01*
X12928571Y-454819D02*
X12928571Y545180D01*
X12928571Y545180D02*
X13404761Y545180D01*
X13833333Y68990D02*
X14166666Y68990D01*
X14309523Y-454819D02*
X13833333Y-454819D01*
X13833333Y-454819D02*
X13833333Y545180D01*
X13833333Y545180D02*
X14309523Y545180D01*
X14738095Y-454819D02*
X14738095Y545180D01*
X14738095Y545180D02*
X15119047Y545180D01*
X15119047Y545180D02*
X15214285Y497561D01*
X15214285Y497561D02*
X15261904Y449942D01*
X15261904Y449942D02*
X15309523Y354704D01*
X15309523Y354704D02*
X15309523Y211847D01*
X15309523Y211847D02*
X15261904Y116609D01*
X15261904Y116609D02*
X15214285Y68990D01*
X15214285Y68990D02*
X15119047Y21371D01*
X15119047Y21371D02*
X14738095Y21371D01*
X15738095Y-73866D02*
X16500000Y-73866D01*
X17166666Y545180D02*
X17357142Y545180D01*
X17357142Y545180D02*
X17452380Y497561D01*
X17452380Y497561D02*
X17547618Y402323D01*
X17547618Y402323D02*
X17595237Y211847D01*
X17595237Y211847D02*
X17595237Y-121485D01*
X17595237Y-121485D02*
X17547618Y-311961D01*
X17547618Y-311961D02*
X17452380Y-407200D01*
X17452380Y-407200D02*
X17357142Y-454819D01*
X17357142Y-454819D02*
X17166666Y-454819D01*
X17166666Y-454819D02*
X17071428Y-407200D01*
X17071428Y-407200D02*
X16976190Y-311961D01*
X16976190Y-311961D02*
X16928571Y-121485D01*
X16928571Y-121485D02*
X16928571Y211847D01*
X16928571Y211847D02*
X16976190Y402323D01*
X16976190Y402323D02*
X17071428Y497561D01*
X17071428Y497561D02*
X17166666Y545180D01*
X18023809Y545180D02*
X18023809Y-264342D01*
X18023809Y-264342D02*
X18071428Y-359580D01*
X18071428Y-359580D02*
X18119047Y-407200D01*
X18119047Y-407200D02*
X18214285Y-454819D01*
X18214285Y-454819D02*
X18404761Y-454819D01*
X18404761Y-454819D02*
X18499999Y-407200D01*
X18499999Y-407200D02*
X18547618Y-359580D01*
X18547618Y-359580D02*
X18595237Y-264342D01*
X18595237Y-264342D02*
X18595237Y545180D01*
X18928571Y545180D02*
X19499999Y545180D01*
X19214285Y-454819D02*
X19214285Y545180D01*
X20500000Y545180D02*
X21166666Y545180D01*
X21166666Y545180D02*
X20500000Y-454819D01*
X20500000Y-454819D02*
X21166666Y-454819D01*
X21738095Y545180D02*
X21928571Y545180D01*
X21928571Y545180D02*
X22023809Y497561D01*
X22023809Y497561D02*
X22119047Y402323D01*
X22119047Y402323D02*
X22166666Y211847D01*
X22166666Y211847D02*
X22166666Y-121485D01*
X22166666Y-121485D02*
X22119047Y-311961D01*
X22119047Y-311961D02*
X22023809Y-407200D01*
X22023809Y-407200D02*
X21928571Y-454819D01*
X21928571Y-454819D02*
X21738095Y-454819D01*
X21738095Y-454819D02*
X21642857Y-407200D01*
X21642857Y-407200D02*
X21547619Y-311961D01*
X21547619Y-311961D02*
X21500000Y-121485D01*
X21500000Y-121485D02*
X21500000Y211847D01*
X21500000Y211847D02*
X21547619Y402323D01*
X21547619Y402323D02*
X21642857Y497561D01*
X21642857Y497561D02*
X21738095Y545180D01*
X22595238Y-454819D02*
X22595238Y545180D01*
X22595238Y545180D02*
X23166666Y-454819D01*
X23166666Y-454819D02*
X23166666Y545180D01*
X23642857Y68990D02*
X23976190Y68990D01*
X24119047Y-454819D02*
X23642857Y-454819D01*
X23642857Y-454819D02*
X23642857Y545180D01*
X23642857Y545180D02*
X24119047Y545180D01*
X15238095Y-6169104D02*
X15714285Y-6169104D01*
X15142857Y-6454819D02*
X15476190Y-5454819D01*
X15476190Y-5454819D02*
X15809523Y-6454819D01*
X16142857Y-5788152D02*
X16142857Y-6454819D01*
X16142857Y-5883390D02*
X16190476Y-5835771D01*
X16190476Y-5835771D02*
X16285714Y-5788152D01*
X16285714Y-5788152D02*
X16428571Y-5788152D01*
X16428571Y-5788152D02*
X16523809Y-5835771D01*
X16523809Y-5835771D02*
X16571428Y-5931009D01*
X16571428Y-5931009D02*
X16571428Y-6454819D01*
X16904762Y-5788152D02*
X17285714Y-5788152D01*
X17047619Y-5454819D02*
X17047619Y-6311961D01*
X17047619Y-6311961D02*
X17095238Y-6407200D01*
X17095238Y-6407200D02*
X17190476Y-6454819D01*
X17190476Y-6454819D02*
X17285714Y-6454819D01*
X18000000Y-6407200D02*
X17904762Y-6454819D01*
X17904762Y-6454819D02*
X17714286Y-6454819D01*
X17714286Y-6454819D02*
X17619048Y-6407200D01*
X17619048Y-6407200D02*
X17571429Y-6311961D01*
X17571429Y-6311961D02*
X17571429Y-5931009D01*
X17571429Y-5931009D02*
X17619048Y-5835771D01*
X17619048Y-5835771D02*
X17714286Y-5788152D01*
X17714286Y-5788152D02*
X17904762Y-5788152D01*
X17904762Y-5788152D02*
X18000000Y-5835771D01*
X18000000Y-5835771D02*
X18047619Y-5931009D01*
X18047619Y-5931009D02*
X18047619Y-6026247D01*
X18047619Y-6026247D02*
X17571429Y-6121485D01*
X18476191Y-5788152D02*
X18476191Y-6454819D01*
X18476191Y-5883390D02*
X18523810Y-5835771D01*
X18523810Y-5835771D02*
X18619048Y-5788152D01*
X18619048Y-5788152D02*
X18761905Y-5788152D01*
X18761905Y-5788152D02*
X18857143Y-5835771D01*
X18857143Y-5835771D02*
X18904762Y-5931009D01*
X18904762Y-5931009D02*
X18904762Y-6454819D01*
X19380953Y-5788152D02*
X19380953Y-6454819D01*
X19380953Y-5883390D02*
X19428572Y-5835771D01*
X19428572Y-5835771D02*
X19523810Y-5788152D01*
X19523810Y-5788152D02*
X19666667Y-5788152D01*
X19666667Y-5788152D02*
X19761905Y-5835771D01*
X19761905Y-5835771D02*
X19809524Y-5931009D01*
X19809524Y-5931009D02*
X19809524Y-6454819D01*
X20714286Y-6454819D02*
X20714286Y-5931009D01*
X20714286Y-5931009D02*
X20666667Y-5835771D01*
X20666667Y-5835771D02*
X20571429Y-5788152D01*
X20571429Y-5788152D02*
X20380953Y-5788152D01*
X20380953Y-5788152D02*
X20285715Y-5835771D01*
X20714286Y-6407200D02*
X20619048Y-6454819D01*
X20619048Y-6454819D02*
X20380953Y-6454819D01*
X20380953Y-6454819D02*
X20285715Y-6407200D01*
X20285715Y-6407200D02*
X20238096Y-6311961D01*
X20238096Y-6311961D02*
X20238096Y-6216723D01*
X20238096Y-6216723D02*
X20285715Y-6121485D01*
X20285715Y-6121485D02*
X20380953Y-6073866D01*
X20380953Y-6073866D02*
X20619048Y-6073866D01*
X20619048Y-6073866D02*
X20714286Y-6026247D01*
D11*
X25526109Y-838095D02*
X25526109Y-1076190D01*
X25526109Y-1076190D02*
X25764204Y-1099999D01*
X25764204Y-1099999D02*
X25740395Y-1076190D01*
X25740395Y-1076190D02*
X25716585Y-1028571D01*
X25716585Y-1028571D02*
X25716585Y-909523D01*
X25716585Y-909523D02*
X25740395Y-861904D01*
X25740395Y-861904D02*
X25764204Y-838095D01*
X25764204Y-838095D02*
X25811823Y-814285D01*
X25811823Y-814285D02*
X25930871Y-814285D01*
X25930871Y-814285D02*
X25978490Y-838095D01*
X25978490Y-838095D02*
X26002300Y-861904D01*
X26002300Y-861904D02*
X26026109Y-909523D01*
X26026109Y-909523D02*
X26026109Y-1028571D01*
X26026109Y-1028571D02*
X26002300Y-1076190D01*
X26002300Y-1076190D02*
X25978490Y-1099999D01*
X26026109Y-219048D02*
X25692776Y-219048D01*
X25740395Y-219048D02*
X25716585Y-195238D01*
X25716585Y-195238D02*
X25692776Y-147619D01*
X25692776Y-147619D02*
X25692776Y-76191D01*
X25692776Y-76191D02*
X25716585Y-28572D01*
X25716585Y-28572D02*
X25764204Y-4762D01*
X25764204Y-4762D02*
X26026109Y-4762D01*
X25764204Y-4762D02*
X25716585Y19046D01*
X25716585Y19046D02*
X25692776Y66665D01*
X25692776Y66665D02*
X25692776Y138094D01*
X25692776Y138094D02*
X25716585Y185713D01*
X25716585Y185713D02*
X25764204Y209523D01*
X25764204Y209523D02*
X26026109Y209523D01*
X26026109Y447618D02*
X25692776Y447618D01*
X25740395Y447618D02*
X25716585Y471428D01*
X25716585Y471428D02*
X25692776Y519047D01*
X25692776Y519047D02*
X25692776Y590475D01*
X25692776Y590475D02*
X25716585Y638094D01*
X25716585Y638094D02*
X25764204Y661904D01*
X25764204Y661904D02*
X26026109Y661904D01*
X25764204Y661904D02*
X25716585Y685713D01*
X25716585Y685713D02*
X25692776Y733332D01*
X25692776Y733332D02*
X25692776Y804761D01*
X25692776Y804761D02*
X25716585Y852380D01*
X25716585Y852380D02*
X25764204Y876190D01*
X25764204Y876190D02*
X26026109Y876190D01*
X29061904Y-4526109D02*
X28823809Y-4526109D01*
X28823809Y-4526109D02*
X28800000Y-4764204D01*
X28800000Y-4764204D02*
X28823809Y-4740395D01*
X28823809Y-4740395D02*
X28871428Y-4716585D01*
X28871428Y-4716585D02*
X28990476Y-4716585D01*
X28990476Y-4716585D02*
X29038095Y-4740395D01*
X29038095Y-4740395D02*
X29061904Y-4764204D01*
X29061904Y-4764204D02*
X29085714Y-4811823D01*
X29085714Y-4811823D02*
X29085714Y-4930871D01*
X29085714Y-4930871D02*
X29061904Y-4978490D01*
X29061904Y-4978490D02*
X29038095Y-5002300D01*
X29038095Y-5002300D02*
X28990476Y-5026109D01*
X28990476Y-5026109D02*
X28871428Y-5026109D01*
X28871428Y-5026109D02*
X28823809Y-5002300D01*
X28823809Y-5002300D02*
X28800000Y-4978490D01*
X29680951Y-5026109D02*
X29680951Y-4692776D01*
X29680951Y-4740395D02*
X29704761Y-4716585D01*
X29704761Y-4716585D02*
X29752380Y-4692776D01*
X29752380Y-4692776D02*
X29823808Y-4692776D01*
X29823808Y-4692776D02*
X29871427Y-4716585D01*
X29871427Y-4716585D02*
X29895237Y-4764204D01*
X29895237Y-4764204D02*
X29895237Y-5026109D01*
X29895237Y-4764204D02*
X29919046Y-4716585D01*
X29919046Y-4716585D02*
X29966665Y-4692776D01*
X29966665Y-4692776D02*
X30038094Y-4692776D01*
X30038094Y-4692776D02*
X30085713Y-4716585D01*
X30085713Y-4716585D02*
X30109523Y-4764204D01*
X30109523Y-4764204D02*
X30109523Y-5026109D01*
X30347618Y-5026109D02*
X30347618Y-4692776D01*
X30347618Y-4740395D02*
X30371428Y-4716585D01*
X30371428Y-4716585D02*
X30419047Y-4692776D01*
X30419047Y-4692776D02*
X30490475Y-4692776D01*
X30490475Y-4692776D02*
X30538094Y-4716585D01*
X30538094Y-4716585D02*
X30561904Y-4764204D01*
X30561904Y-4764204D02*
X30561904Y-5026109D01*
X30561904Y-4764204D02*
X30585713Y-4716585D01*
X30585713Y-4716585D02*
X30633332Y-4692776D01*
X30633332Y-4692776D02*
X30704761Y-4692776D01*
X30704761Y-4692776D02*
X30752380Y-4716585D01*
X30752380Y-4716585D02*
X30776190Y-4764204D01*
X30776190Y-4764204D02*
X30776190Y-5026109D01*
%TO.C,H4*%
D10*
X39400000Y-27500000D02*
G75*
G02*
X35600000Y-27500000I-1900000J0D01*
G01*
X35600000Y-27500000D02*
G75*
G02*
X39400000Y-27500000I1900000J0D01*
G01*
%TO.C,H2*%
X39400000Y-2500000D02*
G75*
G02*
X35600000Y-2500000I-1900000J0D01*
G01*
X35600000Y-2500000D02*
G75*
G02*
X39400000Y-2500000I1900000J0D01*
G01*
%TO.C,U1*%
D11*
X4200000Y-5300000D02*
X4400000Y-5100000D01*
X4200000Y-5300000D02*
X4400000Y-5500000D01*
X4200000Y-5300000D02*
X8800000Y-5300000D01*
X8800000Y-5300000D02*
X8600000Y-5100000D01*
X8800000Y-5300000D02*
X8600000Y-5500000D01*
X26300000Y1900000D02*
X26100000Y1700000D01*
X26300000Y1900000D02*
X26500000Y1700000D01*
X26300000Y-2700000D02*
X26100000Y-2500000D01*
X26300000Y-2700000D02*
X26300000Y1900000D01*
X26300000Y-2700000D02*
X26500000Y-2500000D01*
X27200000Y-5300000D02*
X27400000Y-5100000D01*
X27200000Y-5300000D02*
X27400000Y-5500000D01*
X27200000Y-5300000D02*
X31800000Y-5300000D01*
X31800000Y-5300000D02*
X31600000Y-5100000D01*
X31800000Y-5300000D02*
X31600000Y-5500000D01*
%TO.C,H1*%
D10*
X4400000Y-2500000D02*
G75*
G02*
X600000Y-2500000I-1900000J0D01*
G01*
X600000Y-2500000D02*
G75*
G02*
X4400000Y-2500000I1900000J0D01*
G01*
%TO.C,H3*%
X4400000Y-27500000D02*
G75*
G02*
X600000Y-27500000I-1900000J0D01*
G01*
X600000Y-27500000D02*
G75*
G02*
X4400000Y-27500000I1900000J0D01*
G01*
%TD*%
M02*
