%TF.GenerationSoftware,KiCad,Pcbnew,10.0.6-10.0.6~ubuntu24.04.1*%
%TF.CreationDate,2026-09-27T09:45:30+01:00*%
%TF.ProjectId,board,626f6172-642e-46b6-9963-61645f706362,v0.2.1*%
%TF.SameCoordinates,Original*%
%TF.FileFunction,Copper,L1,Top*%
%TF.FilePolarity,Positive*%
%FSLAX46Y46*%
G04 Gerber Fmt 4.6, Leading zero omitted, Abs format (unit mm)*
G04 Created by KiCad (PCBNEW 10.0.6-10.0.6~ubuntu24.04.1) date 2026-09-27 09:45:30*
%MOMM*%
%LPD*%
G01*
G04 APERTURE LIST*
G04 Aperture macros list*
%AMRoundRect*
0 Rectangle with rounded corners*
0 $1 Rounding radius*
0 $2 $3 $4 $5 $6 $7 $8 $9 X,Y pos of 4 corners*
0 Add a 4 corners polygon primitive as box body*
4,1,4,$2,$3,$4,$5,$6,$7,$8,$9,$2,$3,0*
0 Add four circle primitives for the rounded corners*
1,1,$1+$1,$2,$3*
1,1,$1+$1,$4,$5*
1,1,$1+$1,$6,$7*
1,1,$1+$1,$8,$9*
0 Add four rect primitives between the rounded corners*
20,1,$1+$1,$2,$3,$4,$5,0*
20,1,$1+$1,$4,$5,$6,$7,0*
20,1,$1+$1,$6,$7,$8,$9,0*
20,1,$1+$1,$8,$9,$2,$3,0*%
G04 Aperture macros list end*
%TA.AperFunction,SMDPad,CuDef*%
%ADD10RoundRect,0.250000X-1.300000X-0.250000X1.300000X-0.250000X1.300000X0.250000X-1.300000X0.250000X0*%
%TD*%
%TA.AperFunction,SMDPad,CuDef*%
%ADD11RoundRect,0.140000X-0.140000X-0.170000X0.140000X-0.170000X0.140000X0.170000X-0.140000X0.170000X0*%
%TD*%
%TA.AperFunction,SMDPad,CuDef*%
%ADD12RoundRect,0.147500X-0.147500X-0.172500X0.147500X-0.172500X0.147500X0.172500X-0.147500X0.172500X0*%
%TD*%
%TA.AperFunction,SMDPad,CuDef*%
%ADD13RoundRect,0.135000X-0.135000X-0.185000X0.135000X-0.185000X0.135000X0.185000X-0.135000X0.185000X0*%
%TD*%
%TA.AperFunction,SMDPad,CuDef*%
%ADD14RoundRect,0.150000X-0.512500X-0.150000X0.512500X-0.150000X0.512500X0.150000X-0.512500X0.150000X0*%
%TD*%
%TA.AperFunction,SMDPad,CuDef*%
%ADD15R,1.500000X0.900000*%
%TD*%
%TA.AperFunction,HeatsinkPad*%
%ADD16C,0.600000*%
%TD*%
%TA.AperFunction,HeatsinkPad*%
%ADD17R,2.900000X2.900000*%
%TD*%
%TA.AperFunction,ComponentPad*%
%ADD18C,0.700000*%
%TD*%
%TA.AperFunction,ComponentPad*%
%ADD19O,0.900000X2.400000*%
%TD*%
%TA.AperFunction,ComponentPad*%
%ADD20O,0.900000X1.700000*%
%TD*%
%TA.AperFunction,SMDPad,CuDef*%
%ADD21R,0.350000X0.500000*%
%TD*%
%TA.AperFunction,Conductor*%
%ADD22C,0.500000*%
%TD*%
%TA.AperFunction,Conductor*%
%ADD23C,0.300000*%
%TD*%
%TA.AperFunction,Conductor*%
%ADD24C,0.200000*%
%TD*%
G04 APERTURE END LIST*
D10*
%TO.P,SW2,1*%
%TO.N,nRESET*%
X6550000Y-24000000D03*
X15450000Y-24000000D03*
%TO.P,SW2,2*%
%TO.N,GND*%
X6550000Y-28000000D03*
X15450000Y-28000000D03*
%TD*%
D11*
%TO.P,C1,1*%
%TO.N,+3V3*%
X32020000Y-5000000D03*
%TO.P,C1,2*%
%TO.N,GND*%
X32980000Y-5000000D03*
%TD*%
D12*
%TO.P,D1,1*%
%TO.N,LED_ANODE*%
X34515000Y-14000000D03*
%TO.P,D1,2*%
%TO.N,GND*%
X35485000Y-14000000D03*
%TD*%
D13*
%TO.P,R2,1*%
%TO.N,+3V3*%
X29490000Y-18500000D03*
%TO.P,R2,2*%
%TO.N,I2C_SCL*%
X30510000Y-18500000D03*
%TD*%
D14*
%TO.P,U2,1*%
%TO.N,VBUS*%
X33362500Y-6050000D03*
%TO.P,U2,2*%
%TO.N,GND*%
X33362500Y-7000000D03*
%TO.P,U2,3*%
%TO.N,EN*%
X33362500Y-7950000D03*
%TO.P,U2,4*%
%TO.N,N/C*%
X35637500Y-7950000D03*
%TO.P,U2,5*%
%TO.N,+3V3*%
X35637500Y-6050000D03*
%TD*%
D10*
%TO.P,SW1,1*%
%TO.N,BOOT_BTN*%
X550000Y-24000000D03*
X9450000Y-24000000D03*
%TO.P,SW1,2*%
%TO.N,GND*%
X550000Y-28000000D03*
X9450000Y-28000000D03*
%TD*%
D13*
%TO.P,R5,1*%
%TO.N,CC2*%
X5990000Y-11500000D03*
%TO.P,R5,2*%
%TO.N,GND*%
X7010000Y-11500000D03*
%TD*%
%TO.P,R1,1*%
%TO.N,+3V3*%
X32490000Y-14000000D03*
%TO.P,R1,2*%
%TO.N,LED_ANODE*%
X33510000Y-14000000D03*
%TD*%
D11*
%TO.P,C5,1*%
%TO.N,VBUS*%
X5520000Y-9000000D03*
%TO.P,C5,2*%
%TO.N,GND*%
X6480000Y-9000000D03*
%TD*%
D15*
%TO.P,U1,1*%
%TO.N,GND*%
X9250000Y-10000000D03*
%TO.P,U1,2*%
%TO.N,+3V3*%
X9250000Y-11500000D03*
%TO.P,U1,3*%
%TO.N,nRESET*%
X9250000Y-13000000D03*
%TO.P,U1,4*%
%TO.N,N/C*%
X9250000Y-14500000D03*
%TO.P,U1,5*%
X9250000Y-16000000D03*
%TO.P,U1,6*%
X9250000Y-17500000D03*
%TO.P,U1,7*%
X9250000Y-19000000D03*
%TO.P,U1,8*%
%TO.N,I2C_SCL*%
X9250000Y-20500000D03*
%TO.P,U1,9*%
%TO.N,I2C_SDA*%
X9250000Y-22000000D03*
%TO.P,U1,10*%
%TO.N,N/C*%
X26750000Y-22000000D03*
%TO.P,U1,11*%
%TO.N,BOOT_BTN*%
X26750000Y-20500000D03*
%TO.P,U1,12*%
%TO.N,N/C*%
X26750000Y-19000000D03*
%TO.P,U1,13*%
X26750000Y-17500000D03*
%TO.P,U1,14*%
X26750000Y-16000000D03*
%TO.P,U1,15*%
X26750000Y-14500000D03*
%TO.P,U1,16*%
X26750000Y-13000000D03*
%TO.P,U1,17*%
X26750000Y-11500000D03*
%TO.P,U1,18*%
%TO.N,USB_DN*%
X26750000Y-10000000D03*
D16*
%TO.P,U1,19*%
%TO.N,USB_DP*%
X17860000Y-15650000D03*
X17860000Y-16750000D03*
X18410000Y-15100000D03*
X18410000Y-16200000D03*
X18410000Y-17300000D03*
X18960000Y-15650000D03*
D17*
X18960000Y-16200000D03*
D16*
X18960000Y-16750000D03*
X19510000Y-15100000D03*
X19510000Y-16200000D03*
X19510000Y-17300000D03*
X20060000Y-15650000D03*
X20060000Y-16750000D03*
%TD*%
D11*
%TO.P,C3,1*%
%TO.N,+3V3*%
X32020000Y-9000000D03*
%TO.P,C3,2*%
%TO.N,GND*%
X32980000Y-9000000D03*
%TD*%
D18*
%TO.P,J1,A1*%
%TO.N,GND*%
X5500000Y-4000000D03*
%TO.P,J1,A4*%
%TO.N,VBUS*%
X6350000Y-4000000D03*
%TO.P,J1,A5*%
%TO.N,CC1*%
X7200000Y-4000000D03*
%TO.P,J1,A6*%
%TO.N,USB_DP*%
X8050000Y-4000000D03*
%TO.P,J1,A7*%
%TO.N,USB_DN*%
X8900000Y-4000000D03*
%TO.P,J1,A8*%
%TO.N,N/C*%
X9750000Y-4000000D03*
%TO.P,J1,A9*%
%TO.N,VBUS*%
X10600000Y-4000000D03*
%TO.P,J1,A12*%
%TO.N,GND*%
X11450000Y-4000000D03*
%TO.P,J1,B1*%
X11450000Y-5350000D03*
%TO.P,J1,B4*%
%TO.N,VBUS*%
X10600000Y-5350000D03*
%TO.P,J1,B5*%
%TO.N,CC2*%
X9750000Y-5350000D03*
%TO.P,J1,B6*%
%TO.N,USB_DP*%
X8900000Y-5350000D03*
%TO.P,J1,B7*%
%TO.N,USB_DN*%
X8050000Y-5350000D03*
%TO.P,J1,B8*%
%TO.N,N/C*%
X7200000Y-5350000D03*
%TO.P,J1,B9*%
%TO.N,VBUS*%
X6350000Y-5350000D03*
%TO.P,J1,B12*%
%TO.N,GND*%
X5500000Y-5350000D03*
D19*
%TO.P,J1,SH*%
X4150000Y-4980000D03*
D20*
X4150000Y-8360000D03*
D19*
X12800000Y-4980000D03*
D20*
X12800000Y-8360000D03*
%TD*%
D21*
%TO.P,U3,1*%
%TO.N,+3V3*%
X34025000Y-18975000D03*
%TO.P,U3,2*%
%TO.N,GND*%
X34675000Y-18975000D03*
%TO.P,U3,3*%
%TO.N,N/C*%
X35325000Y-18975000D03*
%TO.P,U3,4*%
X35975000Y-18975000D03*
%TO.P,U3,5*%
%TO.N,I2C_SDA*%
X35975000Y-21025000D03*
%TO.P,U3,6*%
%TO.N,I2C_SCL*%
X35325000Y-21025000D03*
%TO.P,U3,7*%
%TO.N,+3V3*%
X34675000Y-21025000D03*
%TO.P,U3,8*%
%TO.N,GND*%
X34025000Y-21025000D03*
%TD*%
D13*
%TO.P,R4,1*%
%TO.N,CC1*%
X3490000Y-11500000D03*
%TO.P,R4,2*%
%TO.N,GND*%
X4510000Y-11500000D03*
%TD*%
%TO.P,R3,1*%
%TO.N,+3V3*%
X29490000Y-20500000D03*
%TO.P,R3,2*%
%TO.N,I2C_SDA*%
X30510000Y-20500000D03*
%TD*%
D11*
%TO.P,C2,1*%
%TO.N,+3V3*%
X32020000Y-7000000D03*
%TO.P,C2,2*%
%TO.N,GND*%
X32980000Y-7000000D03*
%TD*%
%TO.P,C4,1*%
%TO.N,VBUS*%
X3520000Y-9000000D03*
%TO.P,C4,2*%
%TO.N,GND*%
X4480000Y-9000000D03*
%TD*%
%TO.N,VBUS*%
D22*
X4000000Y-9000000D02*
X34500000Y-7000000D01*
X5500000Y-4000000D02*
X4000000Y-9000000D01*
%TO.N,+3V3*%
D23*
X32500000Y-9000000D02*
X18000000Y-16000000D01*
X32500000Y-7000000D02*
X32500000Y-9000000D01*
X34500000Y-7000000D02*
X32500000Y-5000000D01*
X32500000Y-5000000D02*
X32500000Y-7000000D01*
%TO.N,I2C_SCL*%
D24*
X30000000Y-18500000D02*
X35000000Y-20000000D01*
%TO.N,I2C_SDA*%
X30000000Y-20500000D02*
X35000000Y-20000000D01*
%TO.N,LED_ANODE*%
X33000000Y-14000000D02*
X35000000Y-14000000D01*
%TD*%
%TA.AperFunction,Conductor*%
%TO.N,GND*%
G36*
X3981694Y-518806D02*
G01*
X4000000Y-563000D01*
X4000000Y-3443850D01*
X3981694Y-3488044D01*
X3949696Y-3505149D01*
X3931232Y-3508822D01*
X3794744Y-3565357D01*
X3794739Y-3565360D01*
X3671903Y-3647436D01*
X3567436Y-3751903D01*
X3485360Y-3874739D01*
X3485357Y-3874744D01*
X3428821Y-4011234D01*
X3400000Y-4156130D01*
X3400000Y-4830000D01*
X3850000Y-4830000D01*
X3850000Y-5130000D01*
X3400000Y-5130000D01*
X3400000Y-5803869D01*
X3428821Y-5948765D01*
X3485357Y-6085255D01*
X3485360Y-6085260D01*
X3567436Y-6208096D01*
X3671903Y-6312563D01*
X3794737Y-6394638D01*
X3923415Y-6447938D01*
X3957239Y-6481763D01*
X3959361Y-6523640D01*
X3717533Y-7329738D01*
X3692393Y-7363745D01*
X3671906Y-7377434D01*
X3671901Y-7377438D01*
X3567436Y-7481903D01*
X3485360Y-7604739D01*
X3485357Y-7604744D01*
X3428821Y-7741234D01*
X3400000Y-7886130D01*
X3400000Y-8127000D01*
X3381694Y-8171194D01*
X3337500Y-8189500D01*
X3315302Y-8189500D01*
X3279011Y-8192356D01*
X3279007Y-8192356D01*
X3123603Y-8237506D01*
X3123601Y-8237507D01*
X2984313Y-8319881D01*
X2984312Y-8319883D01*
X2869883Y-8434312D01*
X2869881Y-8434313D01*
X2787507Y-8573601D01*
X2787506Y-8573603D01*
X2742356Y-8729007D01*
X2742356Y-8729011D01*
X2739500Y-8765301D01*
X2739500Y-9234698D01*
X2742356Y-9270988D01*
X2742356Y-9270992D01*
X2787506Y-9426396D01*
X2787507Y-9426398D01*
X2869881Y-9565686D01*
X2984313Y-9680118D01*
X3123601Y-9762492D01*
X3123603Y-9762493D01*
X3123605Y-9762494D01*
X3279007Y-9807643D01*
X3286267Y-9808214D01*
X3315302Y-9810500D01*
X3315310Y-9810500D01*
X3724698Y-9810500D01*
X3747030Y-9808741D01*
X3760993Y-9807643D01*
X3916395Y-9762494D01*
X3920672Y-9759964D01*
X3960648Y-9751792D01*
X3975348Y-9753728D01*
X3983834Y-9753171D01*
X3993856Y-9753319D01*
X4002314Y-9754127D01*
X4061428Y-9748121D01*
X4063571Y-9747942D01*
X4976374Y-9688086D01*
X5012279Y-9696656D01*
X5123605Y-9762494D01*
X5279007Y-9807643D01*
X5286267Y-9808214D01*
X5315302Y-9810500D01*
X5315310Y-9810500D01*
X5724698Y-9810500D01*
X5747030Y-9808741D01*
X5760993Y-9807643D01*
X5916395Y-9762494D01*
X6055687Y-9680117D01*
X6106267Y-9629535D01*
X6146367Y-9611365D01*
X6237491Y-9605390D01*
X6254916Y-9606697D01*
X6257279Y-9607213D01*
X6286999Y-9609999D01*
X6336287Y-9609998D01*
X6364892Y-9597036D01*
X6573264Y-9583372D01*
X6618559Y-9598747D01*
X6621545Y-9601544D01*
X6630000Y-9609999D01*
X6673008Y-9609999D01*
X6702724Y-9607213D01*
X6808379Y-9570242D01*
X6824924Y-9566870D01*
X8133410Y-9481068D01*
X8178708Y-9496443D01*
X8199866Y-9539344D01*
X8200000Y-9543434D01*
X8200000Y-9850000D01*
X10299999Y-9850000D01*
X10299999Y-9505207D01*
X10297089Y-9480123D01*
X10272712Y-9424915D01*
X10271607Y-9377093D01*
X10304642Y-9342495D01*
X10325790Y-9337305D01*
X12166062Y-9216631D01*
X12211358Y-9232006D01*
X12215208Y-9235983D01*
X12215266Y-9235926D01*
X12321903Y-9342563D01*
X12444739Y-9424639D01*
X12444744Y-9424642D01*
X12581231Y-9481177D01*
X12581234Y-9481178D01*
X12649999Y-9494856D01*
X12650000Y-9494856D01*
X12650000Y-9243433D01*
X12668306Y-9199239D01*
X12708408Y-9181068D01*
X12883412Y-9169592D01*
X12928708Y-9184967D01*
X12949866Y-9227869D01*
X12950000Y-9231958D01*
X12950000Y-9494856D01*
X13018765Y-9481178D01*
X13018768Y-9481177D01*
X13155255Y-9424642D01*
X13155260Y-9424639D01*
X13278096Y-9342563D01*
X13382561Y-9238098D01*
X13382566Y-9238092D01*
X13436182Y-9157849D01*
X13475955Y-9131272D01*
X13484043Y-9130206D01*
X16992657Y-8900133D01*
X16996747Y-8900000D01*
X30937650Y-8900000D01*
X30981844Y-8918306D01*
X31000150Y-8962500D01*
X30981844Y-9006694D01*
X30964822Y-9018784D01*
X28090171Y-10406547D01*
X28042413Y-10409276D01*
X28006715Y-10377435D01*
X28000499Y-10350263D01*
X28000499Y-9502135D01*
X28000498Y-9502118D01*
X27998207Y-9480805D01*
X27994091Y-9442517D01*
X27991251Y-9434903D01*
X27943796Y-9307668D01*
X27943793Y-9307663D01*
X27857548Y-9192456D01*
X27857543Y-9192451D01*
X27742336Y-9106206D01*
X27742331Y-9106203D01*
X27607485Y-9055909D01*
X27607487Y-9055909D01*
X27547873Y-9049500D01*
X25952135Y-9049500D01*
X25952118Y-9049501D01*
X25892513Y-9055909D01*
X25757668Y-9106203D01*
X25757663Y-9106206D01*
X25642456Y-9192451D01*
X25642451Y-9192456D01*
X25556206Y-9307663D01*
X25556203Y-9307668D01*
X25505909Y-9442513D01*
X25499500Y-9502119D01*
X25499500Y-10497864D01*
X25499501Y-10497881D01*
X25505909Y-10557486D01*
X25556203Y-10692331D01*
X25556205Y-10692335D01*
X25571335Y-10712546D01*
X25583165Y-10758895D01*
X25571335Y-10787454D01*
X25556205Y-10807664D01*
X25556203Y-10807668D01*
X25505909Y-10942513D01*
X25499500Y-11002119D01*
X25499500Y-11617986D01*
X25481194Y-11662180D01*
X25464172Y-11674270D01*
X20142644Y-14243284D01*
X20115472Y-14249500D01*
X17462135Y-14249500D01*
X17462118Y-14249501D01*
X17402513Y-14255909D01*
X17267668Y-14306203D01*
X17267663Y-14306206D01*
X17152456Y-14392451D01*
X17152451Y-14392456D01*
X17066206Y-14507663D01*
X17066203Y-14507668D01*
X17015909Y-14642513D01*
X17009500Y-14702119D01*
X17009500Y-17697864D01*
X17009501Y-17697881D01*
X17015909Y-17757486D01*
X17066203Y-17892331D01*
X17066206Y-17892336D01*
X17152451Y-18007543D01*
X17152456Y-18007548D01*
X17267663Y-18093793D01*
X17267668Y-18093796D01*
X17402514Y-18144090D01*
X17402515Y-18144090D01*
X17402517Y-18144091D01*
X17462127Y-18150500D01*
X20457872Y-18150499D01*
X20517483Y-18144091D01*
X20652331Y-18093796D01*
X20652336Y-18093793D01*
X20767543Y-18007548D01*
X20767542Y-18007548D01*
X20767546Y-18007546D01*
X20831285Y-17922402D01*
X20853793Y-17892336D01*
X20853796Y-17892331D01*
X20904090Y-17757486D01*
X20904090Y-17757485D01*
X20904091Y-17757483D01*
X20910500Y-17697873D01*
X20910499Y-15356494D01*
X20928805Y-15312301D01*
X20945827Y-15300211D01*
X21031410Y-15258895D01*
X25409830Y-13145174D01*
X25457586Y-13142446D01*
X25493284Y-13174287D01*
X25499500Y-13201459D01*
X25499500Y-13497864D01*
X25499501Y-13497881D01*
X25505909Y-13557486D01*
X25556203Y-13692331D01*
X25556205Y-13692335D01*
X25571335Y-13712546D01*
X25583165Y-13758895D01*
X25571335Y-13787454D01*
X25556205Y-13807664D01*
X25556203Y-13807668D01*
X25505909Y-13942513D01*
X25499500Y-14002119D01*
X25499500Y-14997864D01*
X25499501Y-14997881D01*
X25505909Y-15057486D01*
X25556203Y-15192331D01*
X25556205Y-15192335D01*
X25571335Y-15212546D01*
X25583165Y-15258895D01*
X25571335Y-15287454D01*
X25556205Y-15307664D01*
X25556203Y-15307668D01*
X25505909Y-15442513D01*
X25499500Y-15502119D01*
X25499500Y-16497864D01*
X25499501Y-16497881D01*
X25505909Y-16557486D01*
X25556203Y-16692331D01*
X25556205Y-16692335D01*
X25571335Y-16712546D01*
X25583165Y-16758895D01*
X25571335Y-16787454D01*
X25556205Y-16807664D01*
X25556203Y-16807668D01*
X25505909Y-16942513D01*
X25499500Y-17002119D01*
X25499500Y-17997864D01*
X25499501Y-17997881D01*
X25505909Y-18057486D01*
X25556203Y-18192331D01*
X25556205Y-18192335D01*
X25571335Y-18212546D01*
X25583165Y-18258895D01*
X25571335Y-18287454D01*
X25556205Y-18307664D01*
X25556203Y-18307668D01*
X25505909Y-18442513D01*
X25499500Y-18502119D01*
X25499500Y-19497864D01*
X25499501Y-19497881D01*
X25505909Y-19557486D01*
X25556203Y-19692331D01*
X25556205Y-19692335D01*
X25571335Y-19712546D01*
X25583165Y-19758895D01*
X25571335Y-19787454D01*
X25556205Y-19807664D01*
X25556203Y-19807668D01*
X25505909Y-19942513D01*
X25499500Y-20002119D01*
X25499500Y-20997864D01*
X25499501Y-20997881D01*
X25505909Y-21057486D01*
X25556203Y-21192331D01*
X25556205Y-21192335D01*
X25571335Y-21212546D01*
X25583165Y-21258895D01*
X25571335Y-21287454D01*
X25556205Y-21307664D01*
X25556203Y-21307668D01*
X25505909Y-21442513D01*
X25499500Y-21502119D01*
X25499500Y-22497864D01*
X25499501Y-22497881D01*
X25505909Y-22557486D01*
X25556203Y-22692331D01*
X25556206Y-22692336D01*
X25642451Y-22807543D01*
X25642456Y-22807548D01*
X25757663Y-22893793D01*
X25757668Y-22893796D01*
X25892514Y-22944090D01*
X25892515Y-22944090D01*
X25892517Y-22944091D01*
X25952127Y-22950500D01*
X27547872Y-22950499D01*
X27607483Y-22944091D01*
X27742331Y-22893796D01*
X27742336Y-22893793D01*
X27857543Y-22807548D01*
X27857542Y-22807548D01*
X27857546Y-22807546D01*
X27878987Y-22778904D01*
X27943793Y-22692336D01*
X27943796Y-22692331D01*
X27994090Y-22557486D01*
X27994090Y-22557485D01*
X27994091Y-22557483D01*
X28000500Y-22497873D01*
X28000499Y-21502128D01*
X27994091Y-21442517D01*
X27971700Y-21382483D01*
X27943797Y-21307670D01*
X27928664Y-21287456D01*
X27916833Y-21241106D01*
X27928664Y-21212544D01*
X27943797Y-21192329D01*
X27994090Y-21057486D01*
X27994090Y-21057485D01*
X27994091Y-21057483D01*
X28000500Y-20997873D01*
X28000499Y-20002128D01*
X27994091Y-19942517D01*
X27994090Y-19942513D01*
X27943797Y-19807670D01*
X27928664Y-19787456D01*
X27916833Y-19741106D01*
X27928664Y-19712544D01*
X27934975Y-19704114D01*
X27943796Y-19692331D01*
X27944190Y-19691276D01*
X27994090Y-19557486D01*
X27994090Y-19557485D01*
X27994091Y-19557483D01*
X28000500Y-19497873D01*
X28000499Y-18502128D01*
X27994091Y-18442517D01*
X27994090Y-18442513D01*
X27943797Y-18307670D01*
X27928664Y-18287456D01*
X27916833Y-18241106D01*
X27928664Y-18212544D01*
X27943797Y-18192329D01*
X27994090Y-18057486D01*
X27994090Y-18057485D01*
X27994091Y-18057483D01*
X28000500Y-17997873D01*
X28000499Y-17002128D01*
X27994091Y-16942517D01*
X27994090Y-16942513D01*
X27943797Y-16807670D01*
X27928664Y-16787456D01*
X27916833Y-16741106D01*
X27928664Y-16712544D01*
X27943797Y-16692329D01*
X27994090Y-16557486D01*
X27994090Y-16557485D01*
X27994091Y-16557483D01*
X28000500Y-16497873D01*
X28000499Y-15502128D01*
X27994091Y-15442517D01*
X27962007Y-15356495D01*
X27943797Y-15307670D01*
X27928664Y-15287456D01*
X27916833Y-15241106D01*
X27928664Y-15212544D01*
X27943797Y-15192329D01*
X27994090Y-15057486D01*
X27994090Y-15057485D01*
X27994091Y-15057483D01*
X28000500Y-14997873D01*
X28000499Y-14002128D01*
X27994091Y-13942517D01*
X27994090Y-13942513D01*
X27943797Y-13807670D01*
X27928664Y-13787456D01*
X27916833Y-13741106D01*
X27928664Y-13712544D01*
X27943796Y-13692331D01*
X27953767Y-13665599D01*
X27994090Y-13557486D01*
X27994090Y-13557485D01*
X27994091Y-13557483D01*
X28000500Y-13497873D01*
X28000499Y-12502128D01*
X27994091Y-12442517D01*
X27948582Y-12320500D01*
X27943797Y-12307670D01*
X27928664Y-12287456D01*
X27916833Y-12241106D01*
X27928664Y-12212544D01*
X27943797Y-12192329D01*
X27994090Y-12057486D01*
X27994090Y-12057485D01*
X27994091Y-12057483D01*
X28000500Y-11997873D01*
X28000499Y-11933735D01*
X28018804Y-11889541D01*
X28035822Y-11877454D01*
X32725850Y-9613303D01*
X32758853Y-9607361D01*
X32786999Y-9609999D01*
X32830000Y-9609998D01*
X32830000Y-9597022D01*
X32848306Y-9552828D01*
X32854861Y-9547126D01*
X32875440Y-9531607D01*
X32878331Y-9529556D01*
X32914669Y-9505276D01*
X32924803Y-9495140D01*
X32931358Y-9489439D01*
X32942810Y-9480805D01*
X32971929Y-9448156D01*
X32974326Y-9445617D01*
X33005276Y-9414669D01*
X33013238Y-9402752D01*
X33018563Y-9395873D01*
X33020859Y-9393299D01*
X33063938Y-9372505D01*
X33109104Y-9388262D01*
X33129898Y-9431341D01*
X33130000Y-9434903D01*
X33130000Y-9609999D01*
X33173008Y-9609999D01*
X33202724Y-9607213D01*
X33327921Y-9563404D01*
X33434640Y-9484640D01*
X33513404Y-9377922D01*
X33557212Y-9252724D01*
X33557213Y-9252722D01*
X33560000Y-9222999D01*
X33560000Y-9150000D01*
X33209564Y-9150000D01*
X33165370Y-9131694D01*
X33147064Y-9087500D01*
X33148265Y-9075308D01*
X33150499Y-9064072D01*
X33150500Y-9064068D01*
X33150500Y-9049731D01*
X33151105Y-9041054D01*
X33151315Y-9039556D01*
X33153094Y-9026867D01*
X33150602Y-8983236D01*
X33150500Y-8979672D01*
X33150500Y-8912500D01*
X33168806Y-8868306D01*
X33213000Y-8850000D01*
X33559999Y-8850000D01*
X33559999Y-8813000D01*
X33578305Y-8768806D01*
X33622499Y-8750500D01*
X33940702Y-8750500D01*
X33963386Y-8748714D01*
X33977569Y-8747598D01*
X34135398Y-8701744D01*
X34276865Y-8618081D01*
X34393081Y-8501865D01*
X34446204Y-8412038D01*
X34484456Y-8383318D01*
X34531815Y-8390057D01*
X34553795Y-8412037D01*
X34596231Y-8483793D01*
X34606920Y-8501867D01*
X34723132Y-8618079D01*
X34723134Y-8618080D01*
X34723135Y-8618081D01*
X34864602Y-8701744D01*
X35022431Y-8747598D01*
X35029806Y-8748178D01*
X35059298Y-8750500D01*
X35059306Y-8750500D01*
X35937500Y-8750500D01*
X35981694Y-8768806D01*
X36000000Y-8813000D01*
X36000000Y-13418742D01*
X35981694Y-13462936D01*
X35937500Y-13481242D01*
X35900386Y-13469029D01*
X35843966Y-13427389D01*
X35716637Y-13382835D01*
X35716632Y-13382834D01*
X35686400Y-13380000D01*
X35635000Y-13380000D01*
X35635000Y-13665599D01*
X35616694Y-13709793D01*
X35572500Y-13728099D01*
X35528306Y-13709793D01*
X35518375Y-13696852D01*
X35480520Y-13631284D01*
X35480515Y-13631279D01*
X35368721Y-13519484D01*
X35368712Y-13519477D01*
X35366244Y-13518052D01*
X35337128Y-13480099D01*
X35335000Y-13463929D01*
X35335000Y-13380000D01*
X35283600Y-13380000D01*
X35253367Y-13382834D01*
X35253359Y-13382836D01*
X35202188Y-13400741D01*
X35154428Y-13398058D01*
X35137353Y-13385942D01*
X35062822Y-13311411D01*
X35009103Y-13279642D01*
X34921897Y-13228069D01*
X34918669Y-13227131D01*
X34764672Y-13182390D01*
X34727948Y-13179500D01*
X34727940Y-13179500D01*
X34302060Y-13179500D01*
X34302052Y-13179500D01*
X34265329Y-13182390D01*
X34265325Y-13182390D01*
X34108105Y-13228068D01*
X34108102Y-13228069D01*
X34036353Y-13270500D01*
X33988995Y-13277239D01*
X33972726Y-13270500D01*
X33899393Y-13227131D01*
X33899390Y-13227130D01*
X33745201Y-13182334D01*
X33709189Y-13179500D01*
X33310812Y-13179500D01*
X33310808Y-13179501D01*
X33274798Y-13182334D01*
X33120609Y-13227130D01*
X33031815Y-13279642D01*
X32984456Y-13286381D01*
X32968185Y-13279642D01*
X32964122Y-13277239D01*
X32879393Y-13227131D01*
X32791030Y-13201459D01*
X32725201Y-13182334D01*
X32689189Y-13179500D01*
X32290812Y-13179500D01*
X32290808Y-13179501D01*
X32254798Y-13182334D01*
X32100609Y-13227130D01*
X31962399Y-13308866D01*
X31848866Y-13422399D01*
X31767130Y-13560609D01*
X31722334Y-13714796D01*
X31722334Y-13714800D01*
X31719500Y-13750810D01*
X31719500Y-14249187D01*
X31719501Y-14249191D01*
X31722334Y-14285201D01*
X31753495Y-14392456D01*
X31767131Y-14439393D01*
X31829080Y-14544143D01*
X31848866Y-14577600D01*
X31962399Y-14691133D01*
X31962401Y-14691134D01*
X31962402Y-14691135D01*
X32100607Y-14772869D01*
X32254796Y-14817665D01*
X32290819Y-14820500D01*
X32689180Y-14820499D01*
X32689187Y-14820499D01*
X32689190Y-14820498D01*
X32725204Y-14817665D01*
X32879393Y-14772869D01*
X32968186Y-14720356D01*
X33015543Y-14713616D01*
X33031810Y-14720354D01*
X33120607Y-14772869D01*
X33274796Y-14817665D01*
X33310819Y-14820500D01*
X33709180Y-14820499D01*
X33709187Y-14820499D01*
X33709190Y-14820498D01*
X33745204Y-14817665D01*
X33899393Y-14772869D01*
X33972726Y-14729498D01*
X34020082Y-14722758D01*
X34036350Y-14729496D01*
X34080282Y-14755477D01*
X34108102Y-14771931D01*
X34160510Y-14787157D01*
X34265325Y-14817609D01*
X34272672Y-14818187D01*
X34302052Y-14820500D01*
X34302060Y-14820500D01*
X34727948Y-14820500D01*
X34750546Y-14818720D01*
X34764675Y-14817609D01*
X34921897Y-14771931D01*
X35062820Y-14688590D01*
X35137355Y-14614054D01*
X35181545Y-14595750D01*
X35202189Y-14599257D01*
X35253365Y-14617164D01*
X35253367Y-14617165D01*
X35283600Y-14620000D01*
X35335000Y-14620000D01*
X35335000Y-14536070D01*
X35353306Y-14491876D01*
X35366251Y-14481942D01*
X35368716Y-14480520D01*
X35480520Y-14368716D01*
X35518375Y-14303148D01*
X35556324Y-14274030D01*
X35603750Y-14280273D01*
X35632870Y-14318224D01*
X35635000Y-14334400D01*
X35635000Y-14620000D01*
X35686400Y-14620000D01*
X35716632Y-14617165D01*
X35716637Y-14617164D01*
X35843965Y-14572610D01*
X35843966Y-14572610D01*
X35900386Y-14530970D01*
X35946815Y-14519455D01*
X35987787Y-14544143D01*
X36000000Y-14581257D01*
X36000000Y-18162000D01*
X35981694Y-18206194D01*
X35937500Y-18224500D01*
X35752135Y-18224500D01*
X35752118Y-18224501D01*
X35692515Y-18230909D01*
X35671839Y-18238620D01*
X35628161Y-18238620D01*
X35607484Y-18230909D01*
X35547873Y-18224500D01*
X35102135Y-18224500D01*
X35102118Y-18224501D01*
X35042513Y-18230909D01*
X34907668Y-18281203D01*
X34907663Y-18281206D01*
X34792456Y-18367451D01*
X34792451Y-18367456D01*
X34725033Y-18457515D01*
X34683894Y-18481924D01*
X34637545Y-18470093D01*
X34624967Y-18457515D01*
X34557548Y-18367456D01*
X34557543Y-18367451D01*
X34442336Y-18281206D01*
X34442331Y-18281203D01*
X34307485Y-18230909D01*
X34307487Y-18230909D01*
X34247873Y-18224500D01*
X33802135Y-18224500D01*
X33802118Y-18224501D01*
X33742513Y-18230909D01*
X33607668Y-18281203D01*
X33607663Y-18281206D01*
X33492456Y-18367451D01*
X33492451Y-18367456D01*
X33406206Y-18482663D01*
X33406203Y-18482668D01*
X33355909Y-18617513D01*
X33349500Y-18677119D01*
X33349500Y-18793907D01*
X33331194Y-18838101D01*
X33287000Y-18856407D01*
X33269041Y-18853771D01*
X31898195Y-18442517D01*
X31322004Y-18269659D01*
X31284935Y-18239427D01*
X31278595Y-18217877D01*
X31278240Y-18217942D01*
X31277665Y-18214798D01*
X31277665Y-18214796D01*
X31232869Y-18060607D01*
X31151135Y-17922402D01*
X31151134Y-17922401D01*
X31151133Y-17922399D01*
X31037600Y-17808866D01*
X31011200Y-17793253D01*
X30899393Y-17727131D01*
X30798711Y-17697880D01*
X30745201Y-17682334D01*
X30709189Y-17679500D01*
X30310812Y-17679500D01*
X30310808Y-17679501D01*
X30274798Y-17682334D01*
X30120609Y-17727130D01*
X30031815Y-17779642D01*
X29984456Y-17786381D01*
X29968185Y-17779642D01*
X29879393Y-17727131D01*
X29778711Y-17697880D01*
X29725201Y-17682334D01*
X29689189Y-17679500D01*
X29290812Y-17679500D01*
X29290808Y-17679501D01*
X29254798Y-17682334D01*
X29100609Y-17727130D01*
X28962399Y-17808866D01*
X28848866Y-17922399D01*
X28767130Y-18060609D01*
X28722334Y-18214796D01*
X28722334Y-18214800D01*
X28719500Y-18250810D01*
X28719500Y-18749187D01*
X28719501Y-18749191D01*
X28722334Y-18785201D01*
X28742256Y-18853771D01*
X28767131Y-18939393D01*
X28833253Y-19051200D01*
X28848866Y-19077600D01*
X28962399Y-19191133D01*
X28962401Y-19191134D01*
X28962402Y-19191135D01*
X29100607Y-19272869D01*
X29254796Y-19317665D01*
X29290819Y-19320500D01*
X29689180Y-19320499D01*
X29689187Y-19320499D01*
X29689190Y-19320498D01*
X29725204Y-19317665D01*
X29879393Y-19272869D01*
X29968186Y-19220356D01*
X30015543Y-19213616D01*
X30031810Y-19220354D01*
X30120607Y-19272869D01*
X30274796Y-19317665D01*
X30310819Y-19320500D01*
X30636022Y-19320499D01*
X30653981Y-19323135D01*
X30864093Y-19386168D01*
X31621712Y-19613454D01*
X31658781Y-19643686D01*
X31663616Y-19691276D01*
X31633383Y-19728346D01*
X31609971Y-19735507D01*
X31034676Y-19793036D01*
X30996643Y-19784643D01*
X30899393Y-19727131D01*
X30899390Y-19727130D01*
X30745201Y-19682334D01*
X30709189Y-19679500D01*
X30310812Y-19679500D01*
X30310808Y-19679501D01*
X30274798Y-19682334D01*
X30120609Y-19727130D01*
X30120607Y-19727130D01*
X30120607Y-19727131D01*
X30031815Y-19779642D01*
X29984456Y-19786381D01*
X29968185Y-19779642D01*
X29879393Y-19727131D01*
X29852446Y-19719302D01*
X29725201Y-19682334D01*
X29689189Y-19679500D01*
X29290812Y-19679500D01*
X29290808Y-19679501D01*
X29254798Y-19682334D01*
X29100609Y-19727130D01*
X28962399Y-19808866D01*
X28848866Y-19922399D01*
X28767130Y-20060609D01*
X28722334Y-20214796D01*
X28722334Y-20214800D01*
X28719500Y-20250810D01*
X28719500Y-20749187D01*
X28719501Y-20749191D01*
X28722334Y-20785201D01*
X28753742Y-20893306D01*
X28767131Y-20939393D01*
X28833253Y-21051200D01*
X28848866Y-21077600D01*
X28962399Y-21191133D01*
X28962401Y-21191134D01*
X28962402Y-21191135D01*
X29100607Y-21272869D01*
X29254796Y-21317665D01*
X29290819Y-21320500D01*
X29689180Y-21320499D01*
X29689187Y-21320499D01*
X29689190Y-21320498D01*
X29725204Y-21317665D01*
X29879393Y-21272869D01*
X29968186Y-21220356D01*
X30015543Y-21213616D01*
X30031810Y-21220354D01*
X30120607Y-21272869D01*
X30274796Y-21317665D01*
X30310819Y-21320500D01*
X30709180Y-21320499D01*
X30709187Y-21320499D01*
X30709190Y-21320498D01*
X30745204Y-21317665D01*
X30899393Y-21272869D01*
X31037598Y-21191135D01*
X31151135Y-21077598D01*
X31191111Y-21010000D01*
X31229364Y-20981279D01*
X31238682Y-20979626D01*
X33481284Y-20755365D01*
X33527077Y-20769183D01*
X33549690Y-20811336D01*
X33550000Y-20817555D01*
X33550000Y-20875000D01*
X33937000Y-20875000D01*
X33981194Y-20893306D01*
X33999500Y-20937500D01*
X33999500Y-21148612D01*
X33981194Y-21192806D01*
X33937000Y-21211112D01*
X33892806Y-21192806D01*
X33875000Y-21175000D01*
X33550001Y-21175000D01*
X33550001Y-21319792D01*
X33552910Y-21344876D01*
X33598214Y-21447479D01*
X33677520Y-21526785D01*
X33780124Y-21572089D01*
X33805208Y-21574999D01*
X33874999Y-21574999D01*
X33875000Y-21574998D01*
X33875000Y-21330864D01*
X33893306Y-21286670D01*
X33937500Y-21268364D01*
X33981694Y-21286670D01*
X33999642Y-21324184D01*
X34005909Y-21382486D01*
X34056203Y-21517331D01*
X34056206Y-21517336D01*
X34142451Y-21632543D01*
X34142456Y-21632548D01*
X34257663Y-21718793D01*
X34257668Y-21718796D01*
X34392514Y-21769090D01*
X34392515Y-21769090D01*
X34392517Y-21769091D01*
X34452127Y-21775500D01*
X34897872Y-21775499D01*
X34957483Y-21769091D01*
X34978160Y-21761379D01*
X35021840Y-21761379D01*
X35042517Y-21769091D01*
X35102127Y-21775500D01*
X35547872Y-21775499D01*
X35607483Y-21769091D01*
X35628160Y-21761379D01*
X35671840Y-21761379D01*
X35692517Y-21769091D01*
X35752127Y-21775500D01*
X35937500Y-21775499D01*
X35981694Y-21793805D01*
X36000000Y-21837999D01*
X36000000Y-29437000D01*
X35981694Y-29481194D01*
X35937500Y-29499500D01*
X563000Y-29499500D01*
X518806Y-29481194D01*
X500500Y-29437000D01*
X500500Y-27200000D01*
X700000Y-27200000D01*
X700000Y-28800000D01*
X1893053Y-28800000D01*
X1893070Y-28799998D01*
X1981443Y-28789386D01*
X2013213Y-28776857D01*
X2055455Y-28775558D01*
X2183757Y-28817246D01*
X2272244Y-28831261D01*
X2393699Y-28850498D01*
X2393705Y-28850498D01*
X2393713Y-28850500D01*
X2393715Y-28850500D01*
X2606285Y-28850500D01*
X2606287Y-28850500D01*
X2816243Y-28817246D01*
X3018412Y-28751557D01*
X3207816Y-28655051D01*
X3379792Y-28530104D01*
X3530104Y-28379792D01*
X3593123Y-28293053D01*
X4700000Y-28293053D01*
X4700001Y-28293070D01*
X4710614Y-28381446D01*
X4766075Y-28522087D01*
X4766080Y-28522096D01*
X4857435Y-28642564D01*
X4977903Y-28733919D01*
X4977912Y-28733924D01*
X5118553Y-28789385D01*
X5206929Y-28799998D01*
X5206947Y-28800000D01*
X6400000Y-28800000D01*
X6700000Y-28800000D01*
X7893053Y-28800000D01*
X7893070Y-28799998D01*
X7981439Y-28789386D01*
X7984681Y-28788567D01*
X8015319Y-28788567D01*
X8018560Y-28789386D01*
X8106929Y-28799998D01*
X8106947Y-28800000D01*
X9300000Y-28800000D01*
X9600000Y-28800000D01*
X10793053Y-28800000D01*
X10793070Y-28799998D01*
X10881446Y-28789385D01*
X11022087Y-28733924D01*
X11022096Y-28733919D01*
X11142564Y-28642564D01*
X11233919Y-28522096D01*
X11233924Y-28522087D01*
X11289385Y-28381446D01*
X11299998Y-28293070D01*
X11300000Y-28293053D01*
X13600000Y-28293053D01*
X13600001Y-28293070D01*
X13610614Y-28381446D01*
X13666075Y-28522087D01*
X13666080Y-28522096D01*
X13757435Y-28642564D01*
X13877903Y-28733919D01*
X13877912Y-28733924D01*
X14018553Y-28789385D01*
X14106929Y-28799998D01*
X14106947Y-28800000D01*
X15300000Y-28800000D01*
X15600000Y-28800000D01*
X16793053Y-28800000D01*
X16793070Y-28799998D01*
X16881446Y-28789385D01*
X17022087Y-28733924D01*
X17022096Y-28733919D01*
X17142564Y-28642564D01*
X17233919Y-28522096D01*
X17233924Y-28522087D01*
X17289385Y-28381446D01*
X17299998Y-28293070D01*
X17300000Y-28293053D01*
X17300000Y-28150000D01*
X15600000Y-28150000D01*
X15600000Y-28800000D01*
X15300000Y-28800000D01*
X15300000Y-28150000D01*
X13600000Y-28150000D01*
X13600000Y-28293053D01*
X11300000Y-28293053D01*
X11300000Y-28150000D01*
X9600000Y-28150000D01*
X9600000Y-28800000D01*
X9300000Y-28800000D01*
X9300000Y-28150000D01*
X6700000Y-28150000D01*
X6700000Y-28800000D01*
X6400000Y-28800000D01*
X6400000Y-28150000D01*
X4700000Y-28150000D01*
X4700000Y-28293053D01*
X3593123Y-28293053D01*
X3655051Y-28207816D01*
X3751557Y-28018412D01*
X3817246Y-27816243D01*
X3825852Y-27761905D01*
X3834557Y-27706946D01*
X4700000Y-27706946D01*
X4700000Y-27850000D01*
X6400000Y-27850000D01*
X6700000Y-27850000D01*
X9300000Y-27850000D01*
X9600000Y-27850000D01*
X11300000Y-27850000D01*
X11300000Y-27706946D01*
X13600000Y-27706946D01*
X13600000Y-27850000D01*
X15300000Y-27850000D01*
X15600000Y-27850000D01*
X17300000Y-27850000D01*
X17300000Y-27706946D01*
X17299998Y-27706929D01*
X17289385Y-27618553D01*
X17233924Y-27477912D01*
X17233919Y-27477903D01*
X17142564Y-27357435D01*
X17022096Y-27266080D01*
X17022087Y-27266075D01*
X16881446Y-27210614D01*
X16793070Y-27200001D01*
X16793053Y-27200000D01*
X15600000Y-27200000D01*
X15600000Y-27850000D01*
X15300000Y-27850000D01*
X15300000Y-27200000D01*
X14106947Y-27200000D01*
X14106929Y-27200001D01*
X14018553Y-27210614D01*
X13877912Y-27266075D01*
X13877903Y-27266080D01*
X13757435Y-27357435D01*
X13666080Y-27477903D01*
X13666075Y-27477912D01*
X13610614Y-27618553D01*
X13600001Y-27706929D01*
X13600000Y-27706946D01*
X11300000Y-27706946D01*
X11299998Y-27706929D01*
X11289385Y-27618553D01*
X11233924Y-27477912D01*
X11233919Y-27477903D01*
X11142564Y-27357435D01*
X11022096Y-27266080D01*
X11022087Y-27266075D01*
X10881446Y-27210614D01*
X10793070Y-27200001D01*
X10793053Y-27200000D01*
X9600000Y-27200000D01*
X9600000Y-27850000D01*
X9300000Y-27850000D01*
X9300000Y-27200000D01*
X8106947Y-27200000D01*
X8106929Y-27200001D01*
X8018552Y-27210614D01*
X8015309Y-27211434D01*
X7984691Y-27211434D01*
X7981447Y-27210614D01*
X7893070Y-27200001D01*
X7893053Y-27200000D01*
X6700000Y-27200000D01*
X6700000Y-27850000D01*
X6400000Y-27850000D01*
X6400000Y-27200000D01*
X5206947Y-27200000D01*
X5206929Y-27200001D01*
X5118553Y-27210614D01*
X4977912Y-27266075D01*
X4977903Y-27266080D01*
X4857435Y-27357435D01*
X4766080Y-27477903D01*
X4766075Y-27477912D01*
X4710614Y-27618553D01*
X4700001Y-27706929D01*
X4700000Y-27706946D01*
X3834557Y-27706946D01*
X3836403Y-27695295D01*
X3850498Y-27606300D01*
X3850500Y-27606284D01*
X3850500Y-27393715D01*
X3850498Y-27393699D01*
X3830284Y-27266075D01*
X3817246Y-27183757D01*
X3751557Y-26981588D01*
X3655051Y-26792184D01*
X3530104Y-26620208D01*
X3530102Y-26620205D01*
X3379794Y-26469897D01*
X3207817Y-26344949D01*
X3018418Y-26248446D01*
X3018410Y-26248442D01*
X2816241Y-26182753D01*
X2606300Y-26149501D01*
X2606288Y-26149500D01*
X2606287Y-26149500D01*
X2393713Y-26149500D01*
X2393711Y-26149500D01*
X2393699Y-26149501D01*
X2183759Y-26182753D01*
X2183758Y-26182753D01*
X1981589Y-26248442D01*
X1981581Y-26248446D01*
X1792182Y-26344949D01*
X1620205Y-26469897D01*
X1469897Y-26620205D01*
X1344949Y-26792182D01*
X1248446Y-26981581D01*
X1248442Y-26981589D01*
X1191508Y-27156814D01*
X1160441Y-27193188D01*
X1132067Y-27200000D01*
X700000Y-27200000D01*
X500500Y-27200000D01*
X500500Y-25062999D01*
X518806Y-25018805D01*
X563000Y-25000499D01*
X1900006Y-25000499D01*
X1900008Y-25000499D01*
X1951402Y-24995249D01*
X2002788Y-24990000D01*
X2002789Y-24989999D01*
X2002797Y-24989999D01*
X2169334Y-24934814D01*
X2318656Y-24842712D01*
X2442712Y-24718656D01*
X2534814Y-24569334D01*
X2589999Y-24402797D01*
X2600500Y-24300009D01*
X2600499Y-23699992D01*
X2600498Y-23699983D01*
X4499500Y-23699983D01*
X4499500Y-24300005D01*
X4499501Y-24300017D01*
X4509999Y-24402788D01*
X4510000Y-24402795D01*
X4565185Y-24569333D01*
X4565186Y-24569334D01*
X4657288Y-24718656D01*
X4781344Y-24842712D01*
X4930666Y-24934814D01*
X5097203Y-24989999D01*
X5097204Y-24989999D01*
X5097207Y-24990000D01*
X5144511Y-24994832D01*
X5199991Y-25000500D01*
X7900008Y-25000499D01*
X7993656Y-24990932D01*
X8006341Y-24990932D01*
X8099991Y-25000500D01*
X10800008Y-25000499D01*
X10851402Y-24995249D01*
X10902788Y-24990000D01*
X10902789Y-24989999D01*
X10902797Y-24989999D01*
X11069334Y-24934814D01*
X11218656Y-24842712D01*
X11342712Y-24718656D01*
X11434814Y-24569334D01*
X11489999Y-24402797D01*
X11500500Y-24300009D01*
X11500499Y-23699992D01*
X11500498Y-23699983D01*
X13399500Y-23699983D01*
X13399500Y-24300005D01*
X13399501Y-24300017D01*
X13409999Y-24402788D01*
X13410000Y-24402795D01*
X13465185Y-24569333D01*
X13465186Y-24569334D01*
X13557288Y-24718656D01*
X13681344Y-24842712D01*
X13830666Y-24934814D01*
X13997203Y-24989999D01*
X13997204Y-24989999D01*
X13997207Y-24990000D01*
X14044511Y-24994832D01*
X14099991Y-25000500D01*
X16800008Y-25000499D01*
X16851402Y-24995249D01*
X16902788Y-24990000D01*
X16902789Y-24989999D01*
X16902797Y-24989999D01*
X17069334Y-24934814D01*
X17218656Y-24842712D01*
X17342712Y-24718656D01*
X17434814Y-24569334D01*
X17489999Y-24402797D01*
X17500500Y-24300009D01*
X17500499Y-23699992D01*
X17489999Y-23597203D01*
X17434814Y-23430666D01*
X17342712Y-23281344D01*
X17218656Y-23157288D01*
X17218655Y-23157287D01*
X17069333Y-23065185D01*
X16902792Y-23009999D01*
X16800011Y-22999500D01*
X14099994Y-22999500D01*
X14099982Y-22999501D01*
X13997211Y-23009999D01*
X13997204Y-23010000D01*
X13830666Y-23065185D01*
X13681344Y-23157287D01*
X13557287Y-23281344D01*
X13465185Y-23430666D01*
X13409999Y-23597207D01*
X13399500Y-23699983D01*
X11500498Y-23699983D01*
X11489999Y-23597203D01*
X11434814Y-23430666D01*
X11342712Y-23281344D01*
X11218656Y-23157288D01*
X11218655Y-23157287D01*
X11069333Y-23065185D01*
X10902792Y-23009999D01*
X10800016Y-22999500D01*
X10288909Y-22999500D01*
X10244715Y-22981194D01*
X10226409Y-22937000D01*
X10244715Y-22892806D01*
X10251449Y-22886969D01*
X10357546Y-22807546D01*
X10378987Y-22778904D01*
X10443793Y-22692336D01*
X10443796Y-22692331D01*
X10494090Y-22557486D01*
X10494090Y-22557485D01*
X10494091Y-22557483D01*
X10500500Y-22497873D01*
X10500499Y-21502128D01*
X10494091Y-21442517D01*
X10471700Y-21382483D01*
X10443797Y-21307670D01*
X10428664Y-21287456D01*
X10416833Y-21241106D01*
X10428664Y-21212544D01*
X10443797Y-21192329D01*
X10494090Y-21057486D01*
X10494090Y-21057485D01*
X10494091Y-21057483D01*
X10500500Y-20997873D01*
X10500499Y-20002128D01*
X10494091Y-19942517D01*
X10494090Y-19942513D01*
X10443797Y-19807670D01*
X10428664Y-19787456D01*
X10416833Y-19741106D01*
X10428664Y-19712544D01*
X10434975Y-19704114D01*
X10443796Y-19692331D01*
X10444190Y-19691276D01*
X10494090Y-19557486D01*
X10494090Y-19557485D01*
X10494091Y-19557483D01*
X10500500Y-19497873D01*
X10500499Y-18502128D01*
X10494091Y-18442517D01*
X10494090Y-18442513D01*
X10443797Y-18307670D01*
X10428664Y-18287456D01*
X10416833Y-18241106D01*
X10428664Y-18212544D01*
X10443797Y-18192329D01*
X10494090Y-18057486D01*
X10494090Y-18057485D01*
X10494091Y-18057483D01*
X10500500Y-17997873D01*
X10500499Y-17002128D01*
X10494091Y-16942517D01*
X10494090Y-16942513D01*
X10443797Y-16807670D01*
X10428664Y-16787456D01*
X10416833Y-16741106D01*
X10428664Y-16712544D01*
X10443797Y-16692329D01*
X10494090Y-16557486D01*
X10494090Y-16557485D01*
X10494091Y-16557483D01*
X10500500Y-16497873D01*
X10500499Y-15502128D01*
X10494091Y-15442517D01*
X10462007Y-15356495D01*
X10443797Y-15307670D01*
X10428664Y-15287456D01*
X10416833Y-15241106D01*
X10428664Y-15212544D01*
X10443797Y-15192329D01*
X10494090Y-15057486D01*
X10494090Y-15057485D01*
X10494091Y-15057483D01*
X10500500Y-14997873D01*
X10500499Y-14002128D01*
X10494091Y-13942517D01*
X10494090Y-13942513D01*
X10443797Y-13807670D01*
X10428664Y-13787456D01*
X10416833Y-13741106D01*
X10428664Y-13712544D01*
X10443796Y-13692331D01*
X10453767Y-13665599D01*
X10494090Y-13557486D01*
X10494090Y-13557485D01*
X10494091Y-13557483D01*
X10500500Y-13497873D01*
X10500499Y-12502128D01*
X10494091Y-12442517D01*
X10448582Y-12320500D01*
X10443797Y-12307670D01*
X10428664Y-12287456D01*
X10416833Y-12241106D01*
X10428664Y-12212544D01*
X10443797Y-12192329D01*
X10494090Y-12057486D01*
X10494090Y-12057485D01*
X10494091Y-12057483D01*
X10500500Y-11997873D01*
X10500499Y-11002128D01*
X10494091Y-10942517D01*
X10487955Y-10926066D01*
X10443796Y-10807668D01*
X10357548Y-10692456D01*
X10357546Y-10692454D01*
X10340242Y-10679500D01*
X10294639Y-10645362D01*
X10270231Y-10604223D01*
X10274920Y-10570084D01*
X10297090Y-10519873D01*
X10300000Y-10494792D01*
X10300000Y-10150000D01*
X8200001Y-10150000D01*
X8200001Y-10494792D01*
X8202910Y-10519876D01*
X8225079Y-10570084D01*
X8226183Y-10617907D01*
X8205359Y-10645363D01*
X8142456Y-10692451D01*
X8142450Y-10692458D01*
X8056206Y-10807663D01*
X8056203Y-10807668D01*
X8005909Y-10942513D01*
X7999500Y-11002119D01*
X7999500Y-11997864D01*
X7999501Y-11997881D01*
X8005909Y-12057486D01*
X8056203Y-12192331D01*
X8056205Y-12192335D01*
X8071335Y-12212546D01*
X8083165Y-12258895D01*
X8071335Y-12287454D01*
X8056205Y-12307664D01*
X8056203Y-12307668D01*
X8005909Y-12442513D01*
X7999500Y-12502119D01*
X7999500Y-13497864D01*
X7999501Y-13497881D01*
X8005909Y-13557486D01*
X8056203Y-13692331D01*
X8056205Y-13692335D01*
X8071335Y-13712546D01*
X8083165Y-13758895D01*
X8071335Y-13787454D01*
X8056205Y-13807664D01*
X8056203Y-13807668D01*
X8005909Y-13942513D01*
X7999500Y-14002119D01*
X7999500Y-14997864D01*
X7999501Y-14997881D01*
X8005909Y-15057486D01*
X8056203Y-15192331D01*
X8056205Y-15192335D01*
X8071335Y-15212546D01*
X8083165Y-15258895D01*
X8071335Y-15287454D01*
X8056205Y-15307664D01*
X8056203Y-15307668D01*
X8005909Y-15442513D01*
X7999500Y-15502119D01*
X7999500Y-16497864D01*
X7999501Y-16497881D01*
X8005909Y-16557486D01*
X8056203Y-16692331D01*
X8056205Y-16692335D01*
X8071335Y-16712546D01*
X8083165Y-16758895D01*
X8071335Y-16787454D01*
X8056205Y-16807664D01*
X8056203Y-16807668D01*
X8005909Y-16942513D01*
X7999500Y-17002119D01*
X7999500Y-17997864D01*
X7999501Y-17997881D01*
X8005909Y-18057486D01*
X8056203Y-18192331D01*
X8056205Y-18192335D01*
X8071335Y-18212546D01*
X8083165Y-18258895D01*
X8071335Y-18287454D01*
X8056205Y-18307664D01*
X8056203Y-18307668D01*
X8005909Y-18442513D01*
X7999500Y-18502119D01*
X7999500Y-19497864D01*
X7999501Y-19497881D01*
X8005909Y-19557486D01*
X8056203Y-19692331D01*
X8056205Y-19692335D01*
X8071335Y-19712546D01*
X8083165Y-19758895D01*
X8071335Y-19787454D01*
X8056205Y-19807664D01*
X8056203Y-19807668D01*
X8005909Y-19942513D01*
X7999500Y-20002119D01*
X7999500Y-20997864D01*
X7999501Y-20997881D01*
X8005909Y-21057486D01*
X8056203Y-21192331D01*
X8056205Y-21192335D01*
X8071335Y-21212546D01*
X8083165Y-21258895D01*
X8071335Y-21287454D01*
X8056205Y-21307664D01*
X8056203Y-21307668D01*
X8005909Y-21442513D01*
X7999500Y-21502119D01*
X7999500Y-22497864D01*
X7999501Y-22497881D01*
X8005909Y-22557486D01*
X8056203Y-22692331D01*
X8056206Y-22692336D01*
X8142451Y-22807543D01*
X8142452Y-22807544D01*
X8142454Y-22807546D01*
X8248546Y-22886966D01*
X8272955Y-22928106D01*
X8261125Y-22974455D01*
X8219985Y-22998864D01*
X8211092Y-22999500D01*
X8099994Y-22999500D01*
X8099982Y-22999501D01*
X8006351Y-23009066D01*
X7993648Y-23009066D01*
X7900011Y-22999500D01*
X5199994Y-22999500D01*
X5199982Y-22999501D01*
X5097211Y-23009999D01*
X5097204Y-23010000D01*
X4930666Y-23065185D01*
X4781344Y-23157287D01*
X4657287Y-23281344D01*
X4565185Y-23430666D01*
X4509999Y-23597207D01*
X4499500Y-23699983D01*
X2600498Y-23699983D01*
X2589999Y-23597203D01*
X2534814Y-23430666D01*
X2442712Y-23281344D01*
X2318656Y-23157288D01*
X2318655Y-23157287D01*
X2169333Y-23065185D01*
X2002792Y-23009999D01*
X1900016Y-22999500D01*
X1900009Y-22999500D01*
X563000Y-22999500D01*
X518806Y-22981194D01*
X500500Y-22937000D01*
X500500Y-11250810D01*
X2719500Y-11250810D01*
X2719500Y-11749187D01*
X2719501Y-11749191D01*
X2722334Y-11785201D01*
X2722335Y-11785204D01*
X2767131Y-11939393D01*
X2801720Y-11997880D01*
X2848866Y-12077600D01*
X2962399Y-12191133D01*
X2962401Y-12191134D01*
X2962402Y-12191135D01*
X3100607Y-12272869D01*
X3254796Y-12317665D01*
X3290819Y-12320500D01*
X3689180Y-12320499D01*
X3689187Y-12320499D01*
X3689190Y-12320498D01*
X3725204Y-12317665D01*
X3879393Y-12272869D01*
X4017598Y-12191135D01*
X4116010Y-12092723D01*
X4160204Y-12074417D01*
X4180847Y-12077924D01*
X4293215Y-12117243D01*
X4293217Y-12117244D01*
X4322609Y-12120000D01*
X4360000Y-12120000D01*
X4660000Y-12120000D01*
X4697391Y-12120000D01*
X4726782Y-12117244D01*
X4726787Y-12117243D01*
X4850558Y-12073933D01*
X4956064Y-11996064D01*
X5033933Y-11890558D01*
X5077243Y-11766787D01*
X5077244Y-11766782D01*
X5080000Y-11737390D01*
X5080000Y-11650000D01*
X4660000Y-11650000D01*
X4660000Y-12120000D01*
X4360000Y-12120000D01*
X4360000Y-11350000D01*
X4660000Y-11350000D01*
X5080000Y-11350000D01*
X5080000Y-11262605D01*
X5079327Y-11255423D01*
X5078894Y-11250810D01*
X5219500Y-11250810D01*
X5219500Y-11749187D01*
X5219501Y-11749191D01*
X5222334Y-11785201D01*
X5222335Y-11785204D01*
X5267131Y-11939393D01*
X5301720Y-11997880D01*
X5348866Y-12077600D01*
X5462399Y-12191133D01*
X5462401Y-12191134D01*
X5462402Y-12191135D01*
X5600607Y-12272869D01*
X5754796Y-12317665D01*
X5790819Y-12320500D01*
X6189180Y-12320499D01*
X6189187Y-12320499D01*
X6189190Y-12320498D01*
X6225204Y-12317665D01*
X6379393Y-12272869D01*
X6517598Y-12191135D01*
X6616010Y-12092723D01*
X6660204Y-12074417D01*
X6680847Y-12077924D01*
X6793215Y-12117243D01*
X6793217Y-12117244D01*
X6822609Y-12120000D01*
X6860000Y-12120000D01*
X7160000Y-12120000D01*
X7197391Y-12120000D01*
X7226782Y-12117244D01*
X7226787Y-12117243D01*
X7350558Y-12073933D01*
X7456064Y-11996064D01*
X7533933Y-11890558D01*
X7577243Y-11766787D01*
X7577244Y-11766782D01*
X7580000Y-11737390D01*
X7580000Y-11650000D01*
X7160000Y-11650000D01*
X7160000Y-12120000D01*
X6860000Y-12120000D01*
X6860000Y-11350000D01*
X7160000Y-11350000D01*
X7580000Y-11350000D01*
X7580000Y-11262609D01*
X7577244Y-11233217D01*
X7577243Y-11233212D01*
X7533933Y-11109441D01*
X7456064Y-11003935D01*
X7350558Y-10926066D01*
X7226787Y-10882756D01*
X7226782Y-10882755D01*
X7197391Y-10880000D01*
X7160000Y-10880000D01*
X7160000Y-11350000D01*
X6860000Y-11350000D01*
X6860000Y-10880000D01*
X6822609Y-10880000D01*
X6793217Y-10882755D01*
X6793212Y-10882756D01*
X6680846Y-10922075D01*
X6633086Y-10919392D01*
X6616010Y-10907276D01*
X6517600Y-10808866D01*
X6481394Y-10787454D01*
X6379393Y-10727131D01*
X6259625Y-10692335D01*
X6225201Y-10682334D01*
X6189189Y-10679500D01*
X5790812Y-10679500D01*
X5790808Y-10679501D01*
X5754798Y-10682334D01*
X5600609Y-10727130D01*
X5462399Y-10808866D01*
X5348866Y-10922399D01*
X5267130Y-11060609D01*
X5222334Y-11214796D01*
X5222334Y-11214800D01*
X5219500Y-11250810D01*
X5078894Y-11250810D01*
X5077244Y-11233217D01*
X5077243Y-11233212D01*
X5033933Y-11109441D01*
X4956064Y-11003935D01*
X4850558Y-10926066D01*
X4726787Y-10882756D01*
X4726782Y-10882755D01*
X4697391Y-10880000D01*
X4660000Y-10880000D01*
X4660000Y-11350000D01*
X4360000Y-11350000D01*
X4360000Y-10880000D01*
X4322609Y-10880000D01*
X4293217Y-10882755D01*
X4293212Y-10882756D01*
X4180846Y-10922075D01*
X4133086Y-10919392D01*
X4116010Y-10907276D01*
X4017600Y-10808866D01*
X3981394Y-10787454D01*
X3879393Y-10727131D01*
X3759625Y-10692335D01*
X3725201Y-10682334D01*
X3689189Y-10679500D01*
X3290812Y-10679500D01*
X3290808Y-10679501D01*
X3254798Y-10682334D01*
X3100609Y-10727130D01*
X2962399Y-10808866D01*
X2848866Y-10922399D01*
X2767130Y-11060609D01*
X2722334Y-11214796D01*
X2722334Y-11214800D01*
X2719500Y-11250810D01*
X500500Y-11250810D01*
X500500Y-2393715D01*
X1149500Y-2393715D01*
X1149500Y-2606284D01*
X1149501Y-2606300D01*
X1182753Y-2816240D01*
X1182753Y-2816241D01*
X1248442Y-3018410D01*
X1248446Y-3018418D01*
X1344949Y-3207817D01*
X1469897Y-3379794D01*
X1620205Y-3530102D01*
X1792182Y-3655050D01*
X1792184Y-3655051D01*
X1981588Y-3751557D01*
X2183757Y-3817246D01*
X2267111Y-3830448D01*
X2393699Y-3850498D01*
X2393705Y-3850498D01*
X2393713Y-3850500D01*
X2393715Y-3850500D01*
X2606285Y-3850500D01*
X2606287Y-3850500D01*
X2816243Y-3817246D01*
X3018412Y-3751557D01*
X3207816Y-3655051D01*
X3379792Y-3530104D01*
X3530104Y-3379792D01*
X3655051Y-3207816D01*
X3751557Y-3018412D01*
X3817246Y-2816243D01*
X3850500Y-2606287D01*
X3850500Y-2393713D01*
X3817246Y-2183757D01*
X3751557Y-1981588D01*
X3655051Y-1792184D01*
X3530104Y-1620208D01*
X3530102Y-1620205D01*
X3379794Y-1469897D01*
X3207817Y-1344949D01*
X3018418Y-1248446D01*
X3018410Y-1248442D01*
X2816241Y-1182753D01*
X2606300Y-1149501D01*
X2606288Y-1149500D01*
X2606287Y-1149500D01*
X2393713Y-1149500D01*
X2393711Y-1149500D01*
X2393699Y-1149501D01*
X2183759Y-1182753D01*
X2183758Y-1182753D01*
X1981589Y-1248442D01*
X1981581Y-1248446D01*
X1792182Y-1344949D01*
X1620205Y-1469897D01*
X1469897Y-1620205D01*
X1344949Y-1792182D01*
X1248446Y-1981581D01*
X1248442Y-1981589D01*
X1182753Y-2183758D01*
X1182753Y-2183759D01*
X1149501Y-2393699D01*
X1149500Y-2393715D01*
X500500Y-2393715D01*
X500500Y-563000D01*
X518806Y-518806D01*
X563000Y-500500D01*
X3937500Y-500500D01*
X3981694Y-518806D01*
G37*
%TD.AperFunction*%
%TD*%
M02*
