%TF.GenerationSoftware,KiCad,Pcbnew,10.0.6-10.0.6~ubuntu24.04.1*%
%TF.CreationDate,2026-09-27T09:45:30+01:00*%
%TF.ProjectId,board,626f6172-642e-46b6-9963-61645f706362,v0.2.1*%
%TF.SameCoordinates,Original*%
%TF.FileFunction,OtherDrawing,Comment*%
%FSLAX46Y46*%
G04 Gerber Fmt 4.6, Leading zero omitted, Abs format (unit mm)*
G04 Created by KiCad (PCBNEW 10.0.6-10.0.6~ubuntu24.04.1) date 2026-09-27 09:45:30*
%MOMM*%
%LPD*%
G01*
G04 APERTURE LIST*
%ADD10C,0.100000*%
G04 APERTURE END LIST*
D10*
X6760714Y-10326109D02*
X6760714Y-9826109D01*
X6760714Y-9826109D02*
X6951190Y-9826109D01*
X6951190Y-9826109D02*
X6998809Y-9849919D01*
X6998809Y-9849919D02*
X7022619Y-9873728D01*
X7022619Y-9873728D02*
X7046428Y-9921347D01*
X7046428Y-9921347D02*
X7046428Y-9992776D01*
X7046428Y-9992776D02*
X7022619Y-10040395D01*
X7022619Y-10040395D02*
X6998809Y-10064204D01*
X6998809Y-10064204D02*
X6951190Y-10088014D01*
X6951190Y-10088014D02*
X6760714Y-10088014D01*
X7546428Y-10278490D02*
X7522619Y-10302300D01*
X7522619Y-10302300D02*
X7451190Y-10326109D01*
X7451190Y-10326109D02*
X7403571Y-10326109D01*
X7403571Y-10326109D02*
X7332143Y-10302300D01*
X7332143Y-10302300D02*
X7284524Y-10254680D01*
X7284524Y-10254680D02*
X7260714Y-10207061D01*
X7260714Y-10207061D02*
X7236905Y-10111823D01*
X7236905Y-10111823D02*
X7236905Y-10040395D01*
X7236905Y-10040395D02*
X7260714Y-9945157D01*
X7260714Y-9945157D02*
X7284524Y-9897538D01*
X7284524Y-9897538D02*
X7332143Y-9849919D01*
X7332143Y-9849919D02*
X7403571Y-9826109D01*
X7403571Y-9826109D02*
X7451190Y-9826109D01*
X7451190Y-9826109D02*
X7522619Y-9849919D01*
X7522619Y-9849919D02*
X7546428Y-9873728D01*
X7927381Y-10064204D02*
X7998809Y-10088014D01*
X7998809Y-10088014D02*
X8022619Y-10111823D01*
X8022619Y-10111823D02*
X8046428Y-10159442D01*
X8046428Y-10159442D02*
X8046428Y-10230871D01*
X8046428Y-10230871D02*
X8022619Y-10278490D01*
X8022619Y-10278490D02*
X7998809Y-10302300D01*
X7998809Y-10302300D02*
X7951190Y-10326109D01*
X7951190Y-10326109D02*
X7760714Y-10326109D01*
X7760714Y-10326109D02*
X7760714Y-9826109D01*
X7760714Y-9826109D02*
X7927381Y-9826109D01*
X7927381Y-9826109D02*
X7975000Y-9849919D01*
X7975000Y-9849919D02*
X7998809Y-9873728D01*
X7998809Y-9873728D02*
X8022619Y-9921347D01*
X8022619Y-9921347D02*
X8022619Y-9968966D01*
X8022619Y-9968966D02*
X7998809Y-10016585D01*
X7998809Y-10016585D02*
X7975000Y-10040395D01*
X7975000Y-10040395D02*
X7927381Y-10064204D01*
X7927381Y-10064204D02*
X7760714Y-10064204D01*
X8641666Y-10064204D02*
X8808333Y-10064204D01*
X8879761Y-10326109D02*
X8641666Y-10326109D01*
X8641666Y-10326109D02*
X8641666Y-9826109D01*
X8641666Y-9826109D02*
X8879761Y-9826109D01*
X9308333Y-10326109D02*
X9308333Y-9826109D01*
X9308333Y-10302300D02*
X9260714Y-10326109D01*
X9260714Y-10326109D02*
X9165476Y-10326109D01*
X9165476Y-10326109D02*
X9117857Y-10302300D01*
X9117857Y-10302300D02*
X9094047Y-10278490D01*
X9094047Y-10278490D02*
X9070238Y-10230871D01*
X9070238Y-10230871D02*
X9070238Y-10088014D01*
X9070238Y-10088014D02*
X9094047Y-10040395D01*
X9094047Y-10040395D02*
X9117857Y-10016585D01*
X9117857Y-10016585D02*
X9165476Y-9992776D01*
X9165476Y-9992776D02*
X9260714Y-9992776D01*
X9260714Y-9992776D02*
X9308333Y-10016585D01*
X9760714Y-9992776D02*
X9760714Y-10397538D01*
X9760714Y-10397538D02*
X9736904Y-10445157D01*
X9736904Y-10445157D02*
X9713095Y-10468966D01*
X9713095Y-10468966D02*
X9665476Y-10492776D01*
X9665476Y-10492776D02*
X9594047Y-10492776D01*
X9594047Y-10492776D02*
X9546428Y-10468966D01*
X9760714Y-10302300D02*
X9713095Y-10326109D01*
X9713095Y-10326109D02*
X9617857Y-10326109D01*
X9617857Y-10326109D02*
X9570238Y-10302300D01*
X9570238Y-10302300D02*
X9546428Y-10278490D01*
X9546428Y-10278490D02*
X9522619Y-10230871D01*
X9522619Y-10230871D02*
X9522619Y-10088014D01*
X9522619Y-10088014D02*
X9546428Y-10040395D01*
X9546428Y-10040395D02*
X9570238Y-10016585D01*
X9570238Y-10016585D02*
X9617857Y-9992776D01*
X9617857Y-9992776D02*
X9713095Y-9992776D01*
X9713095Y-9992776D02*
X9760714Y-10016585D01*
X10189285Y-10302300D02*
X10141666Y-10326109D01*
X10141666Y-10326109D02*
X10046428Y-10326109D01*
X10046428Y-10326109D02*
X9998809Y-10302300D01*
X9998809Y-10302300D02*
X9975000Y-10254680D01*
X9975000Y-10254680D02*
X9975000Y-10064204D01*
X9975000Y-10064204D02*
X9998809Y-10016585D01*
X9998809Y-10016585D02*
X10046428Y-9992776D01*
X10046428Y-9992776D02*
X10141666Y-9992776D01*
X10141666Y-9992776D02*
X10189285Y-10016585D01*
X10189285Y-10016585D02*
X10213095Y-10064204D01*
X10213095Y-10064204D02*
X10213095Y-10111823D01*
X10213095Y-10111823D02*
X9975000Y-10159442D01*
M02*
